<svg width="54" height="54" viewBox="0 0 54 54" fill="none" xmlns="http://www.w3.org/2000/svg">
<rect width="54" height="54" rx="7.2" fill="#1D1D1D"/>
<path d="M38.25 30.75C38.25 31.413 37.9866 32.0489 37.5178 32.5178C37.0489 32.9866 36.413 33.25 35.75 33.25H20.75L15.75 38.25V18.25C15.75 17.587 16.0134 16.9511 16.4822 16.4822C16.9511 16.0134 17.587 15.75 18.25 15.75H35.75C36.413 15.75 37.0489 16.0134 37.5178 16.4822C37.9866 16.9511 38.25 17.587 38.25 18.25V30.75Z" fill="white" stroke="white" stroke-width="2.14286" stroke-linecap="round" stroke-linejoin="round"/>
<path d="M28.5993 25.5838C27.092 26.1442 25.4004 27.8358 24.8426 29.3405C24.7778 29.5169 24.5261 29.5169 24.4612 29.3405C23.9009 27.8332 22.2093 26.1416 20.7046 25.5838C20.5282 25.519 20.5282 25.2673 20.7046 25.2025C22.2093 24.6421 23.9009 22.9505 24.4612 21.4458C24.5261 21.2694 24.7778 21.2694 24.8426 21.4458C25.403 22.9531 27.0945 24.6447 28.5993 25.2025C28.7757 25.2673 28.7757 25.519 28.5993 25.5838Z" fill="#1D1D1D"/>
<path d="M33.3559 21.8724C32.5185 22.1837 31.5788 23.1235 31.2689 23.9595C31.2329 24.0575 31.0931 24.0575 31.057 23.9595C30.7457 23.122 29.806 22.1823 28.97 21.8724C28.872 21.8364 28.872 21.6966 28.97 21.6605C29.806 21.3492 30.7457 20.4095 31.057 19.5735C31.0931 19.4755 31.2329 19.4755 31.2689 19.5735C31.5802 20.4109 32.52 21.3507 33.3559 21.6605C33.454 21.6966 33.454 21.8364 33.3559 21.8724Z" fill="#1D1D1D"/>
</svg>
