<svg width="54" height="54" viewBox="0 0 54 54" fill="none" xmlns="http://www.w3.org/2000/svg">
<rect width="54" height="54" rx="7.2" fill="white"/>
<path d="M38.25 30.75C38.25 31.413 37.9866 32.0489 37.5178 32.5178C37.0489 32.9866 36.413 33.25 35.75 33.25H20.75L15.75 38.25V18.25C15.75 17.587 16.0134 16.9511 16.4822 16.4822C16.9511 16.0134 17.587 15.75 18.25 15.75H35.75C36.413 15.75 37.0489 16.0134 37.5178 16.4822C37.9866 16.9511 38.25 17.587 38.25 18.25V30.75Z" fill="black" stroke="black" stroke-width="2.14286" stroke-linecap="round" stroke-linejoin="round"/>
<path d="M27.8112 25.3933C27.176 25.7311 26.5527 26.2131 26.0113 26.7545C25.4703 27.2955 24.9888 27.9181 24.6517 28.5525C24.314 27.9172 23.8319 27.2939 23.2906 26.7525C22.7495 26.2114 22.1267 25.7298 21.4922 25.3927C22.1266 25.0549 22.7494 24.573 23.2906 24.0318C23.8319 23.4905 24.3139 22.8676 24.6517 22.2331C24.9895 22.8686 25.4717 23.4922 26.0133 24.0338C26.5543 24.5748 27.1769 25.0563 27.8112 25.3933ZM24.4612 21.4458C24.5261 21.2694 24.7778 21.2694 24.8426 21.4458C24.8629 21.5003 24.8846 21.555 24.9078 21.61C24.9081 21.6108 24.9085 21.6116 24.9089 21.6125C24.9129 21.6221 24.917 21.6317 24.9211 21.6412C24.8163 21.8709 24.4874 21.8709 24.3827 21.6411C24.3868 21.6315 24.391 21.6218 24.395 21.6122C24.3953 21.6115 24.3956 21.6107 24.396 21.61C24.4192 21.5551 24.4409 21.5003 24.4612 21.4458ZM20.9009 25.1234C22.2879 24.5244 23.7832 23.0291 24.3822 21.6421L20.9009 25.1234ZM20.8999 25.1239C21.1296 25.2286 21.1297 25.5573 20.9002 25.6622C20.8906 25.6581 20.8809 25.6539 20.8712 25.6499C20.8704 25.6495 20.8695 25.6492 20.8687 25.6488C20.8138 25.6257 20.7591 25.604 20.7046 25.5838L20.8999 25.1239Z" fill="white" stroke="white"/>
<path d="M30.5638 22.3646C30.3434 22.1442 30.0973 21.9385 29.839 21.7661C30.0973 21.5935 30.3434 21.3877 30.5638 21.1673C30.7843 20.9469 30.9901 20.7007 31.1627 20.4423C31.3354 20.7012 31.5414 20.9477 31.7621 21.1684C31.9824 21.3887 32.2283 21.5943 32.4866 21.7666C32.2279 21.9392 31.9816 22.1451 31.761 22.3656C31.5408 22.5859 31.3352 22.8319 31.1628 23.0901C30.9902 22.8314 30.7843 22.5851 30.5638 22.3646ZM31.057 19.5735C31.0931 19.4755 31.2329 19.4755 31.2689 19.5735L31.0208 19.6647C31.0336 19.6342 31.0458 19.6038 31.057 19.5735Z" fill="white" stroke="white"/>
</svg>
