<svg width="26" height="26" viewBox="0 0 26 26" fill="none" xmlns="http://www.w3.org/2000/svg">
<g clip-path="url(#clip0_253_12362)">
<path d="M21.0712 10.3508C20.4308 9.01894 19.5258 7.6102 18.4501 6.28684C17.4682 5.07447 16.3754 3.97309 15.3765 3.18761C14.8813 2.79487 14.4202 2.48751 14.0019 2.2826C13.1054 1.82156 12.6017 1.86425 11.7479 2.2826C11.321 2.49605 10.8429 2.79487 10.3391 3.18761C9.34022 3.96455 8.25592 5.06593 7.27407 6.28684C4.99448 9.147 3.63696 12.2035 3.63696 14.4661C3.63696 19.5802 7.79488 23.7381 12.909 23.7381C18.0232 23.7381 22.1811 19.5802 22.1811 14.4661C22.1811 13.2622 21.8054 11.8791 21.0712 10.3508ZM9.92079 12.8097C9.92079 12.2889 10.3477 11.862 10.8685 11.862C11.3893 11.862 11.8162 12.2889 11.8162 12.8097C11.8162 13.3305 11.3893 13.7574 10.8685 13.7574C10.3477 13.7574 9.92079 13.3305 9.92079 12.8097ZM15.0008 15.5931C14.8727 15.9516 14.719 16.3956 14.2922 16.7542C13.8738 17.1042 13.3615 17.164 12.9432 17.164C12.9005 17.164 12.8578 17.164 12.8236 17.164C11.7564 17.1384 10.9795 16.5493 10.8002 15.6357C10.7148 15.2088 11.0136 14.799 11.4747 14.7137C11.9101 14.6283 12.3114 14.8759 12.3968 15.2942C12.4394 15.5077 12.5248 15.6187 12.8493 15.6272C13.0627 15.6272 13.1908 15.6272 13.242 15.5845C13.3274 15.4991 13.3786 15.354 13.4298 15.2003C13.5408 14.8759 13.7713 14.688 14.0531 14.6283C14.3605 14.5685 14.6934 14.6795 14.8813 14.9015C15.052 15.0979 15.0947 15.354 15.0093 15.6016L15.0008 15.5931ZM14.8983 13.7489C14.3775 13.7489 13.9506 13.322 13.9506 12.8012C13.9506 12.2804 14.3775 11.8535 14.8983 11.8535C15.4191 11.8535 15.846 12.2804 15.846 12.8012C15.846 13.322 15.4191 13.7489 14.8983 13.7489Z" fill="#242424"/>
</g>
<defs>
<clipPath id="clip0_253_12362">
<rect width="18.5441" height="21.7885" fill="white" transform="translate(3.63696 1.94995)"/>
</clipPath>
</defs>
</svg>
