<svg width="32" height="32" viewBox="0 0 32 32" fill="none" xmlns="http://www.w3.org/2000/svg">
<path d="M12.5783 6.70655L14.0754 4.44758C14.2606 4.16807 14.5736 4 14.9089 4H17.0918C17.4259 4 17.738 4.16687 17.9235 4.44476L19.4053 6.66439M12.5783 6.70655C12.1819 7.30037 11.523 7.59134 10.8236 7.53947M12.5783 6.70655C12.18 7.29895 11.523 7.59376 10.8236 7.53947M10.8236 7.53947L8.19721 7.36634C7.86694 7.34456 7.54728 7.48763 7.34348 7.74844L5.91996 9.57011C5.71835 9.82811 5.65582 10.1685 5.75255 10.4813L6.54074 13.0301M6.54074 13.0301C6.64237 13.3761 6.65537 13.7467 6.58264 14.0968M6.54074 13.0301C6.64381 13.3754 6.65634 13.7454 6.58216 14.1004M6.58264 14.0968C6.50895 14.4427 6.35097 14.7694 6.1164 15.0339M6.58264 14.0968L6.58216 14.1004M6.1164 15.0339L4.34121 17.0386C4.12708 17.2804 4.04294 17.6108 4.11528 17.9256L4.62842 20.1583C4.70289 20.4823 4.93355 20.7482 5.24385 20.8676L7.65529 21.7956C7.98089 21.9279 8.26218 22.143 8.47507 22.4138M6.1164 15.0339C6.35241 14.7716 6.50895 14.446 6.58216 14.1004M8.47507 22.4138C8.68652 22.6855 8.83054 23.0134 8.88641 23.3684M8.47507 22.4138C8.68845 22.6855 8.83295 23.0125 8.88641 23.3684M8.47507 22.4138L8.4717 22.4099C8.45773 22.3922 8.4428 22.3736 8.42835 22.3564M8.88641 23.3684L9.30098 26.0423C9.35115 26.3659 9.5566 26.6444 9.85097 26.7879L11.8384 27.7568C12.1396 27.9037 12.4943 27.8899 12.7832 27.7202L15.0174 26.4077M15.0174 26.4077C15.3204 26.229 15.6585 26.1394 15.9966 26.139M15.0174 26.4077C15.1374 26.336 15.2631 26.2788 15.3921 26.2359C15.5882 26.1707 15.7924 26.1385 15.9966 26.139M15.9966 26.139C16.1724 26.1393 16.3482 26.1638 16.5197 26.212C16.6791 26.2568 16.8342 26.3222 16.9811 26.4077M15.9966 26.139C16.3362 26.1385 16.6762 26.2281 16.9811 26.4077M16.9811 26.4077L19.3178 27.7359C19.6081 27.9009 19.9617 27.9101 20.2602 27.7604L22.239 26.7681C22.5319 26.6212 22.7342 26.3401 22.7806 26.0157L23.1526 23.4136M23.1526 23.4136C23.2061 23.0566 23.3482 22.7262 23.5591 22.4522M23.1526 23.4136C23.2041 23.0558 23.3472 22.7259 23.5591 22.4522M23.5591 22.4522C23.7686 22.1809 24.0466 21.9648 24.3702 21.8312M23.5591 22.4522C23.7682 22.1799 24.0451 21.9631 24.3702 21.8312M24.3702 21.8312L26.8054 20.8291C27.1092 20.7041 27.3322 20.4379 27.402 20.1169L27.8926 17.8617C27.9601 17.5513 27.8762 17.2272 27.6663 16.9887L25.8826 14.9608M25.8826 14.9608C25.6437 14.6953 25.4771 14.3783 25.3962 14.0413M25.8826 14.9608C25.7704 14.8368 25.6741 14.7013 25.5956 14.5576C25.506 14.3944 25.439 14.2207 25.3962 14.0413M25.3962 14.0413C25.3167 13.7067 25.3215 13.3522 25.4222 13.009L26.198 10.3979C26.2902 10.0875 26.2264 9.75158 26.0268 9.49659L24.6358 7.72024C24.4296 7.45687 24.1053 7.31405 23.7718 7.3397L21.1744 7.53947M21.1744 7.53947C20.8267 7.56525 20.4847 7.49569 20.1803 7.34606M21.1744 7.53947C20.8262 7.56674 20.4847 7.49662 20.1803 7.34606M20.1803 7.34606C19.874 7.19452 19.6052 6.96148 19.4053 6.66439M20.1803 7.34606C19.8735 7.19507 19.6042 6.96265 19.4053 6.66439M6.58216 14.1004L6.58313 14.0951M19.8696 16.0127C19.8696 18.2507 18.1029 20.0648 15.9239 20.0648C13.7449 20.0648 11.9782 18.2507 11.9782 16.0127C11.9782 13.7748 13.7449 11.9606 15.9239 11.9606C18.1029 11.9606 19.8696 13.7748 19.8696 16.0127Z" stroke="black" stroke-width="2.5"/>
</svg>
