<svg width="26" height="26" viewBox="0 0 26 26" fill="none" xmlns="http://www.w3.org/2000/svg">
<g clip-path="url(#clip0_1330_11760)">
<path d="M21.8996 16.6102C21.9596 16.4602 22.0696 16.3402 22.1996 16.2502C22.3296 16.1602 22.4896 16.1102 22.7496 16.1102C23.5896 16.1102 24.3696 15.7802 24.9596 15.1902C25.5496 14.6002 25.8796 13.8102 25.8796 12.9702C25.8796 12.1302 25.5496 11.3502 24.9596 10.7602C24.3696 10.1702 23.5796 9.84023 22.7496 9.84023H22.5696C22.4096 9.84023 22.2496 9.79023 22.1196 9.70023C22.0196 9.64023 21.9396 9.55023 21.8796 9.46023C21.8696 9.39023 21.8396 9.31023 21.8096 9.25023C21.7396 9.10023 21.7196 8.93024 21.7496 8.77024C21.7796 8.61024 21.8596 8.46023 22.0296 8.28023C22.3196 7.99023 22.5496 7.64023 22.7096 7.26023C22.8696 6.88023 22.9496 6.47023 22.9496 6.06023C22.9496 5.65023 22.8696 5.24023 22.7096 4.86023C22.5496 4.48023 22.3196 4.14023 22.0296 3.84023C21.7396 3.54023 21.3896 3.32023 21.0096 3.16023C20.2496 2.84023 19.3696 2.84023 18.6096 3.16023C18.2296 3.32023 17.8796 3.55023 17.5396 3.90023C17.4196 4.02023 17.2696 4.09023 17.1096 4.12023C16.9496 4.15023 16.7796 4.13023 16.6196 4.06023C16.4696 4.00023 16.3496 3.89023 16.2596 3.76023C16.1696 3.63023 16.1196 3.47023 16.1196 3.21023C16.1196 2.37023 15.7896 1.59023 15.1996 1.00023C14.0196 -0.179766 11.9496 -0.179766 10.7696 1.00023C10.1796 1.59023 9.84961 2.38023 9.84961 3.21023V3.39023C9.84961 3.55023 9.79961 3.71023 9.70961 3.84023C9.64961 3.94023 9.55961 4.02023 9.46961 4.08023C9.39961 4.09023 9.32961 4.12023 9.25961 4.15023C9.10961 4.22023 8.93961 4.24023 8.77961 4.21023C8.61961 4.18023 8.46961 4.10023 8.28961 3.93023C7.99961 3.64023 7.65961 3.41023 7.26961 3.25023C6.50961 2.93023 5.63961 2.93023 4.86961 3.25023C4.48961 3.41023 4.14961 3.64023 3.84961 3.93023C3.55961 4.22023 3.32961 4.56023 3.16961 4.94023C3.00961 5.32023 2.92961 5.73023 2.92961 6.14023C2.92961 6.55023 3.00961 6.96023 3.16961 7.34023C3.32961 7.72023 3.55961 8.06023 3.90961 8.41023C4.02961 8.53023 4.09961 8.68023 4.12961 8.84023C4.15961 9.00023 4.12961 9.17023 4.04961 9.38023C3.98961 9.53023 3.88961 9.67023 3.75961 9.76023C3.62961 9.86023 3.46961 9.91023 3.22961 9.91023C2.38961 9.91023 1.60961 10.2402 1.01961 10.8302C0.429609 11.4202 0.0996094 12.2102 0.0996094 13.0402C0.0996094 13.8702 0.429609 14.6602 1.01961 15.2502C1.60961 15.8402 2.39961 16.1702 3.22961 16.1702H3.40961C3.56961 16.1702 3.72961 16.2202 3.85961 16.3102C3.99961 16.4002 4.09961 16.5302 4.16961 16.6802C4.23961 16.8302 4.25961 17.0002 4.22961 17.1602C4.19961 17.3202 4.11961 17.4702 3.94961 17.6502C3.65961 17.9402 3.42961 18.2802 3.26961 18.6702C3.10961 19.0502 3.02961 19.4602 3.02961 19.8702C3.02961 20.2802 3.10961 20.6902 3.26961 21.0702C3.42961 21.4502 3.65961 21.7902 3.94961 22.0802C4.23961 22.3702 4.57961 22.6002 4.96961 22.7602C5.72961 23.0802 6.60961 23.0802 7.36961 22.7602C7.74961 22.6002 8.09961 22.3702 8.43961 22.0202C8.55961 21.9002 8.70961 21.8302 8.86961 21.8002C9.02961 21.7702 9.19961 21.8002 9.40961 21.8802C9.55961 21.9402 9.69961 22.0402 9.78961 22.1702C9.88961 22.3002 9.93961 22.4602 9.93961 22.7002C9.93961 23.5402 10.2696 24.3202 10.8596 24.9102C11.4496 25.5002 12.2396 25.8302 13.0796 25.8302C13.9196 25.8302 14.6996 25.5002 15.2896 24.9102C15.8796 24.3202 16.2096 23.5302 16.2096 22.7002V22.5202C16.2096 22.3602 16.2596 22.2002 16.3496 22.0702C16.4396 21.9402 16.5596 21.8302 16.7196 21.7602C16.8696 21.6902 17.0396 21.6802 17.1996 21.7002C17.3596 21.7302 17.5096 21.8102 17.6896 21.9802C17.9796 22.2702 18.3296 22.5002 18.6996 22.6602C19.4596 22.9802 20.3396 22.9802 21.0996 22.6602C21.4796 22.5002 21.8196 22.2702 22.1196 21.9802C22.4096 21.6902 22.6396 21.3502 22.7996 20.9602C22.9596 20.5802 23.0396 20.1702 23.0396 19.7602C23.0396 19.3502 22.9596 18.9402 22.7996 18.5602C22.6396 18.1802 22.4096 17.8302 22.0596 17.4902C21.9396 17.3702 21.8696 17.2202 21.8396 17.0602C21.8096 16.9002 21.8396 16.7302 21.8996 16.5802V16.6102ZM12.9896 17.1802C10.6696 17.1802 8.77961 15.2902 8.77961 12.9702C8.77961 10.6502 10.6696 8.76023 12.9896 8.76023C15.3096 8.76023 17.1996 10.6502 17.1996 12.9702C17.1996 15.2902 15.3096 17.1802 12.9896 17.1802Z" fill="black"/>
</g>
<defs>
<clipPath id="clip0_1330_11760">
<rect width="26" height="26" fill="white"/>
</clipPath>
</defs>
</svg>
