<svg width="40" height="40" viewBox="0 0 40 40" fill="none" xmlns="http://www.w3.org/2000/svg">
<path d="M19.6309 1.53857C9.66165 1.53857 1.53857 9.66165 1.53857 19.6309C1.53857 29.6001 9.66165 37.7232 19.6309 37.7232C29.6001 37.7232 37.7232 29.6001 37.7232 19.6309C37.7232 9.66165 29.6155 1.53857 19.6309 1.53857ZM24.6309 12.9693C25.554 12.9693 26.2924 13.7232 26.2924 14.6309C26.2924 15.5386 25.554 16.2924 24.6309 16.2924C23.7078 16.2924 22.954 15.5386 22.954 14.6309C22.954 13.7232 23.6924 12.9693 24.6155 12.9693H24.6309ZM14.6309 12.9693C15.554 12.9693 16.2924 13.7232 16.2924 14.6309C16.2924 15.5386 15.5386 16.2924 14.6309 16.2924C13.7232 16.2924 12.954 15.5386 12.954 14.6309C12.954 13.7232 13.6924 12.9693 14.6155 12.9693H14.6309ZM27.477 23.8617C27.354 24.0155 24.477 27.7847 19.6309 27.7847C14.7847 27.7847 11.8924 24.0155 11.7847 23.8617C11.2924 23.2001 11.4309 22.277 12.077 21.7847C12.7386 21.2924 13.6617 21.4309 14.154 22.077C14.1847 22.1078 16.2924 24.8309 19.6463 24.8309C23.0001 24.8309 25.1078 22.1232 25.1232 22.0924C25.6155 21.4463 26.5386 21.3078 27.2001 21.8001C27.8463 22.2924 27.9847 23.2155 27.4924 23.877L27.477 23.8617Z" fill="black"/>
</svg>
