<svg width="40" height="24" viewBox="0 0 40 24" fill="none" xmlns="http://www.w3.org/2000/svg">
<path d="M23.7159 15.8868L32.2145 22.4235L32.1001 15.6217L38.0478 12.3199L28.1275 8.22243" fill="#EC6828"/>
<path d="M23.7159 15.8868L32.2145 22.4235L32.1001 15.6217L38.0478 12.3199L28.1275 8.22243" stroke="black" stroke-width="2" stroke-linecap="round" stroke-linejoin="round"/>
<path d="M15.3319 15.8868L6.83334 22.4235L6.94776 15.6217L1.00001 12.3199L10.9204 8.22243" fill="#EC6828"/>
<path d="M15.3319 15.8868L6.83334 22.4235L6.94776 15.6217L1.00001 12.3199L10.9204 8.22243" stroke="black" stroke-width="2" stroke-linecap="round" stroke-linejoin="round"/>
<path d="M19.9997 17.3333C24.51 17.3333 28.1663 13.677 28.1663 9.16667C28.1663 4.65634 24.51 1 19.9997 1C15.4893 1 11.833 4.65634 11.833 9.16667C11.833 13.677 15.4893 17.3333 19.9997 17.3333Z" fill="#BEEE4C" stroke="black" stroke-width="2" stroke-linecap="round" stroke-linejoin="round"/>
<path d="M19.1426 13V6.43164H19.1016L16.9863 7.84961V6.00977L19.1367 4.54492H21.2813V13H19.1426Z" fill="black"/>
</svg>
