<svg width="27" height="26" viewBox="0 0 27 26" fill="none" xmlns="http://www.w3.org/2000/svg">
<g clip-path="url(#clip0_423_6331)">
<path d="M18.9163 22.75V20.5833C18.9163 19.4341 18.4598 18.3319 17.6471 17.5192C16.8345 16.7065 15.7323 16.25 14.583 16.25H5.91634C4.76707 16.25 3.66487 16.7065 2.85221 17.5192C2.03955 18.3319 1.58301 19.4341 1.58301 20.5833V22.75" stroke="#DFE1E5" stroke-width="1.92593" stroke-linecap="round" stroke-linejoin="round"/>
<path d="M10.2503 11.9167C12.6436 11.9167 14.5837 9.97657 14.5837 7.58333C14.5837 5.1901 12.6436 3.25 10.2503 3.25C7.85709 3.25 5.91699 5.1901 5.91699 7.58333C5.91699 9.97657 7.85709 11.9167 10.2503 11.9167Z" stroke="#DFE1E5" stroke-width="1.92593" stroke-linecap="round" stroke-linejoin="round"/>
<path d="M25.417 22.7498V20.5831C25.4163 19.623 25.0967 18.6903 24.5085 17.9315C23.9202 17.1726 23.0966 16.6307 22.167 16.3906" stroke="#DFE1E5" stroke-width="1.92593" stroke-linecap="round" stroke-linejoin="round"/>
<path d="M17.833 3.39062C18.7651 3.62928 19.5913 4.17138 20.1813 4.93146C20.7713 5.69154 21.0915 6.62636 21.0915 7.58854C21.0915 8.55073 20.7713 9.48554 20.1813 10.2456C19.5913 11.0057 18.7651 11.5478 17.833 11.7865" stroke="#DFE1E5" stroke-width="1.92593" stroke-linecap="round" stroke-linejoin="round"/>
</g>
<defs>
<clipPath id="clip0_423_6331">
<rect width="26" height="26" fill="white" transform="translate(0.5)"/>
</clipPath>
</defs>
</svg>
