<svg width="158" height="158" viewBox="0 0 158 158" fill="none" xmlns="http://www.w3.org/2000/svg">
<circle cx="79" cy="79" r="77" fill="#BEEE4C" stroke="black" stroke-width="4"/>
<g clip-path="url(#clip0_1_2)">
<path d="M123.408 86.5425C123.408 111.068 103.526 130.95 79.0008 130.95C54.4752 130.95 34.5908 111.068 34.5908 86.5425C34.5908 62.0169 66.2664 26.5913 78.9979 26.5913C90.5431 26.5913 123.405 62.0169 123.405 86.5425H123.408Z" fill="black" stroke="black" stroke-width="3.18289" stroke-miterlimit="10"/>
<path d="M68.7473 83.73C70.1169 83.73 71.2271 82.6198 71.2271 81.2503C71.2271 79.8807 70.1169 78.7705 68.7473 78.7705C67.3778 78.7705 66.2676 79.8807 66.2676 81.2503C66.2676 82.6198 67.3778 83.73 68.7473 83.73Z" fill="white"/>
<path d="M88.0647 83.73C89.4343 83.73 90.5445 82.6198 90.5445 81.2503C90.5445 79.8807 89.4343 78.7705 88.0647 78.7705C86.6952 78.7705 85.585 79.8807 85.585 81.2503C85.585 82.6198 86.6952 83.73 88.0647 83.73Z" fill="white"/>
<path d="M77.8985 83.9066C78.1647 85.2955 78.4309 86.6873 78.6971 88.0762L79.0704 90.0206C79.1572 90.4749 79.5797 91.5455 79.4147 91.9853L80.2133 90.9465C80.6156 90.8713 80.63 90.8453 80.2481 90.8684C79.9732 90.8684 79.6954 90.8684 79.4205 90.8684C78.8679 90.8684 78.3181 90.8713 77.7654 90.8742C75.5316 90.8829 75.5258 94.3551 77.7654 94.3465C79.8864 94.3407 83.3152 94.7255 82.8754 91.5484C82.479 88.6809 81.7932 85.825 81.2463 82.9806C80.8268 80.7873 77.479 81.7162 77.8985 83.9037V83.9066Z" fill="white"/>
<path d="M67.2397 94.1699C67.6505 96.7828 68.8976 99.358 70.8768 101.146C73.1106 103.166 75.7438 103.693 78.6749 103.771C81.6061 103.849 84.5112 103.586 86.8665 101.574C89.3231 99.4738 90.3822 96.2967 91.3052 93.3077C91.9678 91.1693 88.6171 90.2521 87.9574 92.3846C87.2976 94.5172 86.5887 96.9969 84.8989 98.6723C83.2091 100.348 80.9377 100.359 78.6749 100.298C76.5337 100.241 74.6124 99.983 73.0325 98.4061C71.6263 97.0027 70.8913 95.1856 70.5875 93.2469C70.2431 91.0449 66.8953 91.9795 67.2397 94.1699Z" fill="white"/>
</g>
<defs>
<clipPath id="clip0_1_2">
<rect width="92" height="107.541" fill="white" transform="translate(33 25)"/>
</clipPath>
</defs>
</svg>
