<svg width="150" height="150" viewBox="0 0 150 150" fill="none" xmlns="http://www.w3.org/2000/svg">
<circle cx="75" cy="75" r="75" fill="#DFE1E5"/>
<g clip-path="url(#clip0_998_13918)">
<path d="M112.633 81.8463C112.633 102.906 95.5613 119.978 74.5013 119.978C53.4412 119.978 36.3666 102.906 36.3666 81.8463C36.3666 60.7862 63.5662 30.3665 74.4988 30.3665C84.4126 30.3665 112.631 60.7862 112.631 81.8463H112.633Z" fill="black" stroke="black" stroke-width="2.73313" stroke-miterlimit="10"/>
<path d="M68.6897 76.4224C69.8657 76.4224 70.8191 75.469 70.8191 74.293C70.8191 73.117 69.8657 72.1636 68.6897 72.1636C67.5137 72.1636 66.5604 73.117 66.5604 74.293C66.5604 75.469 67.5137 76.4224 68.6897 76.4224Z" fill="white"/>
<path d="M85.2772 76.4224C86.4532 76.4224 87.4065 75.469 87.4065 74.293C87.4065 73.117 86.4532 72.1636 85.2772 72.1636C84.1012 72.1636 83.1478 73.117 83.1478 74.293C83.1478 75.469 84.1012 76.4224 85.2772 76.4224Z" fill="white"/>
<path d="M70.6029 81.2998C71.1545 84.5075 73.6068 86.3338 76.7599 86.4207C78.4147 86.468 80.0297 86.2543 81.2844 85.079C82.5392 83.9038 83.0212 82.403 83.4933 80.8824C84.0648 79.0462 81.1875 78.2611 80.6186 80.0898C80.3378 80.9917 80.0769 81.9856 79.4334 82.7111C78.7228 83.5137 77.7463 83.4665 76.7574 83.4391C74.8417 83.387 73.8031 82.408 73.4751 80.5072C73.1472 78.6065 70.2774 79.4189 70.6004 81.2998H70.6029Z" fill="white"/>
</g>
<defs>
<clipPath id="clip0_998_13918">
<rect width="79" height="92.3451" fill="white" transform="translate(35 29)"/>
</clipPath>
</defs>
</svg>
