<svg width="18" height="18" viewBox="0 0 18 18" fill="none" xmlns="http://www.w3.org/2000/svg">
<g clip-path="url(#clip0_348_4927)">
<path d="M9 16.5C13.1421 16.5 16.5 13.1421 16.5 9C16.5 4.85786 13.1421 1.5 9 1.5C4.85786 1.5 1.5 4.85786 1.5 9C1.5 13.1421 4.85786 16.5 9 16.5Z" stroke="black" stroke-width="1.5" stroke-linecap="round" stroke-linejoin="round"/>
<path d="M6.81738 6.74945C6.99371 6.2482 7.34175 5.82553 7.79985 5.5563C8.25795 5.28707 8.79655 5.18865 9.32027 5.27848C9.84398 5.36831 10.319 5.64059 10.6612 6.0471C11.0034 6.4536 11.1907 6.96809 11.1899 7.49945C11.1899 8.99945 8.93988 9.74945 8.93988 9.74945" stroke="black" stroke-width="1.5" stroke-linecap="round" stroke-linejoin="round"/>
<path d="M9 12.75H9.00708" stroke="black" stroke-width="1.5" stroke-linecap="round" stroke-linejoin="round"/>
</g>
<defs>
<clipPath id="clip0_348_4927">
<rect width="18" height="18" fill="white"/>
</clipPath>
</defs>
</svg>
