<svg width="120" height="27" viewBox="0 0 120 27" fill="none" xmlns="http://www.w3.org/2000/svg">
<path d="M0.166016 26V0.634766H6.61719V11.7969H6.74023L15.2832 0.634766H22.1914L13.5078 11.8496L22.7012 26H15.125L8.79688 15.998L6.61719 18.8281V26H0.166016ZM24.6699 26V0.634766H31.1211V20.8145H41.6152V26H24.6699ZM55.3262 26.457C47.627 26.457 42.8105 21.4121 42.8105 13.3262V13.291C42.8105 5.22266 47.6621 0.177734 55.3262 0.177734C63.043 0.177734 67.8594 5.22266 67.8594 13.291V13.3262C67.8594 21.4121 63.0605 26.457 55.3262 26.457ZM55.3262 21.1133C59.0176 21.1133 61.3027 18.0898 61.3027 13.3262V13.291C61.3027 8.49219 58.9648 5.52148 55.3262 5.52148C51.7227 5.52148 49.3848 8.47461 49.3848 13.291V13.3262C49.3848 18.1426 51.7051 21.1133 55.3262 21.1133ZM82.6426 26.457C75.0312 26.457 70.3027 21.5879 70.3027 13.3086V13.291C70.3027 5.01172 75.0664 0.177734 82.6426 0.177734C89.2695 0.177734 93.8574 4.43164 94.0859 10.1094V10.2852H87.8809L87.8457 10.0215C87.4414 7.38477 85.5957 5.52148 82.6426 5.52148C79.1094 5.52148 76.877 8.42188 76.877 13.2734V13.291C76.877 18.1953 79.127 21.1133 82.6602 21.1133C85.4551 21.1133 87.4414 19.373 87.8809 16.543L87.916 16.3496H94.1211L94.1035 16.543C93.875 22.2207 89.2344 26.457 82.6426 26.457ZM97.1621 26V0.634766H103.613V11.7969H103.736L112.279 0.634766H119.188L110.504 11.8496L119.697 26H112.121L105.793 15.998L103.613 18.8281V26H97.1621Z" fill="white"/>
</svg>
