<svg width="40" height="40" viewBox="0 0 40 40" fill="none" xmlns="http://www.w3.org/2000/svg">
<g clip-path="url(#clip0_794_10584)">
<path d="M38.6699 19.4C38.1599 16.85 36.9199 14.52 35.0799 12.68L26.8199 4.43C26.5499 4.16 26.1799 4 25.7899 4C25.3999 4 25.0299 4.15 24.7599 4.43L21.3799 7.82L22.4099 8.85L25.7899 5.46L34.0399 13.71C35.6699 15.34 36.7799 17.42 37.2399 19.68C37.6899 21.94 37.4599 24.29 36.5799 26.42C35.6999 28.55 34.1999 30.37 32.2799 31.66C30.3599 32.94 28.1099 33.63 25.7999 33.63C25.1699 33.63 24.5499 33.57 23.9299 33.47C23.4899 33.85 23.0299 34.21 22.5399 34.53C22.4899 34.56 22.4399 34.59 22.3899 34.62C23.4899 34.92 24.6399 35.08 25.7999 35.08C28.3999 35.08 30.9299 34.32 33.0899 32.87C35.2599 31.42 36.9299 29.39 37.9199 26.98C38.9199 24.57 39.1699 21.95 38.6699 19.4Z" fill="black"/>
<path d="M37.2299 19.69C36.7799 17.43 35.6699 15.35 34.0299 13.72L25.7799 5.45996L22.3999 8.84996L23.4299 9.87996L25.7799 7.51996L32.9999 14.74C34.4299 16.17 35.3999 17.98 35.7999 19.97C36.1999 21.96 35.9999 24 35.2199 25.87C34.4399 27.74 33.1399 29.33 31.4599 30.45C29.6499 31.66 27.4799 32.2 25.3299 32.11C24.8899 32.6 24.4199 33.05 23.9199 33.48C24.5399 33.58 25.1599 33.64 25.7899 33.64C28.0999 33.64 30.3499 32.96 32.2699 31.67C34.1899 30.39 35.6799 28.56 36.5699 26.43C37.4499 24.3 37.6799 21.95 37.2299 19.69Z" fill="black"/>
<path d="M27 19.4C26.49 16.85 25.25 14.52 23.41 12.68L22.02 11.29L20.99 10.26L19.96 9.23L15.15 4.43C14.88 4.16 14.51 4 14.12 4C13.73 4 13.36 4.15 13.09 4.43L4.84999 12.68C3.00999 14.52 1.75999 16.85 1.25999 19.4C0.749986 21.96 0.999986 24.58 1.99999 26.99C2.99999 29.4 4.66999 31.44 6.82999 32.88C8.99999 34.33 11.52 35.09 14.12 35.09C16.16 35.09 18.15 34.61 19.96 33.71C20.46 33.46 20.95 33.19 21.41 32.88C21.44 32.86 21.47 32.84 21.5 32.82C22 32.48 22.47 32.12 22.91 31.72C24.35 30.42 25.49 28.81 26.25 26.99C27.25 24.58 27.5 21.96 27 19.41V19.4ZM18.62 18.13C18.62 17.58 19.07 17.13 19.62 17.13C20.17 17.13 20.62 17.58 20.62 18.13C20.62 18.68 20.17 19.13 19.62 19.13C19.07 19.13 18.62 18.68 18.62 18.13ZM11.8 19.13C11.25 19.13 10.8 18.68 10.8 18.13C10.8 17.58 11.25 17.13 11.8 17.13C12.35 17.13 12.8 17.58 12.8 18.13C12.8 18.68 12.35 19.13 11.8 19.13ZM12.64 21.23C12.57 20.99 12.62 20.79 12.74 20.64C13.05 20.25 13.8 20.23 14 20.85C14.05 21 14.1 21.16 14.15 21.31C14.25 21.59 14.36 21.86 14.56 22.08C14.85 22.4 15.23 22.43 15.62 22.43C15.69 22.43 15.75 22.43 15.82 22.43C16.72 22.41 17.21 21.94 17.37 21.05C17.52 20.15 18.88 20.54 18.73 21.42C18.47 22.93 17.31 23.79 15.83 23.84C15.82 23.84 15.81 23.84 15.8 23.84C15.26 23.85 14.73 23.8 14.26 23.58C14.06 23.49 13.87 23.37 13.7 23.21C13.14 22.69 12.91 22.03 12.7 21.36C12.69 21.32 12.67 21.28 12.66 21.23H12.64Z" fill="black"/>
</g>
<defs>
<clipPath id="clip0_794_10584">
<rect width="37.92" height="31.09" fill="white" transform="translate(1 4)"/>
</clipPath>
</defs>
</svg>
