<svg width="169" height="24" viewBox="0 0 169 24" fill="none" xmlns="http://www.w3.org/2000/svg">
<path d="M3.92469 16.1406C1.9032 16.1406 0.696172 14.459 0.696172 11.7754V11.7637C0.696172 9.08008 1.9032 7.4043 3.92469 7.4043C5.94031 7.4043 7.1532 9.08008 7.1532 11.7637V11.7754C7.1532 14.459 5.94031 16.1406 3.92469 16.1406ZM3.92469 15.0449C5.12586 15.0449 5.82898 13.8027 5.82898 11.7754V11.7637C5.82898 9.73633 5.12586 8.50586 3.92469 8.50586C2.71766 8.50586 2.02039 9.73633 2.02039 11.7637V11.7754C2.02039 13.8027 2.71766 15.0449 3.92469 15.0449ZM10.13 16V8.8457H10.1007L7.89172 10.3691V9.12695L10.1183 7.54492H11.4132V16H10.13Z" fill="black"/>
<line x1="85" y1="11.5" x2="109" y2="11.5" stroke="black"/>
<path d="M31.1923 16.1406C29.1708 16.1406 27.9637 14.459 27.9637 11.7754V11.7637C27.9637 9.08008 29.1708 7.4043 31.1923 7.4043C33.2079 7.4043 34.4208 9.08008 34.4208 11.7637V11.7754C34.4208 14.459 33.2079 16.1406 31.1923 16.1406ZM31.1923 15.0449C32.3934 15.0449 33.0966 13.8027 33.0966 11.7754V11.7637C33.0966 9.73633 32.3934 8.50586 31.1923 8.50586C29.9852 8.50586 29.288 9.73633 29.288 11.7637V11.7754C29.288 13.8027 29.9852 15.0449 31.1923 15.0449ZM35.2589 16V15.0977L38.2355 12.1035C39.3605 10.9785 39.6124 10.5332 39.6124 9.87695V9.86523C39.6066 9.0625 38.9972 8.48828 38.1417 8.48828C37.1515 8.48828 36.4425 9.15625 36.4308 10.0117V10.0469H35.1886V10.0117C35.1886 8.5 36.4718 7.4043 38.1241 7.4043C39.7472 7.4043 40.9073 8.42383 40.9073 9.78906V9.80078C40.9073 10.7676 40.4562 11.4531 38.9386 12.9531L37.0167 14.8398V14.8926H41.0421V16H35.2589Z" fill="black"/>
<path d="M158.034 16.1406C156.013 16.1406 154.806 14.459 154.806 11.7754V11.7637C154.806 9.08008 156.013 7.4043 158.034 7.4043C160.05 7.4043 161.263 9.08008 161.263 11.7637V11.7754C161.263 14.459 160.05 16.1406 158.034 16.1406ZM158.034 15.0449C159.235 15.0449 159.938 13.8027 159.938 11.7754V11.7637C159.938 9.73633 159.235 8.50586 158.034 8.50586C156.827 8.50586 156.13 9.73633 156.13 11.7637V11.7754C156.13 13.8027 156.827 15.0449 158.034 15.0449ZM165.194 16.1406C163.501 16.1406 162.323 15.1152 162.206 13.7207L162.2 13.6504H163.454L163.46 13.6973C163.571 14.459 164.263 15.0449 165.206 15.0449C166.273 15.0449 167.017 14.3066 167.017 13.2578V13.2461C167.011 12.209 166.267 11.4766 165.218 11.4766C164.696 11.4766 164.245 11.6289 163.905 11.9336C163.747 12.0684 163.612 12.2324 163.501 12.4199H162.353L162.769 7.54492H167.808V8.65234H163.829L163.571 11.3301H163.601C163.982 10.7617 164.685 10.4395 165.517 10.4395C167.134 10.4395 168.3 11.6055 168.3 13.2227V13.2344C168.3 14.9512 167.017 16.1406 165.194 16.1406Z" fill="black"/>
<circle cx="131" cy="12" r="12" fill="black"/>
<path d="M59.9872 16.1406C57.9657 16.1406 56.7587 14.459 56.7587 11.7754V11.7637C56.7587 9.08008 57.9657 7.4043 59.9872 7.4043C62.0028 7.4043 63.2157 9.08008 63.2157 11.7637V11.7754C63.2157 14.459 62.0028 16.1406 59.9872 16.1406ZM59.9872 15.0449C61.1884 15.0449 61.8915 13.8027 61.8915 11.7754V11.7637C61.8915 9.73633 61.1884 8.50586 59.9872 8.50586C58.7802 8.50586 58.0829 9.73633 58.0829 11.7637V11.7754C58.0829 13.8027 58.7802 15.0449 59.9872 15.0449ZM67.1007 16.1406C65.296 16.1406 64.1183 15.1562 64.0011 13.7793L63.9952 13.7031H65.255L65.2609 13.7676C65.3429 14.5176 66.0519 15.0449 67.1007 15.0449C68.132 15.0449 68.8292 14.4707 68.8292 13.6504V13.6387C68.8292 12.6836 68.1378 12.1504 67.007 12.1504H65.9816V11.1309H66.9718C67.9386 11.1309 68.5948 10.5625 68.5948 9.77734V9.76562C68.5948 8.95117 68.0441 8.47656 67.089 8.47656C66.1515 8.47656 65.4952 8.96875 65.4132 9.75391L65.4073 9.80664H64.1769L64.1827 9.74805C64.3116 8.33594 65.4366 7.4043 67.089 7.4043C68.7706 7.4043 69.8722 8.29492 69.8722 9.5957V9.60742C69.8722 10.6562 69.1222 11.3594 68.0909 11.5762V11.6055C69.3331 11.7168 70.1652 12.4668 70.1652 13.6504V13.6621C70.1652 15.1094 68.8937 16.1406 67.1007 16.1406Z" fill="black"/>
<path d="M127.235 16.1465C125.091 16.1465 123.79 14.4648 123.79 11.7754V11.7637C123.79 9.07422 125.091 7.39844 127.235 7.39844C129.38 7.39844 130.681 9.07422 130.681 11.7637V11.7754C130.681 14.4648 129.38 16.1465 127.235 16.1465ZM127.235 14.7285C128.29 14.7285 128.893 13.6328 128.893 11.7754V11.7637C128.893 9.90625 128.29 8.81641 127.235 8.81641C126.181 8.81641 125.577 9.90625 125.577 11.7637V11.7754C125.577 13.6328 126.181 14.7285 127.235 14.7285ZM135.562 16V14.4473H131.355V12.9707L134.747 7.54492H137.243V13.0352H138.357V14.4473H137.243V16H135.562ZM132.896 13.082H135.597V8.82227H135.556L132.896 13.0352V13.082Z" fill="white"/>
</svg>
