<svg width="179" height="24" viewBox="0 0 179 24" fill="none" xmlns="http://www.w3.org/2000/svg">
<line x1="121" y1="11.5" x2="145" y2="11.5" stroke="black"/>
<path d="M9.04023 16.1465C6.96602 16.1465 5.71797 14.4648 5.71797 11.7754V11.7637C5.71797 9.07422 6.96602 7.39844 9.04023 7.39844C11.1086 7.39844 12.3625 9.07422 12.3625 11.7637V11.7754C12.3625 14.4648 11.1086 16.1465 9.04023 16.1465ZM9.04023 14.9102C10.177 14.9102 10.8391 13.7266 10.8391 11.7754V11.7637C10.8391 9.8125 10.177 8.64062 9.04023 8.64062C7.89766 8.64062 7.24141 9.8125 7.24141 11.7637V11.7754C7.24141 13.7266 7.89766 14.9102 9.04023 14.9102ZM14.9441 16V8.98633H14.909L12.7234 10.4863V9.09766L14.9324 7.54492H16.4266V16H14.9441Z" fill="#242424"/>
<path d="M37.302 16.1465C35.2277 16.1465 33.9797 14.4648 33.9797 11.7754V11.7637C33.9797 9.07422 35.2277 7.39844 37.302 7.39844C39.3703 7.39844 40.6242 9.07422 40.6242 11.7637V11.7754C40.6242 14.4648 39.3703 16.1465 37.302 16.1465ZM37.302 14.9102C38.4387 14.9102 39.1008 13.7266 39.1008 11.7754V11.7637C39.1008 9.8125 38.4387 8.64062 37.302 8.64062C36.1594 8.64062 35.5031 9.8125 35.5031 11.7637V11.7754C35.5031 13.7266 36.1594 14.9102 37.302 14.9102ZM41.073 16V14.9688L44.0613 12.0566C45.1688 10.9727 45.409 10.5449 45.409 9.91797V9.90625C45.4031 9.15039 44.8348 8.61133 44.0203 8.61133C43.0828 8.61133 42.4266 9.23828 42.409 10.0527V10.0938H40.991V10.0527C40.991 8.50586 42.2918 7.39844 44.0086 7.39844C45.702 7.39844 46.8855 8.42383 46.8855 9.81836V9.83008C46.8855 10.8262 46.4227 11.5 44.9344 12.9297L43.0711 14.6992V14.7637H47.0145V16H41.073Z" fill="#242424"/>
<path d="M66.1027 16.1465C64.0285 16.1465 62.7805 14.4648 62.7805 11.7754V11.7637C62.7805 9.07422 64.0285 7.39844 66.1027 7.39844C68.1711 7.39844 69.425 9.07422 69.425 11.7637V11.7754C69.425 14.4648 68.1711 16.1465 66.1027 16.1465ZM66.1027 14.9102C67.2395 14.9102 67.9016 13.7266 67.9016 11.7754V11.7637C67.9016 9.8125 67.2395 8.64062 66.1027 8.64062C64.9602 8.64062 64.3039 9.8125 64.3039 11.7637V11.7754C64.3039 13.7266 64.9602 14.9102 66.1027 14.9102ZM72.9969 16.1465C71.1395 16.1465 69.9324 15.1504 69.8152 13.7324L69.8094 13.6621H71.2566L71.2625 13.7266C71.3445 14.4121 72.0008 14.9102 72.991 14.9102C73.9695 14.9102 74.6199 14.3711 74.6199 13.6035V13.5918C74.6199 12.7012 73.9637 12.209 72.8855 12.209H71.8836V11.084H72.8504C73.782 11.084 74.4031 10.5566 74.4031 9.81836V9.80664C74.4031 9.04492 73.8875 8.59961 72.9793 8.59961C72.0887 8.59961 71.4793 9.0625 71.4031 9.78906L71.3973 9.84766H69.991L69.9969 9.77734C70.1199 8.34766 71.2742 7.39844 72.9793 7.39844C74.7254 7.39844 75.8563 8.29492 75.8563 9.60742V9.61914C75.8563 10.668 75.0945 11.3652 74.0809 11.5762V11.6055C75.3289 11.7227 76.1551 12.4609 76.1551 13.6328V13.6445C76.1551 15.1152 74.866 16.1465 72.9969 16.1465Z" fill="#242424"/>
<path d="M163.155 16.1465C161.081 16.1465 159.833 14.4648 159.833 11.7754V11.7637C159.833 9.07422 161.081 7.39844 163.155 7.39844C165.224 7.39844 166.478 9.07422 166.478 11.7637V11.7754C166.478 14.4648 165.224 16.1465 163.155 16.1465ZM163.155 14.9102C164.292 14.9102 164.954 13.7266 164.954 11.7754V11.7637C164.954 9.8125 164.292 8.64062 163.155 8.64062C162.013 8.64062 161.357 9.8125 161.357 11.7637V11.7754C161.357 13.7266 162.013 14.9102 163.155 14.9102ZM170.096 16.1465C168.339 16.1465 167.143 15.0977 167.032 13.6973L167.026 13.6211H168.444L168.45 13.6621C168.573 14.3711 169.218 14.916 170.108 14.916C171.116 14.916 171.813 14.2246 171.813 13.2344V13.2227C171.813 12.2559 171.104 11.5645 170.114 11.5645C169.634 11.5645 169.218 11.7109 168.895 11.9805C168.737 12.1094 168.596 12.2734 168.497 12.4609H167.179L167.583 7.54492H172.774V8.78125H168.79L168.555 11.3301H168.585C168.954 10.7617 169.651 10.4277 170.501 10.4277C172.112 10.4277 173.272 11.5938 173.272 13.1992V13.2109C173.272 14.9512 171.966 16.1465 170.096 16.1465Z" fill="#242424"/>
<path fill-rule="evenodd" clip-rule="evenodd" d="M99 24C105.627 24 111 18.6274 111 12C111 5.37258 105.627 0 99 0C92.3726 0 87 5.37258 87 12C87 18.6274 92.3726 24 99 24ZM91.6867 11.7754C91.6867 14.4648 92.9348 16.1465 95.009 16.1465C97.0773 16.1465 98.3313 14.4648 98.3313 11.7754V11.7637C98.3313 9.07422 97.0773 7.39844 95.009 7.39844C92.9348 7.39844 91.6867 9.07422 91.6867 11.7637V11.7754ZM96.8078 11.7754C96.8078 13.7266 96.1457 14.9102 95.009 14.9102C93.8664 14.9102 93.2102 13.7266 93.2102 11.7754V11.7637C93.2102 9.8125 93.8664 8.64062 95.009 8.64062C96.1457 8.64062 96.8078 9.8125 96.8078 11.7637V11.7754ZM102.888 14.377V16H104.329V14.377H105.477V13.1348H104.329V7.54492H102.179L98.6688 13.0879V14.377H102.888ZM102.911 13.1699H100.028V13.1289L102.876 8.6875H102.911V13.1699Z" fill="black"/>
</svg>
