<svg width="46" height="46" viewBox="0 0 46 46" fill="none" xmlns="http://www.w3.org/2000/svg">
<rect width="46" height="46" fill="#FF77A0"/>
<g clip-path="url(#clip0_64_11780)">
<path d="M35.577 25.39C35.577 32.3211 29.9584 37.9398 23.0272 37.9398C16.0961 37.9398 10.4766 32.3211 10.4766 25.39C10.4766 18.4588 19.4283 8.44727 23.0264 8.44727C26.2892 8.44727 35.5762 18.4588 35.5762 25.39H35.577Z" fill="black" stroke="black" stroke-width="0.899512" stroke-miterlimit="10"/>
<path d="M21.1149 23.6047C21.5019 23.6047 21.8157 23.291 21.8157 22.9039C21.8157 22.5169 21.5019 22.2031 21.1149 22.2031C20.7278 22.2031 20.4141 22.5169 20.4141 22.9039C20.4141 23.291 20.7278 23.6047 21.1149 23.6047Z" fill="white"/>
<path d="M26.5738 23.6047C26.9609 23.6047 27.2747 23.291 27.2747 22.9039C27.2747 22.5169 26.9609 22.2031 26.5738 22.2031C26.1868 22.2031 25.873 22.5169 25.873 22.9039C25.873 23.291 26.1868 23.6047 26.5738 23.6047Z" fill="white"/>
<path d="M22.7788 22.4403C23.4101 22.4403 23.4109 21.459 22.7788 21.459C22.1467 21.459 22.1467 22.4403 22.7788 22.4403Z" fill="black"/>
<path d="M22.2589 20.6726C21.594 20.4862 20.9284 20.2998 20.2636 20.1133C19.6544 19.9424 19.3943 20.8893 20.0027 21.0594C20.6675 21.2459 21.3332 21.4323 21.998 21.6188C22.6072 21.7897 22.8673 20.8427 22.2589 20.6726Z" fill="white"/>
<path d="M26.9069 19.7896C26.2609 20.0537 25.6844 20.3996 25.1553 20.8559C24.6761 21.2689 25.3728 21.9598 25.8495 21.5502C26.2412 21.2133 26.6894 20.9319 27.1677 20.7365C27.4131 20.6359 27.5864 20.4102 27.5104 20.133C27.4466 19.9008 27.1538 19.6898 26.9069 19.7904V19.7896Z" fill="white"/>
<path d="M25.7069 25.2993C25.5368 24.3573 24.8114 23.8642 23.8907 23.8527C22.8415 23.8397 22.3517 24.475 22.0597 25.4122C21.8717 26.0165 22.8186 26.2749 23.0059 25.673C23.1653 25.1611 23.3019 24.8267 23.8907 24.834C24.405 24.8406 24.6683 25.0515 24.7607 25.5602C24.8728 26.1808 25.8189 25.9175 25.7069 25.2993Z" fill="white"/>
</g>
<defs>
<clipPath id="clip0_64_11780">
<rect width="26" height="30.3921" fill="white" transform="translate(10.0273 7.99707)"/>
</clipPath>
</defs>
</svg>
