<svg width="32" height="32" viewBox="0 0 32 32" fill="none" xmlns="http://www.w3.org/2000/svg">
<path d="M29.3773 16.7999C29.3773 16.1095 28.8177 15.5499 28.1273 15.5499C27.437 15.5499 26.8773 16.1095 26.8773 16.7999H29.3773ZM15.3273 5.2499C16.0177 5.2499 16.5773 4.69026 16.5773 3.9999C16.5773 3.30955 16.0177 2.7499 15.3273 2.7499V5.2499ZM22.9773 16.7999C22.9773 16.1095 22.4177 15.5499 21.7273 15.5499C21.037 15.5499 20.4773 16.1095 20.4773 16.7999H22.9773ZM15.3273 11.6499C16.0177 11.6499 16.5773 11.0903 16.5773 10.3999C16.5773 9.70955 16.0177 9.1499 15.3273 9.1499V11.6499ZM21.8681 11.7689C22.3562 11.2808 22.3562 10.4893 21.8681 10.0012C21.3799 9.51302 20.5885 9.51302 20.1003 10.0012L21.8681 11.7689ZM14.4435 15.658C13.9553 16.1462 13.9553 16.9376 14.4435 17.4258C14.9316 17.914 15.7231 17.914 16.2112 17.4258L14.4435 15.658ZM29.4722 6.92539L30.3561 7.80927C30.6909 7.47448 30.8078 6.97927 30.658 6.5301C30.5083 6.08093 30.1177 5.75491 29.649 5.68795L29.4722 6.92539ZM24.381 12.0166L23.9857 13.2024C24.4349 13.3521 24.9301 13.2352 25.2649 12.9004L24.381 12.0166ZM19.8555 7.49107L18.9716 6.60719C18.6369 6.94198 18.52 7.43719 18.6697 7.88636L19.8555 7.49107ZM24.9467 2.3999L26.1841 2.22313C26.1172 1.75442 25.7911 1.36377 25.342 1.21405C24.8928 1.06433 24.3976 1.18123 24.0628 1.51602L24.9467 2.3999ZM20.9869 10.8852L19.801 11.2805C19.9255 11.6537 20.2184 11.9466 20.5916 12.071L20.9869 10.8852ZM25.5124 6.3597L24.2749 6.53648C24.3535 7.08645 24.7856 7.51857 25.3356 7.59714L25.5124 6.3597ZM26.8773 16.7999C26.8773 23.1788 21.7062 28.3499 15.3273 28.3499V30.8499C23.0869 30.8499 29.3773 24.5595 29.3773 16.7999H26.8773ZM15.3273 28.3499C8.94845 28.3499 3.77734 23.1788 3.77734 16.7999H1.27734C1.27734 24.5595 7.56774 30.8499 15.3273 30.8499V28.3499ZM3.77734 16.7999C3.77734 10.421 8.94845 5.2499 15.3273 5.2499V2.7499C7.56774 2.7499 1.27734 9.0403 1.27734 16.7999H3.77734ZM20.4773 16.7999C20.4773 19.6442 18.1716 21.9499 15.3273 21.9499V24.4499C19.5523 24.4499 22.9773 21.0249 22.9773 16.7999H20.4773ZM15.3273 21.9499C12.4831 21.9499 10.1773 19.6442 10.1773 16.7999H7.67734C7.67734 21.0249 11.1024 24.4499 15.3273 24.4499V21.9499ZM10.1773 16.7999C10.1773 13.9556 12.4831 11.6499 15.3273 11.6499V9.1499C11.1024 9.1499 7.67734 12.5749 7.67734 16.7999H10.1773ZM20.1003 10.0012L14.4435 15.658L16.2112 17.4258L21.8681 11.7689L20.1003 10.0012ZM28.5883 6.0415L23.4971 11.1327L25.2649 12.9004L30.3561 7.80927L28.5883 6.0415ZM20.7394 8.37495L25.8306 3.28379L24.0628 1.51602L18.9716 6.60719L20.7394 8.37495ZM24.7763 10.8307L21.3822 9.69933L20.5916 12.071L23.9857 13.2024L24.7763 10.8307ZM22.1728 10.4899L21.0414 7.09579L18.6697 7.88636L19.801 11.2805L22.1728 10.4899ZM23.7093 2.57668L24.2749 6.53648L26.7498 6.18292L26.1841 2.22313L23.7093 2.57668ZM25.3356 7.59714L29.2954 8.16282L29.649 5.68795L25.6892 5.12226L25.3356 7.59714Z" fill="black"/>
</svg>
