<svg width="46" height="46" viewBox="0 0 46 46" fill="none" xmlns="http://www.w3.org/2000/svg">
<circle cx="23" cy="23" r="23" fill="#FFD9D9"/>
<g clip-path="url(#clip0_798_7840)">
<path d="M35.5526 25.3924C35.5526 32.3236 29.934 37.9423 23.0028 37.9423C16.0716 37.9423 10.4521 32.3236 10.4521 25.3924C10.4521 18.4613 19.4039 8.44971 23.002 8.44971C26.2648 8.44971 35.5518 18.4613 35.5518 25.3924H35.5526Z" fill="black" stroke="black" stroke-width="0.899513" stroke-miterlimit="10"/>
<path d="M20.1031 24.5974C20.4902 24.5974 20.8039 24.2836 20.8039 23.8966C20.8039 23.5096 20.4902 23.1958 20.1031 23.1958C19.7161 23.1958 19.4023 23.5096 19.4023 23.8966C19.4023 24.2836 19.7161 24.5974 20.1031 24.5974Z" fill="white"/>
<path d="M25.5621 24.5974C25.9492 24.5974 26.2629 24.2836 26.2629 23.8966C26.2629 23.5096 25.9492 23.1958 25.5621 23.1958C25.1751 23.1958 24.8613 23.5096 24.8613 23.8966C24.8613 24.2836 25.1751 24.5974 25.5621 24.5974Z" fill="white"/>
<path d="M22.6904 24.6469C22.7656 25.0394 22.8409 25.4328 22.9161 25.8253L23.0216 26.3748C23.0461 26.5032 23.1655 26.8058 23.1189 26.9301L23.3446 26.6365C23.4583 26.6152 23.4624 26.6079 23.3544 26.6144C23.2767 26.6144 23.1982 26.6144 23.1205 26.6144C22.9644 26.6144 22.809 26.6152 22.6528 26.616C22.0215 26.6185 22.0199 27.5998 22.6528 27.5973C23.2522 27.5957 24.2212 27.7045 24.0969 26.8066C23.9849 25.9962 23.7911 25.1891 23.6365 24.3852C23.518 23.7654 22.5718 24.0279 22.6904 24.6461V24.6469Z" fill="white"/>
<path d="M19.6769 27.5473C19.7931 28.2858 20.1455 29.0135 20.7048 29.5189C21.3361 30.0897 22.0803 30.2385 22.9086 30.2606C23.737 30.2827 24.558 30.2083 25.2237 29.6399C25.9179 29.0462 26.2172 28.1484 26.4781 27.3036C26.6653 26.6993 25.7184 26.4401 25.5319 27.0428C25.3455 27.6455 25.1452 28.3463 24.6676 28.8197C24.19 29.2932 23.5481 29.2965 22.9086 29.2793C22.3035 29.2629 21.7605 29.1902 21.314 28.7445C20.9166 28.3479 20.7089 27.8344 20.6231 27.2865C20.5257 26.6642 19.5796 26.9283 19.6769 27.5473Z" fill="white"/>
</g>
<defs>
<clipPath id="clip0_798_7840">
<rect width="26" height="30.3921" fill="white" transform="translate(10.001 8)"/>
</clipPath>
</defs>
</svg>
