<svg width="24" height="24" viewBox="0 0 24 24" fill="none" xmlns="http://www.w3.org/2000/svg">
<path fill-rule="evenodd" clip-rule="evenodd" d="M1 12C1 18.0751 5.92487 23 12 23C18.0751 23 23 18.0751 23 12C23 5.92487 18.0751 1 12 1C5.92487 1 1 5.92487 1 12ZM7.29289 11.2929L11.2929 7.2929C11.4842 7.10157 11.7338 7.00397 11.9845 7.00012C11.9948 6.99996 12.0052 6.99996 12.0155 7.00012C12.1447 7.00208 12.2679 7.02854 12.3808 7.07507C12.4995 7.12388 12.6107 7.19649 12.7071 7.2929L16.7071 11.2929C17.0976 11.6834 17.0976 12.3166 16.7071 12.7071C16.3166 13.0976 15.6834 13.0976 15.2929 12.7071L13 10.4142L13 16C13 16.5523 12.5523 17 12 17C11.4477 17 11 16.5523 11 16V10.4142L8.70711 12.7071C8.31658 13.0976 7.68342 13.0976 7.29289 12.7071C6.90237 12.3166 6.90237 11.6834 7.29289 11.2929Z" fill="black"/>
</svg>
