<svg width="20" height="20" viewBox="0 0 20 20" fill="none" xmlns="http://www.w3.org/2000/svg">
<g clip-path="url(#clip0_5_17603)">
<path d="M17.269 15.1722C16.9867 15.8244 16.6526 16.4247 16.2654 16.9766C15.7377 17.7291 15.3056 18.2499 14.9726 18.5391C14.4564 19.0138 13.9033 19.2569 13.311 19.2708C12.8859 19.2708 12.3731 19.1498 11.7763 18.9044C11.1774 18.6601 10.6271 18.5391 10.1239 18.5391C9.5962 18.5391 9.03022 18.6601 8.42483 18.9044C7.81852 19.1498 7.33008 19.2777 6.95663 19.2904C6.38869 19.3146 5.8226 19.0645 5.25753 18.5391C4.89688 18.2245 4.44578 17.6853 3.90537 16.9213C3.32556 16.1055 2.84888 15.1596 2.47544 14.081C2.07549 12.9161 1.875 11.7881 1.875 10.696C1.875 9.44499 2.14532 8.36602 2.68676 7.46186C3.11228 6.73559 3.67838 6.1627 4.3869 5.74213C5.09541 5.32156 5.86096 5.10724 6.6854 5.09353C7.1365 5.09353 7.72806 5.23307 8.4632 5.5073C9.19626 5.78246 9.66695 5.92199 9.87332 5.92199C10.0276 5.92199 10.5505 5.75883 11.4369 5.43356C12.2752 5.1319 12.9827 5.00699 13.5622 5.0562C15.1327 5.18294 16.3126 5.80204 17.0973 6.91742C15.6927 7.76847 14.9979 8.96047 15.0118 10.4896C15.0244 11.6807 15.4565 12.6719 16.3057 13.4588C16.6906 13.8241 17.1204 14.1064 17.5985 14.3069C17.4948 14.6076 17.3854 14.8957 17.269 15.1722ZM13.6671 0.998445C13.6671 1.93201 13.326 2.80367 12.6462 3.61047C11.8258 4.5696 10.8335 5.12383 9.7574 5.03638C9.74369 4.92438 9.73574 4.8065 9.73574 4.68264C9.73574 3.78642 10.1259 2.82729 10.8187 2.04307C11.1646 1.64601 11.6046 1.31585 12.1381 1.05249C12.6704 0.793045 13.1739 0.64957 13.6475 0.625C13.6613 0.749803 13.6671 0.874625 13.6671 0.998445Z" fill="white"/>
</g>
<defs>
<clipPath id="clip0_5_17603">
<rect width="15.7235" height="18.667" fill="white" transform="translate(1.875 0.625)"/>
</clipPath>
</defs>
</svg>
