<svg width="103" height="80" viewBox="0 0 103 80" fill="none" xmlns="http://www.w3.org/2000/svg">
<path d="M101.939 58.309C101.939 69.89 92.5514 79.278 80.9704 79.278C69.3894 79.278 60 69.89 60 58.309C60 46.728 74.9572 30 80.969 30C86.4207 30 101.938 46.728 101.938 58.309H101.939Z" fill="#ADAFB2" stroke="#ADAFB2" stroke-width="1.31408" stroke-miterlimit="10"/>
<path d="M74.1709 49.3419C74.8176 49.3419 75.3419 48.8176 75.3419 48.1709C75.3419 47.5242 74.8176 47 74.1709 47C73.5242 47 73 47.5242 73 48.1709C73 48.8176 73.5242 49.3419 74.1709 49.3419Z" fill="white"/>
<path d="M83.2922 49.3419C83.9389 49.3419 84.4631 48.8176 84.4631 48.1709C84.4631 47.5242 83.9389 47 83.2922 47C82.6455 47 82.1212 47.5242 82.1212 48.1709C82.1212 48.8176 82.6455 49.3419 83.2922 49.3419Z" fill="white"/>
<path d="M75.2234 52.0235C75.5267 53.7874 76.8753 54.7917 78.6092 54.8395C79.5191 54.8655 80.4073 54.748 81.0973 54.1017C81.7873 53.4554 82.0523 52.6301 82.3119 51.7939C82.6262 50.7842 81.044 50.3525 80.7311 51.3581C80.5767 51.8541 80.4332 52.4006 80.0793 52.7996C79.6886 53.2409 79.1516 53.2149 78.6078 53.1999C77.5544 53.1712 76.9832 52.6329 76.8029 51.5876C76.6225 50.5424 75.0444 50.9892 75.222 52.0235H75.2234Z" fill="white"/>
<path d="M78.5141 6.96533C80.6845 6.06399 83.1746 7.09275 84.0759 9.26317C84.9773 11.4336 83.9486 13.9239 81.7782 14.8253C79.6078 15.7266 75.3087 14.2254 74.8408 13.0987C74.4165 12.077 76.3438 7.86693 78.5142 6.96559L78.5141 6.96533Z" fill="#ADAFB2" stroke="#ADAFB2" stroke-width="0.266667" stroke-miterlimit="10"/>
<path d="M70.2866 4.4868C71.0495 3.16224 72.7418 2.70697 74.0663 3.46992C75.3909 4.23287 75.8463 5.92518 75.0834 7.24975C74.3204 8.57431 71.5077 9.50218 70.8201 9.10612C70.1965 8.74697 69.5238 5.81146 70.2867 4.48689L70.2866 4.4868Z" fill="#DFE1E5" stroke="#DFE1E5" stroke-width="0.173446" stroke-miterlimit="10"/>
<path d="M70.947 28.0696C72.7316 39.5527 64.8696 50.308 53.3865 52.0926C41.9034 53.8771 31.1468 46.0153 29.3622 34.5322C27.5777 23.0492 39.8307 4.15784 45.7917 3.23146C51.1973 2.39139 69.1611 16.5868 70.9457 28.0698L70.947 28.0696Z" fill="#DFE1E5" stroke="#DFE1E5" stroke-width="1.31861" stroke-miterlimit="10"/>
<path d="M46.5219 34.908C47.1631 34.8084 47.6022 34.2078 47.5025 33.5665C47.4029 32.9253 46.8023 32.4863 46.161 32.5859C45.5198 32.6856 45.0808 33.2862 45.1804 33.9274C45.2801 34.5686 45.8807 35.0077 46.5219 34.908Z" fill="#ADAFB2"/>
<path d="M55.5659 33.5025C56.2071 33.4028 56.6461 32.8022 56.5465 32.161C56.4468 31.5198 55.8462 31.0808 55.205 31.1804C54.5638 31.2801 54.1247 31.8807 54.2244 32.5219C54.324 33.1631 54.9246 33.6021 55.5659 33.5025Z" fill="#ADAFB2"/>
<path d="M47.9786 37.4047C48.5512 39.107 50.0431 39.8949 51.7697 39.6752C52.676 39.5607 53.5385 39.3073 54.123 38.5602C54.7076 37.8131 54.8433 36.9539 54.9718 36.0848C55.1278 35.0352 53.4925 34.8509 53.3372 35.8962C53.2605 36.4118 53.2025 36.9758 52.9131 37.426C52.5936 37.9238 52.0572 37.9808 51.5157 38.0497C50.4667 38.1835 49.8175 37.7378 49.4776 36.7292C49.1377 35.7205 47.6418 36.4067 47.9773 37.4049L47.9786 37.4047Z" fill="#ADAFB2"/>
<path d="M42.9395 58.309C42.9395 69.89 33.5514 79.278 21.9704 79.278C10.3894 79.278 1 69.89 1 58.309C1 46.728 15.9572 30 21.969 30C27.4207 30 42.9381 46.728 42.9381 58.309H42.9395Z" fill="#ADAFB2" stroke="#ADAFB2" stroke-width="1.31408" stroke-miterlimit="10"/>
<path d="M22.1709 47.3419C22.8176 47.3419 23.3419 46.8176 23.3419 46.1709C23.3419 45.5242 22.8176 45 22.1709 45C21.5242 45 21 45.5242 21 46.1709C21 46.8176 21.5242 47.3419 22.1709 47.3419Z" fill="white"/>
<path d="M30.1709 47.3419C30.8176 47.3419 31.3419 46.8176 31.3419 46.1709C31.3419 45.5242 30.8176 45 30.1709 45C29.5243 45 29 45.5242 29 46.1709C29 46.8176 29.5243 47.3419 30.1709 47.3419Z" fill="white"/>
<path d="M23.0153 50.0235C23.3186 51.7874 24.6672 52.7917 26.401 52.8395C27.311 52.8655 28.1991 52.748 28.8891 52.1017C29.5791 51.4554 29.8442 50.6301 30.1038 49.7939C30.418 48.7842 28.8358 48.3525 28.523 49.3581C28.3686 49.8541 28.2251 50.4006 27.8712 50.7996C27.4804 51.2409 26.9435 51.2149 26.3997 51.1999C25.3462 51.1712 24.7751 50.6329 24.5948 49.5876C24.4144 48.5424 22.8363 48.9892 23.0139 50.0235H23.0153Z" fill="white"/>
</svg>
