<svg width="46" height="46" viewBox="0 0 46 46" fill="none" xmlns="http://www.w3.org/2000/svg">
<rect width="46" height="46" fill="#E7FF57"/>
<g clip-path="url(#clip0_18_11670)">
<path d="M35.5771 25.3939C35.5771 32.3251 29.9584 37.9437 23.0272 37.9437C16.0961 37.9437 10.4766 32.3251 10.4766 25.3939C10.4766 18.4627 19.4283 8.45117 23.0264 8.45117C26.2892 8.45117 35.5762 18.4627 35.5762 25.3939H35.5771Z" fill="black" stroke="black" stroke-width="0.899512" stroke-miterlimit="10"/>
<path d="M18.3863 22.4963C18.7734 22.4963 19.0872 22.1826 19.0872 21.7955C19.0872 21.4085 18.7734 21.0947 18.3863 21.0947C17.9993 21.0947 17.6855 21.4085 17.6855 21.7955C17.6855 22.1826 17.9993 22.4963 18.3863 22.4963Z" fill="white"/>
<path d="M23.8453 22.4963C24.2324 22.4963 24.5461 22.1826 24.5461 21.7955C24.5461 21.4085 24.2324 21.0947 23.8453 21.0947C23.4583 21.0947 23.1445 21.4085 23.1445 21.7955C23.1445 22.1826 23.4583 22.4963 23.8453 22.4963Z" fill="white"/>
<path d="M25.616 19.9038C24.9864 18.9135 23.5521 18.9013 22.6844 19.5784C22.1873 19.966 22.8856 20.6561 23.3787 20.2726C23.7401 19.9913 24.5104 19.993 24.7689 20.3994C25.1066 20.9309 25.9562 20.4394 25.616 19.9038Z" fill="white"/>
<path d="M19.6544 19.6524C18.9462 18.8191 17.507 18.9859 16.7891 19.7252C16.3491 20.179 17.0426 20.8733 17.4833 20.4194C17.8513 20.04 18.5971 19.9182 18.961 20.3467C19.3707 20.8283 20.0616 20.1316 19.6552 19.6524H19.6544Z" fill="white"/>
<path d="M18.8353 23.804C19.0169 24.8597 19.824 25.4607 20.8617 25.4893C21.4063 25.5049 21.9378 25.4345 22.3508 25.0477C22.7637 24.6609 22.9224 24.167 23.0777 23.6666C23.2658 23.0623 22.3189 22.8039 22.1316 23.4057C22.0392 23.7026 21.9534 24.0297 21.7416 24.2684C21.5077 24.5326 21.1863 24.517 20.8609 24.508C20.2304 24.4909 19.8886 24.1687 19.7806 23.5431C19.6727 22.9175 18.7282 23.1849 18.8345 23.804H18.8353Z" fill="white"/>
</g>
<defs>
<clipPath id="clip0_18_11670">
<rect width="26" height="30.3921" fill="white" transform="translate(10.0273 8)"/>
</clipPath>
</defs>
</svg>
