<svg width="40" height="40" viewBox="0 0 40 40" fill="none" xmlns="http://www.w3.org/2000/svg">
<path d="M24.9914 6.6665L33.2459 14.921C34.8783 16.5524 35.9903 18.6313 36.4411 20.8947C36.8919 23.1581 36.6613 25.5043 35.7785 27.6367C34.8956 29.769 33.4002 31.5916 31.4814 32.874C29.5626 34.1563 27.3066 34.8408 24.9987 34.8408C22.6908 34.8408 20.4348 34.1563 18.516 32.874C16.5972 31.5916 15.1018 29.769 14.2189 27.6367C13.3361 25.5043 13.1055 23.1581 13.5563 20.8947C14.0071 18.6313 15.119 16.5524 16.7515 14.921L24.9914 6.6665Z" fill="white" stroke="black" stroke-width="2.91679" stroke-linecap="round" stroke-linejoin="round"/>
<path d="M13.3264 6.6665L21.5809 14.921C23.2133 16.5524 24.3253 18.6313 24.7761 20.8947C25.2269 23.1581 24.9962 25.5043 24.1134 27.6367C23.2306 29.769 21.7352 31.5916 19.8164 32.874C17.8975 34.1563 15.6415 34.8408 13.3337 34.8408C11.0258 34.8408 8.76976 34.1563 6.85094 32.874C4.93212 31.5916 3.43672 29.769 2.55389 27.6367C1.67105 25.5043 1.44045 23.1581 1.89125 20.8947C2.34205 18.6313 3.454 16.5524 5.08644 14.921L13.3264 6.6665Z" fill="black" stroke="black" stroke-width="2.91679" stroke-linecap="round" stroke-linejoin="round"/>
<g clip-path="url(#clip0_794_10584)">
<path d="M18.8286 20.3424C18.2738 20.3424 17.8241 19.8927 17.8241 19.3379C17.8241 18.7832 18.2738 18.3335 18.8286 18.3335C19.3833 18.3335 19.833 18.7832 19.833 19.3379C19.833 19.8927 19.3833 20.3424 18.8286 20.3424Z" fill="white"/>
<path d="M11.0048 20.3424C10.4501 20.3424 10.0004 19.8927 10.0004 19.3379C10.0004 18.7832 10.4501 18.3335 11.0048 18.3335C11.5596 18.3335 12.0093 18.7832 12.0093 19.3379C12.0093 19.8927 11.5596 20.3424 11.0048 20.3424Z" fill="white"/>
<path d="M17.9263 22.6433C17.6662 24.1564 16.5094 25.0179 15.0221 25.0589C14.2415 25.0812 13.4797 24.9804 12.8878 24.426C12.2959 23.8716 12.0685 23.1637 11.8458 22.4464C11.5763 21.5803 12.9335 21.2099 13.2019 22.0725C13.3343 22.498 13.4574 22.9668 13.7609 23.309C14.0961 23.6876 14.5568 23.6653 15.0232 23.6524C15.9269 23.6278 16.4168 23.1661 16.5715 22.2694C16.7262 21.3728 18.0799 21.7561 17.9275 22.6433H17.9263Z" fill="white"/>
</g>
<defs>
<clipPath id="clip0_794_10584">
<rect width="9.83334" height="6.72746" fill="white" transform="matrix(-1 0 0 1 19.834 18.3335)"/>
</clipPath>
</defs>
</svg>
