<svg width="26" height="27" viewBox="0 0 26 27" fill="none" xmlns="http://www.w3.org/2000/svg">
<path d="M20.5833 4.8335H5.41667C4.22005 4.8335 3.25 5.80355 3.25 7.00016V22.1668C3.25 23.3634 4.22005 24.3335 5.41667 24.3335H20.5833C21.7799 24.3335 22.75 23.3634 22.75 22.1668V7.00016C22.75 5.80355 21.7799 4.8335 20.5833 4.8335Z" stroke="#DFE1E5" stroke-width="1.92593" stroke-linecap="round" stroke-linejoin="round"/>
<path d="M20.5833 11.3335H5.41667C4.22005 11.3335 3.25 11.9802 3.25 12.7779V22.8891C3.25 23.6868 4.22005 24.3335 5.41667 24.3335H20.5833C21.7799 24.3335 22.75 23.6868 22.75 22.8891V12.7779C22.75 11.9802 21.7799 11.3335 20.5833 11.3335Z" stroke="#DFE1E5" stroke-width="1.92593" stroke-linecap="round" stroke-linejoin="round"/>
<path d="M17.333 2.6665V6.99984" stroke="#DFE1E5" stroke-width="1.92593" stroke-linecap="round" stroke-linejoin="round"/>
<path d="M8.66699 2.6665V6.99984" stroke="#DFE1E5" stroke-width="1.92593" stroke-linecap="round" stroke-linejoin="round"/>
<path d="M3.25 11.3335H22.75" stroke="#DFE1E5" stroke-width="1.92593" stroke-linecap="round" stroke-linejoin="round"/>
</svg>
