<svg width="261" height="261" viewBox="0 0 261 261" fill="none" xmlns="http://www.w3.org/2000/svg">
<g clip-path="url(#clip0_304_573)">
<path d="M129.093 0.366988C128.706 0.550504 128.196 0.978707 127.972 1.28457C127.564 1.8555 127.543 2.14097 127.482 10.8274C127.442 16.4756 127.503 20.0643 127.625 20.5537C127.747 20.9819 128.135 21.5936 128.461 21.9199C129.052 22.4704 129.236 22.5316 130.5 22.5316C131.764 22.5316 131.948 22.4704 132.539 21.9199C132.886 21.5936 133.253 21.0023 133.375 20.5945C133.518 20.1459 133.559 16.6999 133.518 10.8682C133.457 2.14097 133.436 1.8555 133.029 1.28457C132.498 0.550504 131.418 -4.28837e-05 130.5 -4.28837e-05C130.113 -4.28837e-05 129.481 0.163082 129.093 0.366988Z" fill="black"/>
<path d="M65.923 17.1485C64.3937 17.5971 63.4149 19.3711 63.9043 20.7984C64.2102 21.6956 71.7751 35.2146 72.5499 36.2749C73.5491 37.6207 75.4046 37.845 76.6892 36.7643C77.9331 35.7244 78.1981 34.4398 77.4845 33.0328C77.0359 32.156 69.5729 18.9429 69.1039 18.1885C68.7981 17.6991 67.3707 16.9038 66.8609 16.9446C66.6978 16.9446 66.29 17.0466 65.923 17.1485Z" fill="black"/>
<path d="M192.936 17.2709C192.141 17.6583 191.917 18.0049 187.002 27.1399C183.801 33.1144 183.312 34.1339 183.312 34.9088C183.312 37.2537 186.268 38.8442 187.961 37.4168C188.471 36.9886 194.323 26.4874 196.749 21.6752C197.402 20.3499 197.32 19.1468 196.525 18.2292C195.424 16.9854 194.2 16.6388 192.936 17.2709Z" fill="black"/>
<path d="M136.311 31.4831C135.638 31.6462 134.741 31.9113 134.313 32.0744C133.579 32.4007 133.559 32.4211 133.559 33.4406C133.559 34.0319 133.62 34.4601 133.722 34.4194C137.412 32.5638 139.961 32.6454 141.001 34.6641C141.878 36.3565 141.225 37.5595 137.005 41.9435C133.62 45.4711 133.559 45.5323 133.559 46.4091V47.3062H138.554H143.55V46.3887V45.4711H139.859H136.169L139.186 42.3513C142.775 38.6606 143.407 37.6819 143.407 35.7651C143.407 34.6641 143.305 34.2766 142.796 33.4814C141.694 31.7074 139.023 30.8714 136.311 31.4831Z" fill="black"/>
<path d="M122.14 31.9725L120.611 32.3191L120.549 33.2775C120.509 33.828 120.57 34.2562 120.651 34.2562C120.733 34.2359 121.61 34.0727 122.609 33.8688L124.383 33.5018V39.4762V45.4711H122.65H120.917V46.3887V47.3062H125.402H129.888V46.3887V45.4711H128.155H126.422V38.5383V31.6055L125.056 31.6259C124.281 31.6259 122.976 31.789 122.14 31.9725Z" fill="black"/>
<path d="M240.14 63.8634C239.61 64.047 225.989 72.1013 224.562 73.0596C223.706 73.6509 223.277 74.4258 223.277 75.4453C223.277 77.1377 224.338 78.3204 225.969 78.4427L227.05 78.5447L234.798 73.9364C239.121 71.3468 242.832 69.0019 243.219 68.6145C244.504 67.2279 243.974 64.8218 242.159 64.0062C241.221 63.578 240.956 63.5576 240.14 63.8634Z" fill="black"/>
<path d="M18.5351 64.1489C17.8418 64.5975 17.1893 65.5966 17.0262 66.5142C16.8223 67.5745 17.3728 68.5737 18.5351 69.2873C21.7364 71.2448 34.1135 77.933 34.7049 78.0145C37.111 78.4223 39.0073 74.9967 37.376 73.2023C36.9071 72.713 25.5495 66.2287 21.818 64.3324C20.6557 63.7411 19.3303 63.6799 18.5351 64.1489Z" fill="black"/>
<path d="M222.36 121.528C221.911 121.65 221.34 121.773 221.096 121.834C220.688 121.936 220.627 122.079 220.627 122.854C220.627 123.363 220.667 123.771 220.729 123.771C220.769 123.771 221.34 123.628 221.993 123.465C222.625 123.302 223.808 123.159 224.623 123.159C225.785 123.159 226.214 123.241 226.764 123.628C227.661 124.24 228.008 124.913 227.886 125.871C227.702 127.38 226.56 128.053 224.154 128.053H222.87V128.95V129.848L224.684 129.929C226.764 130.011 227.396 130.316 228.049 131.601C228.844 133.212 227.926 135.108 226.071 135.618C224.847 135.944 222.136 135.74 220.953 135.231L219.995 134.802L220.056 135.863L220.117 136.923L221.136 137.188C222.747 137.616 225.133 137.718 226.356 137.433C228.844 136.862 230.169 135.536 230.353 133.375C230.557 131.295 229.782 129.888 228.09 129.175L227.315 128.848L228.192 128.4C228.681 128.155 229.293 127.625 229.558 127.238C229.966 126.626 230.027 126.32 229.966 125.178C229.823 122.67 228.273 121.487 225.011 121.385C224.011 121.365 222.808 121.426 222.36 121.528Z" fill="black"/>
<path d="M33.4203 122.221C31.1773 123.017 30.0151 125.056 30.219 127.808C30.4433 130.847 32.2173 132.539 35.2351 132.539C36.4789 132.539 37.3353 132.213 38.2733 131.438L38.9462 130.867L38.8238 131.56C38.3752 134.068 37.5188 135.577 36.1527 136.128C35.2759 136.495 33.5427 136.495 32.2988 136.107C31.7483 135.944 31.2793 135.802 31.2589 135.802C31.2181 135.802 31.1977 136.209 31.1977 136.699C31.1977 137.535 31.2589 137.616 31.8706 137.841C33.0737 138.269 35.1127 138.33 36.3362 137.963C38.4568 137.351 40.19 135.231 40.7609 132.58C41.4542 129.277 40.557 124.75 38.9054 123.221C37.6616 122.058 35.1535 121.589 33.4203 122.221ZM37.0906 124.118C38.0286 124.831 38.4364 125.769 38.4364 127.237C38.4364 129.705 37.2334 131.01 35.1127 130.847C34.3379 130.785 33.9097 130.643 33.5223 130.276C31.6463 128.522 31.9318 125.015 34.0524 123.914C34.9292 123.465 36.3158 123.547 37.0906 124.118Z" fill="black"/>
<path d="M1.89638 127.666C-0.611665 128.4 -0.550493 132.641 1.99834 133.355C2.46732 133.477 6.17841 133.559 11.5208 133.559C19.4527 133.559 20.3499 133.518 21.0024 133.192C23.0415 132.172 23.2046 129.175 21.2675 127.91C20.7577 127.564 20.0033 127.543 11.6227 127.503C6.46388 127.482 2.26341 127.543 1.89638 127.666Z" fill="black"/>
<path d="M239.651 127.829C238.632 128.298 238.081 129.215 238.081 130.5C238.081 131.825 238.632 132.702 239.712 133.171C240.548 133.559 241.058 133.579 249.867 133.518C258.879 133.457 259.145 133.436 259.716 133.028C261.388 131.805 261.388 129.195 259.716 127.972C259.145 127.564 258.879 127.543 249.826 127.503C241.017 127.441 240.467 127.462 239.651 127.829Z" fill="black"/>
<path d="M26.1816 187.084C21.8792 189.653 18.1681 191.998 17.8011 192.386C16.4349 193.833 17.0874 196.341 19.0449 197.075C19.779 197.361 20.0848 197.381 20.6558 197.198C21.2879 196.994 34.6845 189.123 36.4381 187.94C38.8442 186.309 37.6615 182.496 34.7457 182.496C34.032 182.496 32.8901 183.108 26.1816 187.084Z" fill="black"/>
<path d="M225.092 183.353C223.583 184.209 223.033 186.268 223.95 187.594C224.297 188.124 226.173 189.286 232.025 192.63C236.225 195.016 239.998 197.075 240.426 197.198C241.078 197.402 241.303 197.381 242.118 196.994C244.463 195.852 244.606 193.018 242.404 191.651C240.65 190.55 228.457 183.638 227.661 183.291C226.601 182.802 225.989 182.822 225.092 183.353Z" fill="black"/>
<path d="M130.949 215.814C127.625 216.895 126.014 220.341 126.442 225.357C126.646 227.682 127.278 229.272 128.441 230.434C129.46 231.474 130.398 231.841 132.009 231.841C133.538 231.841 134.578 231.434 135.639 230.414C136.842 229.252 137.351 227.723 137.147 225.847C136.842 222.829 135.068 221.238 132.05 221.238C130.786 221.238 129.929 221.585 129.032 222.421C128.502 222.91 128.461 222.91 128.461 222.543C128.461 221.748 129.093 219.689 129.582 218.975C130.541 217.527 132.682 216.997 134.904 217.67C135.455 217.833 135.965 217.976 136.067 217.976C136.148 217.976 136.209 217.568 136.209 217.058C136.209 216.202 136.189 216.141 135.455 215.937C134.191 215.549 131.927 215.509 130.949 215.814ZM133.579 223.339C134.558 223.991 134.986 224.949 134.986 226.54C134.966 229.415 132.784 231.026 130.5 229.843C128.42 228.762 128.318 224.521 130.337 223.277C131.275 222.706 132.682 222.727 133.579 223.339Z" fill="black"/>
<path d="M184.494 223.277C183.087 224.032 182.435 225.52 182.985 226.825C183.312 227.621 190.714 240.915 191.713 242.485C192.814 244.239 194.832 244.484 196.321 243.036C197.096 242.281 197.422 241.262 197.157 240.344C197.055 239.998 194.975 236.103 192.528 231.739C187.736 223.216 187.471 222.87 185.983 222.87C185.575 222.89 184.902 223.073 184.494 223.277Z" fill="black"/>
<path d="M74.12 223.889C73.6918 224.154 71.9993 226.723 68.6349 232.188C64.2101 239.345 63.7411 240.181 63.7411 241.017C63.7004 242.689 65.0461 243.872 66.9629 243.872C67.7377 243.872 68.0232 243.75 68.6145 243.199C69.3893 242.485 78.2185 228.314 78.6263 227.131C79.4623 224.745 76.3018 222.482 74.12 223.889Z" fill="black"/>
<path d="M129.154 238.346C128.522 238.631 127.686 239.733 127.543 240.467C127.482 240.834 127.441 245.177 127.482 250.132C127.543 258.859 127.564 259.144 127.972 259.715C129.195 261.387 131.805 261.387 133.028 259.715C133.436 259.144 133.457 258.859 133.518 250.03C133.559 244.137 133.518 240.65 133.375 240.202C133.253 239.794 132.886 239.202 132.539 238.876C132.029 238.387 131.723 238.285 130.765 238.224C130.113 238.203 129.399 238.244 129.154 238.346Z" fill="black"/>
</g>
<defs>
<clipPath id="clip0_304_573">
<rect width="261" height="261" fill="white"/>
</clipPath>
</defs>
</svg>
