<svg width="27" height="27" viewBox="0 0 27 27" fill="none" xmlns="http://www.w3.org/2000/svg">
<path d="M23.625 16.875C23.625 17.4717 23.3879 18.044 22.966 18.466C22.544 18.8879 21.9717 19.125 21.375 19.125H7.875L3.375 23.625V5.625C3.375 5.02826 3.61205 4.45597 4.03401 4.03401C4.45597 3.61205 5.02826 3.375 5.625 3.375H21.375C21.9717 3.375 22.544 3.61205 22.966 4.03401C23.3879 4.45597 23.625 5.02826 23.625 5.625V16.875Z" stroke="#DFE1E5" stroke-width="1.86207" stroke-linecap="round" stroke-linejoin="round"/>
<path d="M14.9382 12.2252C13.5816 12.7295 12.0592 14.2519 11.5572 15.6062C11.4988 15.7649 11.2723 15.7649 11.214 15.6062C10.7096 14.2496 9.18722 12.7272 7.83295 12.2252C7.67417 12.1668 7.67417 11.9403 7.83295 11.8819C9.18722 11.3776 10.7096 9.85519 11.214 8.50092C11.2723 8.34214 11.4988 8.34214 11.5572 8.50092C12.0615 9.85752 13.5839 11.3799 14.9382 11.8819C15.097 11.9403 15.097 12.1668 14.9382 12.2252Z" fill="#DFE1E5"/>
<path d="M19.2196 8.88518C18.4659 9.16537 17.6201 10.0111 17.3412 10.7635C17.3088 10.8517 17.183 10.8517 17.1505 10.7635C16.8704 10.0098 16.0246 9.16408 15.2722 8.88518C15.184 8.85275 15.184 8.72692 15.2722 8.69449C16.0246 8.4143 16.8704 7.56853 17.1505 6.81616C17.183 6.72795 17.3088 6.72795 17.3412 6.81616C17.6214 7.56983 18.4672 8.4156 19.2196 8.69449C19.3078 8.72692 19.3078 8.85275 19.2196 8.88518Z" fill="#DFE1E5"/>
</svg>
