<svg width="20" height="20" viewBox="0 0 20 20" fill="none" xmlns="http://www.w3.org/2000/svg">
<path fill-rule="evenodd" clip-rule="evenodd" d="M10.0226 16.6306C9.10411 16.6306 8.35953 15.8861 8.35953 14.9676C8.35953 14.0491 9.10411 13.3045 10.0226 13.3045C10.9411 13.3045 11.6857 14.0491 11.6857 14.9676C11.6857 15.8861 10.9411 16.6306 10.0226 16.6306ZM10.0226 11.6414C9.10411 11.6414 8.35953 10.8969 8.35953 9.97838C8.35953 9.05989 9.10411 8.31532 10.0226 8.31532C10.9411 8.31532 11.6857 9.05989 11.6857 9.97838C11.6857 10.8969 10.9411 11.6414 10.0226 11.6414ZM8.35942 4.98923C8.35942 5.90772 9.104 6.6523 10.0225 6.6523C10.941 6.6523 11.6855 5.90772 11.6855 4.98924C11.6855 4.07075 10.941 3.32617 10.0225 3.32617C9.104 3.32617 8.35942 4.07075 8.35942 4.98923Z" fill="#C6C8CC"/>
</svg>
