<svg width="172" height="24" viewBox="0 0 172 24" fill="none" xmlns="http://www.w3.org/2000/svg">
<path d="M3.92469 16.1406C1.9032 16.1406 0.696172 14.459 0.696172 11.7754V11.7637C0.696172 9.08008 1.9032 7.4043 3.92469 7.4043C5.94031 7.4043 7.1532 9.08008 7.1532 11.7637V11.7754C7.1532 14.459 5.94031 16.1406 3.92469 16.1406ZM3.92469 15.0449C5.12586 15.0449 5.82898 13.8027 5.82898 11.7754V11.7637C5.82898 9.73633 5.12586 8.50586 3.92469 8.50586C2.71766 8.50586 2.02039 9.73633 2.02039 11.7637V11.7754C2.02039 13.8027 2.71766 15.0449 3.92469 15.0449ZM10.13 16V8.8457H10.1007L7.89172 10.3691V9.12695L10.1183 7.54492H11.4132V16H10.13Z" fill="black"/>
<line x1="114" y1="11.5" x2="138" y2="11.5" stroke="black"/>
<path d="M31.1923 16.1406C29.1708 16.1406 27.9637 14.459 27.9637 11.7754V11.7637C27.9637 9.08008 29.1708 7.4043 31.1923 7.4043C33.2079 7.4043 34.4208 9.08008 34.4208 11.7637V11.7754C34.4208 14.459 33.2079 16.1406 31.1923 16.1406ZM31.1923 15.0449C32.3934 15.0449 33.0966 13.8027 33.0966 11.7754V11.7637C33.0966 9.73633 32.3934 8.50586 31.1923 8.50586C29.9852 8.50586 29.288 9.73633 29.288 11.7637V11.7754C29.288 13.8027 29.9852 15.0449 31.1923 15.0449ZM35.2589 16V15.0977L38.2355 12.1035C39.3605 10.9785 39.6124 10.5332 39.6124 9.87695V9.86523C39.6066 9.0625 38.9972 8.48828 38.1417 8.48828C37.1515 8.48828 36.4425 9.15625 36.4308 10.0117V10.0469H35.1886V10.0117C35.1886 8.5 36.4718 7.4043 38.1241 7.4043C39.7472 7.4043 40.9073 8.42383 40.9073 9.78906V9.80078C40.9073 10.7676 40.4562 11.4531 38.9386 12.9531L37.0167 14.8398V14.8926H41.0421V16H35.2589Z" fill="black"/>
<path d="M59.9872 16.1406C57.9657 16.1406 56.7587 14.459 56.7587 11.7754V11.7637C56.7587 9.08008 57.9657 7.4043 59.9872 7.4043C62.0028 7.4043 63.2157 9.08008 63.2157 11.7637V11.7754C63.2157 14.459 62.0028 16.1406 59.9872 16.1406ZM59.9872 15.0449C61.1884 15.0449 61.8915 13.8027 61.8915 11.7754V11.7637C61.8915 9.73633 61.1884 8.50586 59.9872 8.50586C58.7802 8.50586 58.0829 9.73633 58.0829 11.7637V11.7754C58.0829 13.8027 58.7802 15.0449 59.9872 15.0449ZM67.1007 16.1406C65.296 16.1406 64.1183 15.1562 64.0011 13.7793L63.9952 13.7031H65.255L65.2609 13.7676C65.3429 14.5176 66.0519 15.0449 67.1007 15.0449C68.132 15.0449 68.8292 14.4707 68.8292 13.6504V13.6387C68.8292 12.6836 68.1378 12.1504 67.007 12.1504H65.9816V11.1309H66.9718C67.9386 11.1309 68.5948 10.5625 68.5948 9.77734V9.76562C68.5948 8.95117 68.0441 8.47656 67.089 8.47656C66.1515 8.47656 65.4952 8.96875 65.4132 9.75391L65.4073 9.80664H64.1769L64.1827 9.74805C64.3116 8.33594 65.4366 7.4043 67.089 7.4043C68.7706 7.4043 69.8722 8.29492 69.8722 9.5957V9.60742C69.8722 10.6562 69.1222 11.3594 68.0909 11.5762V11.6055C69.3331 11.7168 70.1652 12.4668 70.1652 13.6504V13.6621C70.1652 15.1094 68.8937 16.1406 67.1007 16.1406Z" fill="black"/>
<path d="M88.8993 16.1406C86.8778 16.1406 85.6708 14.459 85.6708 11.7754V11.7637C85.6708 9.08008 86.8778 7.4043 88.8993 7.4043C90.9149 7.4043 92.1278 9.08008 92.1278 11.7637V11.7754C92.1278 14.459 90.9149 16.1406 88.8993 16.1406ZM88.8993 15.0449C90.1005 15.0449 90.8036 13.8027 90.8036 11.7754V11.7637C90.8036 9.73633 90.1005 8.50586 88.8993 8.50586C87.6923 8.50586 86.995 9.73633 86.995 11.7637V11.7754C86.995 13.8027 87.6923 15.0449 88.8993 15.0449ZM97.0792 16V14.3184H92.8488V13.1758L96.4405 7.54492H98.339V13.2168H99.505V14.3184H98.339V16H97.0792ZM94.0675 13.2344H97.0909V8.58203H97.0558L94.0675 13.1992V13.2344Z" fill="black"/>
<circle cx="160" cy="12" r="12" fill="black"/>
<path d="M156.399 16.1465C154.255 16.1465 152.954 14.4648 152.954 11.7754V11.7637C152.954 9.07422 154.255 7.39844 156.399 7.39844C158.544 7.39844 159.845 9.07422 159.845 11.7637V11.7754C159.845 14.4648 158.544 16.1465 156.399 16.1465ZM156.399 14.7285C157.454 14.7285 158.057 13.6328 158.057 11.7754V11.7637C158.057 9.90625 157.454 8.81641 156.399 8.81641C155.345 8.81641 154.741 9.90625 154.741 11.7637V11.7754C154.741 13.6328 155.345 14.7285 156.399 14.7285ZM163.882 16.1465C162.042 16.1465 160.823 15.0742 160.718 13.6621L160.712 13.5742H162.347L162.359 13.6152C162.482 14.2539 163.073 14.7461 163.888 14.7461C164.814 14.7461 165.464 14.1133 165.464 13.2109V13.1992C165.458 12.3086 164.808 11.6816 163.894 11.6816C163.46 11.6816 163.091 11.8105 162.804 12.0391C162.634 12.168 162.499 12.332 162.4 12.5078H160.859L161.245 7.54492H166.642V8.95117H162.651L162.446 11.3301H162.482C162.833 10.7617 163.53 10.416 164.386 10.416C165.991 10.416 167.151 11.5703 167.151 13.1641V13.1758C167.151 14.9453 165.816 16.1465 163.882 16.1465Z" fill="white"/>
</svg>
