<svg width="179" height="24" viewBox="0 0 179 24" fill="none" xmlns="http://www.w3.org/2000/svg">
<line x1="121" y1="11.5" x2="145" y2="11.5" stroke="black"/>
<path d="M9.04023 16.1465C6.96602 16.1465 5.71797 14.4648 5.71797 11.7754V11.7637C5.71797 9.07422 6.96602 7.39844 9.04023 7.39844C11.1086 7.39844 12.3625 9.07422 12.3625 11.7637V11.7754C12.3625 14.4648 11.1086 16.1465 9.04023 16.1465ZM9.04023 14.9102C10.177 14.9102 10.8391 13.7266 10.8391 11.7754V11.7637C10.8391 9.8125 10.177 8.64062 9.04023 8.64062C7.89766 8.64062 7.24141 9.8125 7.24141 11.7637V11.7754C7.24141 13.7266 7.89766 14.9102 9.04023 14.9102ZM14.9441 16V8.98633H14.909L12.7234 10.4863V9.09766L14.9324 7.54492H16.4266V16H14.9441Z" fill="#242424"/>
<path d="M37.302 16.1465C35.2277 16.1465 33.9797 14.4648 33.9797 11.7754V11.7637C33.9797 9.07422 35.2277 7.39844 37.302 7.39844C39.3703 7.39844 40.6242 9.07422 40.6242 11.7637V11.7754C40.6242 14.4648 39.3703 16.1465 37.302 16.1465ZM37.302 14.9102C38.4387 14.9102 39.1008 13.7266 39.1008 11.7754V11.7637C39.1008 9.8125 38.4387 8.64062 37.302 8.64062C36.1594 8.64062 35.5031 9.8125 35.5031 11.7637V11.7754C35.5031 13.7266 36.1594 14.9102 37.302 14.9102ZM41.073 16V14.9688L44.0613 12.0566C45.1688 10.9727 45.409 10.5449 45.409 9.91797V9.90625C45.4031 9.15039 44.8348 8.61133 44.0203 8.61133C43.0828 8.61133 42.4266 9.23828 42.409 10.0527V10.0938H40.991V10.0527C40.991 8.50586 42.2918 7.39844 44.0086 7.39844C45.702 7.39844 46.8855 8.42383 46.8855 9.81836V9.83008C46.8855 10.8262 46.4227 11.5 44.9344 12.9297L43.0711 14.6992V14.7637H47.0145V16H41.073Z" fill="#242424"/>
<path d="M66.1027 16.1465C64.0285 16.1465 62.7805 14.4648 62.7805 11.7754V11.7637C62.7805 9.07422 64.0285 7.39844 66.1027 7.39844C68.1711 7.39844 69.425 9.07422 69.425 11.7637V11.7754C69.425 14.4648 68.1711 16.1465 66.1027 16.1465ZM66.1027 14.9102C67.2395 14.9102 67.9016 13.7266 67.9016 11.7754V11.7637C67.9016 9.8125 67.2395 8.64062 66.1027 8.64062C64.9602 8.64062 64.3039 9.8125 64.3039 11.7637V11.7754C64.3039 13.7266 64.9602 14.9102 66.1027 14.9102ZM72.9969 16.1465C71.1395 16.1465 69.9324 15.1504 69.8152 13.7324L69.8094 13.6621H71.2566L71.2625 13.7266C71.3445 14.4121 72.0008 14.9102 72.991 14.9102C73.9695 14.9102 74.6199 14.3711 74.6199 13.6035V13.5918C74.6199 12.7012 73.9637 12.209 72.8855 12.209H71.8836V11.084H72.8504C73.782 11.084 74.4031 10.5566 74.4031 9.81836V9.80664C74.4031 9.04492 73.8875 8.59961 72.9793 8.59961C72.0887 8.59961 71.4793 9.0625 71.4031 9.78906L71.3973 9.84766H69.991L69.9969 9.77734C70.1199 8.34766 71.2742 7.39844 72.9793 7.39844C74.7254 7.39844 75.8563 8.29492 75.8563 9.60742V9.61914C75.8563 10.668 75.0945 11.3652 74.0809 11.5762V11.6055C75.3289 11.7227 76.1551 12.4609 76.1551 13.6328V13.6445C76.1551 15.1152 74.866 16.1465 72.9969 16.1465Z" fill="#242424"/>
<path d="M95.009 16.1465C92.9348 16.1465 91.6867 14.4648 91.6867 11.7754V11.7637C91.6867 9.07422 92.9348 7.39844 95.009 7.39844C97.0773 7.39844 98.3313 9.07422 98.3313 11.7637V11.7754C98.3313 14.4648 97.0773 16.1465 95.009 16.1465ZM95.009 14.9102C96.1457 14.9102 96.8078 13.7266 96.8078 11.7754V11.7637C96.8078 9.8125 96.1457 8.64062 95.009 8.64062C93.8664 8.64062 93.2102 9.8125 93.2102 11.7637V11.7754C93.2102 13.7266 93.8664 14.9102 95.009 14.9102ZM102.888 16V14.377H98.6688V13.0879L102.179 7.54492H104.329V13.1348H105.477V14.377H104.329V16H102.888ZM100.028 13.1699H102.911V8.6875H102.876L100.028 13.1289V13.1699Z" fill="#242424"/>
<path fill-rule="evenodd" clip-rule="evenodd" d="M167 24C173.627 24 179 18.6274 179 12C179 5.37258 173.627 0 167 0C160.373 0 155 5.37258 155 12C155 18.6274 160.373 24 167 24ZM160.501 11.7754C160.501 14.4648 161.802 16.1465 163.946 16.1465C166.091 16.1465 167.392 14.4648 167.392 11.7754V11.7637C167.392 9.07422 166.091 7.39844 163.946 7.39844C161.802 7.39844 160.501 9.07422 160.501 11.7637V11.7754ZM165.604 11.7754C165.604 13.6328 165.001 14.7285 163.946 14.7285C162.892 14.7285 162.288 13.6328 162.288 11.7754V11.7637C162.288 9.90625 162.892 8.81641 163.946 8.81641C165.001 8.81641 165.604 9.90625 165.604 11.7637V11.7754ZM169.938 9.16797V16H171.69V7.54492H169.932L167.747 9.0625V10.6328L169.903 9.16797H169.938Z" fill="black"/>
</svg>
