<svg width="120" height="123" viewBox="0 0 120 123" fill="none" xmlns="http://www.w3.org/2000/svg">
<path fill-rule="evenodd" clip-rule="evenodd" d="M49.0014 121.186C75.1265 121.186 96.3046 100.008 96.3046 73.8825H96.3015C96.3015 47.7574 61.2965 10.0215 48.9983 10.0215C35.4364 10.0215 1.69507 47.7574 1.69507 73.8825C1.69507 100.008 22.8763 121.186 49.0014 121.186ZM44.4341 64.5128C44.4341 65.9717 43.2515 67.1543 41.7926 67.1543C40.3338 67.1543 39.1511 65.9717 39.1511 64.5128C39.1511 63.054 40.3338 61.8713 41.7926 61.8713C43.2515 61.8713 44.4341 63.054 44.4341 64.5128ZM62.3688 67.1543C63.8276 67.1543 65.0103 65.9717 65.0103 64.5128C65.0103 63.054 63.8276 61.8713 62.3688 61.8713C60.9099 61.8713 59.7273 63.054 59.7273 64.5128C59.7273 65.9717 60.9099 67.1543 62.3688 67.1543ZM50.5387 69.1799C47.4107 70.8256 46.2738 75.1807 47.2132 78.4288C48.1872 81.7946 51.963 84.2204 55.3319 82.5529C58.7007 80.8854 59.8628 75.8767 58.9905 72.4832C58.109 69.0526 54.3024 66.5622 51.0321 68.7228C50.8284 68.8574 50.6652 69.0121 50.5387 69.1799ZM53.11 71.7928C55.8567 70.3877 56.5053 78.3184 53.5133 79.3258C51.8335 79.8898 50.7362 77.9048 50.6191 76.5487C50.4866 74.9983 50.9921 73.1089 52.4469 72.3568C52.7422 72.204 52.9599 72.0101 53.11 71.7928Z" fill="#242424"/>
<g clip-path="url(#clip0_832_3550)">
<path d="M94.7405 8.70579C93.54 7.95519 93.888 6.11349 94.5615 5.12429C95.3892 3.90891 96.8183 3.18316 98.2574 3.0067C101.538 2.60406 104.111 5.19388 104.61 8.2957C105.149 11.6411 103.042 14.7305 100.186 16.2814C98.6053 17.1413 96.8581 17.2482 96.2889 19.2515C95.6601 21.4635 95.4314 23.8843 95.0164 26.1461C94.6709 28.0226 97.5465 28.8278 97.892 26.9389C98.0909 25.8528 98.2922 24.7642 98.491 23.678C98.6749 22.6739 98.6824 21.1429 99.1273 20.2307C99.4404 19.5895 100.556 19.413 101.213 19.0999C102.033 18.7072 102.786 18.2076 103.497 17.6409C106.139 15.5283 107.913 12.1953 107.65 8.76047C107.386 5.32561 105.487 2.08212 102.314 0.690278C99.3783 -0.597174 95.8291 -0.0478946 93.3834 2.01501C90.6495 4.32149 89.8442 9.16311 93.2343 11.2807C94.8673 12.3022 96.366 9.72233 94.7405 8.70579Z" fill="#242424"/>
<path d="M93.5824 34.8151V35.0835C93.5749 35.2898 93.6172 35.4812 93.7116 35.6576C93.7713 35.8415 93.8757 36.0031 94.0198 36.1373C94.154 36.284 94.3156 36.3859 94.4995 36.4455C94.6785 36.54 94.8698 36.5822 95.0736 36.5748L95.4713 36.5226C95.7248 36.4505 95.9435 36.3237 96.1299 36.1398L96.3636 35.8391C96.4978 35.6054 96.5674 35.3544 96.5674 35.086V34.8176C96.5748 34.6113 96.5326 34.4199 96.4381 34.2434C96.3785 34.0595 96.2741 33.8979 96.1299 33.7637C95.9957 33.6171 95.8342 33.5152 95.6503 33.4555C95.4713 33.3611 95.2799 33.3188 95.0761 33.3263L94.6785 33.3785C94.4249 33.4506 94.2062 33.5773 94.0198 33.7612L93.7862 34.062C93.652 34.2956 93.5824 34.5466 93.5824 34.8151Z" fill="#242424"/>
<path d="M114.182 20.7376C115.002 19.4377 116.481 21.5205 116.751 22.2263C117.234 23.4715 117.137 25.2461 115.705 25.8004C114.413 26.3 113.312 24.8584 111.93 25.6239C110.637 26.3397 110.123 28.4971 109.556 29.7448C108.768 31.4796 111.336 32.9957 112.131 31.2509C112.417 30.6246 112.7 29.9983 112.986 29.372C113.105 29.1135 113.466 28.6238 113.461 28.3281L113.588 28.0696L112.954 28.3455C112.944 28.5443 114.244 28.8227 114.462 28.855C114.989 28.9345 115.519 28.9171 116.041 28.8078C118.35 28.3256 119.843 26.2428 119.985 23.9637C120.127 21.6845 119.033 19.3159 117.154 18.1005C115.275 16.8852 112.802 17.3325 111.604 19.2314C110.575 20.8594 113.155 22.3581 114.179 20.7376H114.182Z" fill="#242424"/>
<path d="M107.956 37.6487C109.874 37.6487 109.877 34.6662 107.956 34.6662C106.034 34.6662 106.034 37.6487 107.956 37.6487Z" fill="#242424"/>
</g>
<defs>
<clipPath id="clip0_832_3550">
<rect width="29" height="37.6493" fill="white" transform="translate(91)"/>
</clipPath>
</defs>
</svg>
