<svg xmlns="http://www.w3.org/2000/svg" xmlns:v="https://svgstorm.com"
viewBox = "0 0 415 671"
width="415"
height="671">
<g fill="None" fill-opacity="0.0" stroke="#545454" stroke-opacity="1.00" stroke-width="0.3"><path d="
M 0.00 547.00 
C 10.22 542.63 17.11 527.47 16.00 515.00
C 23.71 515.72 30.00 510.98 36.00 507.00
C 32.88 513.40 25.14 513.53 20.25 519.25 C 15.36 524.97 16.95 531.54 12.75 537.75 C 8.55 543.96 15.41 553.51 18.00 559.00
C 13.39 553.98 9.12 543.40 0.00 550.00
L 0.00 585.00
C 8.68 583.90 17.41 586.88 25.67 583.67 C 33.93 580.46 27.59 569.71 25.00 565.00
C 31.91 569.02 41.55 569.06 49.00 566.00
C 50.00 566.04 51.00 565.97 52.00 566.00
C 50.11 568.62 47.65 571.24 45.00 573.00
C 46.44 575.02 46.96 575.15 46.00 579.00
C 41.36 576.43 43.46 583.25 43.00 586.00
C 58.18 582.95 68.37 593.71 64.00 609.00
C 64.85 611.09 70.31 613.88 72.67 613.33 C 75.04 612.78 80.87 617.26 80.00 617.00
C 97.12 617.00 91.77 625.96 94.93 639.07 C 98.09 652.19 110.07 645.08 118.03 644.03 C 125.98 642.97 142.04 649.07 142.00 634.00
C 145.60 632.28 151.08 630.12 150.00 625.00
C 150.71 620.79 149.56 619.08 147.00 616.00
C 151.91 620.11 157.64 617.02 162.00 614.00
C 162.60 613.69 163.47 613.35 164.00 613.00
C 172.46 607.35 177.49 601.51 187.23 597.23 C 196.97 592.95 202.25 587.62 212.70 582.70 C 223.14 577.78 237.87 582.62 251.00 581.00 C 264.13 579.38 263.99 565.35 264.00 554.00
C 264.00 553.50 264.00 553.00 264.00 553.00
C 254.33 546.24 246.12 539.54 240.00 529.00
C 243.79 531.04 246.20 537.33 251.00 535.00
C 249.50 540.25 254.94 542.97 259.00 544.00
C 255.78 534.18 260.38 546.03 265.70 548.30 C 271.01 550.58 280.21 546.60 286.02 545.02 C 291.84 543.45 299.74 539.97 306.00 539.00
C 311.00 536.58 320.94 532.07 318.00 525.00
C 322.07 525.73 325.44 524.18 329.00 523.00
C 339.20 518.34 350.51 514.50 362.00 513.00
C 370.98 511.83 379.97 511.01 387.00 505.00
C 381.44 509.96 382.21 520.11 390.08 522.92 C 397.95 525.73 407.06 522.27 415.00 525.00
L 415.00 357.00
C 410.90 355.65 410.97 349.32 415.00 348.00
L 415.00 0.00
L 0.00 0.00
L 0.00 547.00
M 383.00 467.00 
C 387.73 468.99 383.82 478.54 378.77 476.21 C 373.72 473.89 377.84 464.83 383.00 467.00
M 126.00 576.00 
C 126.00 567.10 135.74 577.32 126.00 576.00 Z"/>
</g>
<g fill="None" fill-opacity="0.0" stroke="#262626" stroke-opacity="1.00" stroke-width="0.3"><path d="
M 415.00 357.00 
L 415.00 348.00
C 410.97 349.32 410.90 355.65 415.00 357.00 Z"/>
</g>
<g fill="None" fill-opacity="0.0" stroke="#171717" stroke-opacity="1.00" stroke-width="0.3"><path d="
M 383.00 467.00 
C 377.84 464.83 373.72 473.89 378.77 476.21 C 383.82 478.54 387.73 468.99 383.00 467.00
M 379.00 474.00 
C 377.71 465.05 387.27 472.64 379.00 474.00 Z"/>
</g>
<g fill="None" fill-opacity="0.0" stroke="#4E4E4E" stroke-opacity="1.00" stroke-width="0.3"><path d="
M 379.00 474.00 
C 387.27 472.64 377.71 465.05 379.00 474.00 Z"/>
</g>
<g fill="None" fill-opacity="0.0" stroke="#131313" stroke-opacity="1.00" stroke-width="0.3"><path d="
M 362.00 513.00 
C 373.62 513.34 382.22 520.50 384.99 533.01 C 387.76 545.52 385.72 558.63 381.68 571.68 C 377.63 584.73 363.29 581.49 353.00 585.00
C 355.94 585.13 358.70 588.90 362.00 589.00
C 360.87 582.84 374.97 584.67 372.00 591.00
C 383.92 585.56 400.08 589.13 415.00 588.00
L 415.00 586.00
C 407.06 586.96 400.03 584.73 392.00 586.00 C 383.97 587.27 377.34 583.98 384.00 576.00
C 387.36 575.84 388.27 581.12 392.00 580.00
C 384.09 574.68 384.61 566.41 388.00 559.00
C 392.91 552.71 407.98 559.55 415.00 557.00
L 415.00 555.00
C 407.90 553.40 400.51 557.48 393.78 554.22 C 387.04 550.96 388.82 544.48 388.00 537.00 C 387.18 529.52 393.58 527.47 400.00 527.00 C 406.42 526.53 410.17 530.37 415.00 529.00
L 415.00 525.00
C 407.06 522.27 397.95 525.73 390.08 522.92 C 382.21 520.11 381.44 509.96 387.00 505.00
C 379.97 511.01 370.98 511.83 362.00 513.00
M 382.00 518.00 
C 379.36 517.84 377.38 514.98 376.00 513.00
C 379.93 512.16 383.33 513.36 382.00 518.00
M 389.00 527.00 
C 386.20 527.11 384.98 524.06 384.00 522.00
C 385.89 522.71 388.85 524.37 389.00 527.00 Z"/>
</g>
<g fill="None" fill-opacity="0.0" stroke="#2D2D2D" stroke-opacity="1.00" stroke-width="0.3"><path d="
M 0.00 547.00 
L 0.00 550.00
C 9.12 543.40 13.39 553.98 18.00 559.00
C 15.41 553.51 8.55 543.96 12.75 537.75 C 16.95 531.54 15.36 524.97 20.25 519.25 C 25.14 513.53 32.88 513.40 36.00 507.00
C 30.00 510.98 23.71 515.72 16.00 515.00
C 17.11 527.47 10.22 542.63 0.00 547.00 Z"/>
</g>
<g fill="None" fill-opacity="0.0" stroke="#494949" stroke-opacity="1.00" stroke-width="0.3"><path d="
M 329.00 523.00 
C 329.23 522.74 323.73 528.55 321.08 532.08 C 318.44 535.62 315.10 542.57 314.00 547.00
C 312.10 554.68 314.06 563.36 312.00 571.00
C 309.46 569.34 313.17 562.81 308.00 564.00
C 310.01 556.64 303.45 550.64 303.00 545.00
C 294.55 542.65 287.29 547.02 278.98 548.98 C 270.66 550.93 266.22 558.70 267.00 567.00 C 267.78 575.30 255.11 580.55 262.00 589.00
C 254.10 579.40 234.78 582.58 223.00 583.00 C 211.22 583.42 202.48 593.26 191.92 596.92 C 181.36 600.58 172.92 608.57 164.00 615.00
C 159.74 618.64 150.31 627.12 154.93 633.07 C 159.54 639.03 162.39 644.26 168.75 648.25 C 175.11 652.24 188.21 650.35 196.00 650.00 C 203.79 649.65 210.69 653.65 217.75 650.75 C 224.80 647.85 229.63 661.34 238.00 658.00
C 234.27 644.96 247.39 637.63 253.30 629.30 C 259.22 620.98 281.70 625.85 277.00 608.00
C 292.61 614.83 304.87 596.57 320.00 595.00
C 314.82 598.94 304.86 600.90 306.00 610.00
C 301.14 605.11 303.56 604.38 295.25 608.25 C 286.95 612.13 276.58 614.87 272.25 624.25 C 267.91 633.62 270.04 631.64 269.00 641.00
C 267.34 636.66 267.84 630.90 267.00 626.00
C 259.95 626.07 252.51 629.88 253.00 638.00
C 257.84 638.80 257.43 637.79 256.00 643.00
C 265.45 647.68 269.94 652.24 281.07 651.07 C 292.20 649.91 296.38 644.99 300.93 634.93 C 305.47 624.86 315.61 647.59 324.00 642.00
C 327.97 634.70 336.85 623.17 345.25 628.75 C 353.64 634.34 372.09 638.51 372.00 625.00 C 371.91 611.49 363.24 606.24 363.00 593.00
C 358.80 590.51 355.68 584.27 349.00 587.00
C 349.84 585.90 351.46 584.96 353.00 585.00
C 363.29 581.49 377.63 584.73 381.68 571.68 C 385.72 558.63 387.76 545.52 384.99 533.01 C 382.22 520.50 373.62 513.34 362.00 513.00
C 350.51 514.50 339.20 518.34 329.00 523.00
M 219.00 619.00 
C 225.48 622.16 216.32 634.00 210.33 629.67 C 204.34 625.33 212.76 615.96 219.00 619.00 Z"/>
</g>
<g fill="None" fill-opacity="0.0" stroke="#444444" stroke-opacity="1.00" stroke-width="0.3"><path d="
M 382.00 518.00 
C 383.33 513.36 379.93 512.16 376.00 513.00
C 377.38 514.98 379.36 517.84 382.00 518.00 Z"/>
</g>
<g fill="None" fill-opacity="0.0" stroke="#464646" stroke-opacity="1.00" stroke-width="0.3"><path d="
M 389.00 527.00 
C 388.85 524.37 385.89 522.71 384.00 522.00
C 384.98 524.06 386.20 527.11 389.00 527.00 Z"/>
</g>
<g fill="None" fill-opacity="0.0" stroke="#1D1D1D" stroke-opacity="1.00" stroke-width="0.3"><path d="
M 306.00 539.00 
C 303.59 540.17 301.07 541.89 298.00 542.00
C 302.96 544.12 311.03 545.62 311.00 553.00
C 313.09 551.80 310.76 547.56 314.00 547.00
C 315.10 542.57 318.44 535.62 321.08 532.08 C 323.73 528.55 329.23 522.74 329.00 523.00
C 325.44 524.18 322.07 525.73 318.00 525.00
C 320.94 532.07 311.00 536.58 306.00 539.00 Z"/>
</g>
<g fill="None" fill-opacity="0.0" stroke="#3C3C3C" stroke-opacity="1.00" stroke-width="0.3"><path d="
M 415.00 555.00 
L 415.00 529.00
C 410.17 530.37 406.42 526.53 400.00 527.00 C 393.58 527.47 387.18 529.52 388.00 537.00 C 388.82 544.48 387.04 550.96 393.78 554.22 C 400.51 557.48 407.90 553.40 415.00 555.00 Z"/>
</g>
<g fill="None" fill-opacity="0.0" stroke="#363636" stroke-opacity="1.00" stroke-width="0.3"><path d="
M 264.00 553.00 
C 263.04 551.03 260.85 549.97 260.00 548.00
C 264.56 547.08 267.41 551.92 272.00 551.00
C 270.37 553.76 267.00 555.51 267.00 559.00
C 265.35 557.99 266.07 554.80 264.00 554.00
C 263.99 565.35 264.13 579.38 251.00 581.00 C 237.87 582.62 223.14 577.78 212.70 582.70 C 202.25 587.62 196.97 592.95 187.23 597.23 C 177.49 601.51 172.46 607.35 164.00 613.00
C 164.07 612.83 164.54 614.21 164.00 615.00
C 172.92 608.57 181.36 600.58 191.92 596.92 C 202.48 593.26 211.22 583.42 223.00 583.00 C 234.78 582.58 254.10 579.40 262.00 589.00
C 255.11 580.55 267.78 575.30 267.00 567.00 C 266.22 558.70 270.66 550.93 278.98 548.98 C 287.29 547.02 294.55 542.65 303.00 545.00
C 303.45 550.64 310.01 556.64 308.00 564.00
C 313.17 562.81 309.46 569.34 312.00 571.00
C 314.06 563.36 312.10 554.68 314.00 547.00
C 310.76 547.56 313.09 551.80 311.00 553.00
C 311.03 545.62 302.96 544.12 298.00 542.00
C 301.07 541.89 303.59 540.17 306.00 539.00
C 299.74 539.97 291.84 543.45 286.02 545.02 C 280.21 546.60 271.01 550.58 265.70 548.30 C 260.38 546.03 255.78 534.18 259.00 544.00
C 254.94 542.97 249.50 540.25 251.00 535.00
C 246.20 537.33 243.79 531.04 240.00 529.00
C 246.12 539.54 254.33 546.24 264.00 553.00 Z"/>
</g>
<g fill="None" fill-opacity="0.0" stroke="#171717" stroke-opacity="1.00" stroke-width="0.3"><path d="
M 264.00 553.00 
C 264.00 553.00 264.00 553.50 264.00 554.00
C 266.07 554.80 265.35 557.99 267.00 559.00
C 267.00 555.51 270.37 553.76 272.00 551.00
C 267.41 551.92 264.56 547.08 260.00 548.00
C 260.85 549.97 263.04 551.03 264.00 553.00 Z"/>
</g>
<g fill="None" fill-opacity="0.0" stroke="#545454" stroke-opacity="1.00" stroke-width="0.3"><path d="
M 388.00 559.00 
C 387.44 559.94 395.38 558.82 399.00 559.00 C 402.62 559.18 410.95 558.87 415.00 559.00
L 415.00 557.00
C 407.98 559.55 392.91 552.71 388.00 559.00 Z"/>
</g>
<g fill="None" fill-opacity="0.0" stroke="#383838" stroke-opacity="1.00" stroke-width="0.3"><path d="
M 415.00 586.00 
L 415.00 559.00
C 410.95 558.87 402.62 559.18 399.00 559.00 C 395.38 558.82 387.44 559.94 388.00 559.00
C 384.61 566.41 384.09 574.68 392.00 580.00
C 388.27 581.12 387.36 575.84 384.00 576.00
C 377.34 583.98 383.97 587.27 392.00 586.00 C 400.03 584.73 407.06 586.96 415.00 586.00 Z"/>
</g>
<g fill="None" fill-opacity="0.0" stroke="#3B3B3B" stroke-opacity="1.00" stroke-width="0.3"><path d="
M 0.00 585.00 
L 0.00 588.00
C 10.66 586.90 23.33 590.95 32.00 584.00
C 30.81 580.15 30.92 575.95 30.00 572.00
C 36.80 575.15 44.65 571.11 49.00 566.00
C 41.55 569.06 31.91 569.02 25.00 565.00
C 27.59 569.71 33.93 580.46 25.67 583.67 C 17.41 586.88 8.68 583.90 0.00 585.00 Z"/>
</g>
<g fill="None" fill-opacity="0.0" stroke="#131313" stroke-opacity="1.00" stroke-width="0.3"><path d="
M 0.00 588.00 
L 0.00 590.00
C 9.16 592.98 3.38 605.67 5.00 613.00
C 3.06 612.38 1.87 614.20 0.00 614.00
L 0.00 619.00
C 10.14 622.04 34.17 611.27 32.00 628.00
C 27.32 628.54 27.20 622.17 23.00 622.00
C 26.50 623.42 27.44 631.59 33.00 630.00
C 36.97 648.35 12.49 646.71 0.00 647.00
L 0.00 651.00
C 1.67 651.00 3.33 651.00 5.00 651.00
C 6.11 654.52 2.23 654.08 0.00 654.00
L 0.00 671.00
L 27.00 671.00
C 26.14 666.67 23.62 658.77 19.00 657.00
C 14.92 656.43 11.14 656.29 7.00 656.00
C 9.03 649.05 21.31 647.49 28.02 646.02 C 34.74 644.56 47.21 635.92 50.00 644.00
C 56.42 640.20 66.51 645.78 73.00 649.00
C 78.77 654.28 74.86 663.78 76.00 671.00
L 144.00 671.00
C 145.68 667.39 140.89 654.35 146.00 653.00
C 146.84 652.78 148.13 653.00 149.00 653.00
C 155.15 651.65 164.20 651.42 171.00 652.00 C 177.80 652.58 188.47 649.29 192.00 655.00
C 202.12 645.63 213.38 656.89 208.00 669.00
C 196.98 670.01 183.81 667.65 173.00 669.00 C 162.19 670.35 154.30 660.37 147.00 671.00
L 153.00 671.00
C 154.09 667.27 158.94 667.36 160.00 671.00
L 218.00 671.00
C 216.53 668.84 213.49 668.88 211.00 669.00
C 208.56 664.02 214.54 650.82 221.02 653.02 C 227.51 655.23 230.12 665.05 239.00 661.00
C 240.28 664.15 241.18 667.45 241.00 671.00
L 244.00 671.00
C 244.59 662.27 236.77 654.90 241.33 645.33 C 245.89 635.76 253.66 644.86 260.08 646.92 C 266.49 648.99 269.19 661.42 275.00 658.00
C 261.73 651.22 289.74 651.76 284.00 664.00
C 274.38 664.02 258.07 655.95 257.00 671.00
L 260.00 671.00
C 259.08 660.49 268.89 665.39 275.01 665.99 C 281.13 666.59 288.89 667.85 294.00 671.00
L 301.00 671.00
C 304.04 662.72 312.14 663.49 315.00 671.00
L 320.00 671.00
C 320.00 663.67 320.00 656.33 320.00 649.00
C 325.84 650.61 332.33 649.64 338.00 652.00
C 337.05 644.59 321.44 651.13 322.00 646.00
C 324.34 642.68 333.87 642.60 338.22 641.22 C 342.57 639.84 349.90 635.37 355.00 636.00 C 360.10 636.63 369.62 635.78 374.00 639.00
C 382.66 645.38 377.60 661.99 380.00 671.00
L 410.00 671.00
C 410.83 669.25 413.44 670.34 415.00 670.00
L 415.00 650.00
C 409.85 649.69 410.25 642.24 415.00 642.00
L 415.00 640.00
C 408.63 638.20 406.90 628.79 402.00 624.00
C 407.54 623.03 412.25 624.37 415.00 629.00
L 415.00 618.00
C 407.75 623.22 400.67 619.05 393.78 618.78 C 386.88 618.52 382.69 628.49 376.00 629.00
C 378.02 625.03 376.29 625.32 374.00 628.00
C 374.68 621.70 374.20 613.55 369.75 609.25 C 365.30 604.95 361.99 596.73 369.00 595.00
C 366.96 594.81 364.21 591.85 363.00 593.00
C 363.24 606.24 371.91 611.49 372.00 625.00 C 372.09 638.51 353.64 634.34 345.25 628.75 C 336.85 623.17 327.97 634.70 324.00 642.00
C 315.61 647.59 305.47 624.86 300.93 634.93 C 296.38 644.99 292.20 649.91 281.07 651.07 C 269.94 652.24 265.45 647.68 256.00 643.00
C 257.43 637.79 257.84 638.80 253.00 638.00
C 252.51 629.88 259.95 626.07 267.00 626.00
C 267.84 630.90 267.34 636.66 269.00 641.00
C 270.04 631.64 267.91 633.62 272.25 624.25 C 276.58 614.87 286.95 612.13 295.25 608.25 C 303.56 604.38 301.14 605.11 306.00 610.00
C 304.86 600.90 314.82 598.94 320.00 595.00
C 304.87 596.57 292.61 614.83 277.00 608.00
C 281.70 625.85 259.22 620.98 253.30 629.30 C 247.39 637.63 234.27 644.96 238.00 658.00
C 229.63 661.34 224.80 647.85 217.75 650.75 C 210.69 653.65 203.79 649.65 196.00 650.00 C 188.21 650.35 175.11 652.24 168.75 648.25 C 162.39 644.26 159.54 639.03 154.93 633.07 C 150.31 627.12 159.74 618.64 164.00 615.00
C 164.54 614.21 164.07 612.83 164.00 613.00
C 163.47 613.35 162.60 613.69 162.00 614.00
C 159.20 616.60 156.62 620.22 152.00 619.00
C 152.17 621.14 151.89 623.84 150.00 625.00
C 151.08 630.12 145.60 632.28 142.00 634.00
C 142.04 649.07 125.98 642.97 118.03 644.03 C 110.07 645.08 98.09 652.19 94.93 639.07 C 91.77 625.96 97.12 617.00 80.00 617.00
C 71.28 617.00 64.89 619.12 64.00 609.00
C 68.37 593.71 58.18 582.95 43.00 586.00
C 43.46 583.25 41.36 576.43 46.00 579.00
C 46.96 575.15 46.44 575.02 45.00 573.00
C 47.65 571.24 50.11 568.62 52.00 566.00
C 51.00 565.97 50.00 566.04 49.00 566.00
C 44.65 571.11 36.80 575.15 30.00 572.00
C 30.92 575.95 30.81 580.15 32.00 584.00
C 23.33 590.95 10.66 586.90 0.00 588.00
M 57.00 590.00 
C 62.75 592.69 62.58 607.53 61.00 613.00
C 59.12 619.53 45.50 616.32 38.00 617.00 C 30.50 617.68 16.12 616.49 8.00 617.00
C 7.92 610.08 8.89 601.13 7.00 594.00
C 13.34 588.41 21.61 592.35 29.00 593.00
C 30.11 587.37 37.73 591.09 42.00 590.00 C 46.27 588.91 53.13 587.94 57.00 590.00
M 91.00 626.00 
C 91.95 634.52 92.30 646.62 82.00 646.00 C 71.69 645.37 67.57 643.78 58.93 640.07 C 50.28 636.37 43.49 637.12 35.00 640.00
C 36.34 634.15 32.63 626.01 36.00 622.00
C 39.91 615.74 57.40 618.64 64.67 619.33 C 71.94 620.02 89.92 616.30 91.00 626.00
M 407.00 638.00 
C 410.47 644.65 404.70 648.46 398.92 651.92 C 393.15 655.39 389.64 661.49 383.00 663.00
C 381.36 653.79 383.05 642.32 375.00 636.00
C 374.84 635.74 371.87 635.80 373.00 634.00
C 380.72 632.12 384.08 623.94 392.08 622.08 C 400.07 620.21 403.57 633.27 407.00 638.00
M 345.00 636.00 
C 341.30 630.72 335.56 637.50 331.00 638.00
C 333.05 634.54 337.00 632.42 339.00 629.00
C 341.96 629.96 345.92 632.21 345.00 636.00
M 153.00 637.00 
C 151.26 639.52 146.03 636.15 145.00 640.00
C 151.62 638.96 153.38 644.09 155.00 650.00
C 149.49 649.59 141.23 651.20 141.00 658.00
C 137.88 655.72 135.42 652.70 132.00 651.00
C 139.39 647.72 145.90 627.33 153.00 637.00
M 306.00 635.00 
C 309.64 641.57 298.53 636.21 306.00 635.00
M 319.00 643.00 
C 321.08 644.69 315.59 648.30 317.00 652.00 C 318.42 655.70 315.94 662.06 317.00 666.00
C 310.21 660.37 302.27 660.24 298.00 669.00
C 286.31 667.96 291.82 653.10 297.00 648.00
C 300.93 643.21 313.17 638.27 319.00 643.00
M 137.00 661.00 
C 130.15 659.40 123.16 664.83 117.75 662.24 C 112.35 659.66 107.22 656.84 105.00 651.00
C 116.93 645.25 130.71 648.43 137.00 661.00
M 102.00 652.00 
C 103.42 654.76 106.65 656.27 108.00 659.00
C 104.05 659.50 98.71 657.59 96.00 661.00
C 101.66 662.75 109.47 658.62 115.00 663.00
C 108.12 673.90 96.02 665.64 89.00 659.00
C 90.19 653.25 97.59 653.60 102.00 652.00 Z"/>
</g>
<g fill="None" fill-opacity="0.0" stroke="#111111" stroke-opacity="1.00" stroke-width="0.3"><path d="
M 126.00 576.00 
C 135.74 577.32 126.00 567.10 126.00 576.00 Z"/>
</g>
<g fill="None" fill-opacity="0.0" stroke="#383838" stroke-opacity="1.00" stroke-width="0.3"><path d="
M 363.00 593.00 
C 364.21 591.85 366.96 594.81 369.00 595.00
C 361.99 596.73 365.30 604.95 369.75 609.25 C 374.20 613.55 374.68 621.70 374.00 628.00
C 376.29 625.32 378.02 625.03 376.00 629.00
C 382.69 628.49 386.88 618.52 393.78 618.78 C 400.67 619.05 407.75 623.22 415.00 618.00
L 415.00 591.00
C 404.50 590.34 392.67 592.33 383.00 590.00
C 393.17 587.71 404.42 589.64 415.00 589.00
L 415.00 588.00
C 400.08 589.13 383.92 585.56 372.00 591.00
C 374.97 584.67 360.87 582.84 362.00 589.00
C 358.70 588.90 355.94 585.13 353.00 585.00
C 351.46 584.96 349.84 585.90 349.00 587.00
C 355.68 584.27 358.80 590.51 363.00 593.00 Z"/>
</g>
<g fill="None" fill-opacity="0.0" stroke="#383838" stroke-opacity="1.00" stroke-width="0.3"><path d="
M 61.00 613.00 
C 56.08 606.80 64.05 587.69 48.00 591.00
C 50.10 588.92 54.15 590.50 57.00 590.00
C 53.13 587.94 46.27 588.91 42.00 590.00 C 37.73 591.09 30.11 587.37 29.00 593.00
C 21.61 592.35 13.34 588.41 7.00 594.00
C 8.89 601.13 7.92 610.08 8.00 617.00
C 16.12 616.49 30.50 617.68 38.00 617.00 C 45.50 616.32 59.12 619.53 61.00 613.00 Z"/>
</g>
<g fill="None" fill-opacity="0.0" stroke="#545454" stroke-opacity="1.00" stroke-width="0.3"><path d="
M 415.00 591.00 
L 415.00 589.00
C 404.42 589.64 393.17 587.71 383.00 590.00
C 392.67 592.33 404.50 590.34 415.00 591.00 Z"/>
</g>
<g fill="None" fill-opacity="0.0" stroke="#383838" stroke-opacity="1.00" stroke-width="0.3"><path d="
M 0.00 614.00 
C 1.87 614.20 3.06 612.38 5.00 613.00
C 3.38 605.67 9.16 592.98 0.00 590.00
L 0.00 614.00 Z"/>
</g>
<g fill="None" fill-opacity="0.0" stroke="#515151" stroke-opacity="1.00" stroke-width="0.3"><path d="
M 61.00 613.00 
C 62.58 607.53 62.75 592.69 57.00 590.00
C 54.15 590.50 50.10 588.92 48.00 591.00
C 64.05 587.69 56.08 606.80 61.00 613.00 Z"/>
</g>
<g fill="None" fill-opacity="0.0" stroke="#383838" stroke-opacity="1.00" stroke-width="0.3"><path d="
M 80.00 617.00 
C 80.87 617.26 75.04 612.78 72.67 613.33 C 70.31 613.88 64.85 611.09 64.00 609.00
C 64.89 619.12 71.28 617.00 80.00 617.00 Z"/>
</g>
<g fill="None" fill-opacity="0.0" stroke="#313131" stroke-opacity="1.00" stroke-width="0.3"><path d="
M 150.00 625.00 
C 151.89 623.84 152.17 621.14 152.00 619.00
C 156.62 620.22 159.20 616.60 162.00 614.00
C 157.64 617.02 151.91 620.11 147.00 616.00
C 149.56 619.08 150.71 620.79 150.00 625.00 Z"/>
</g>
<g fill="None" fill-opacity="0.0" stroke="#4D4D4D" stroke-opacity="1.00" stroke-width="0.3"><path d="
M 0.00 622.00 
C 7.32 623.36 15.79 620.19 23.00 622.00
C 27.20 622.17 27.32 628.54 32.00 628.00
C 34.17 611.27 10.14 622.04 0.00 619.00
L 0.00 622.00 Z"/>
</g>
<g fill="None" fill-opacity="0.0" stroke="#4F4F4F" stroke-opacity="1.00" stroke-width="0.3"><path d="
M 36.00 622.00 
C 35.42 622.93 34.86 623.82 35.00 625.00
C 43.00 620.72 53.67 621.68 63.00 622.00 C 72.33 622.32 83.79 619.38 91.00 626.00
C 89.92 616.30 71.94 620.02 64.67 619.33 C 57.40 618.64 39.91 615.74 36.00 622.00 Z"/>
</g>
<g fill="None" fill-opacity="0.0" stroke="#131313" stroke-opacity="1.00" stroke-width="0.3"><path d="
M 219.00 619.00 
C 212.76 615.96 204.34 625.33 210.33 629.67 C 216.32 634.00 225.48 622.16 219.00 619.00
M 211.00 626.00 
C 213.04 614.17 225.14 628.18 211.00 626.00 Z"/>
</g>
<g fill="None" fill-opacity="0.0" stroke="#444444" stroke-opacity="1.00" stroke-width="0.3"><path d="
M 211.00 626.00 
C 225.14 628.18 213.04 614.17 211.00 626.00 Z"/>
</g>
<g fill="None" fill-opacity="0.0" stroke="#353535" stroke-opacity="1.00" stroke-width="0.3"><path d="
M 0.00 647.00 
C 12.49 646.71 36.97 648.35 33.00 630.00
C 27.44 631.59 26.50 623.42 23.00 622.00
C 15.79 620.19 7.32 623.36 0.00 622.00
L 0.00 647.00 Z"/>
</g>
<g fill="None" fill-opacity="0.0" stroke="#353535" stroke-opacity="1.00" stroke-width="0.3"><path d="
M 91.00 626.00 
C 83.79 619.38 72.33 622.32 63.00 622.00 C 53.67 621.68 43.00 620.72 35.00 625.00
C 34.86 623.82 35.42 622.93 36.00 622.00
C 32.63 626.01 36.34 634.15 35.00 640.00
C 43.49 637.12 50.28 636.37 58.93 640.07 C 67.57 643.78 71.69 645.37 82.00 646.00 C 92.30 646.62 91.95 634.52 91.00 626.00 Z"/>
</g>
<g fill="None" fill-opacity="0.0" stroke="#505050" stroke-opacity="1.00" stroke-width="0.3"><path d="
M 375.00 636.00 
C 381.86 636.49 388.39 625.20 395.00 624.00
C 398.78 627.84 401.87 641.03 407.00 638.00
C 403.57 633.27 400.07 620.21 392.08 622.08 C 384.08 623.94 380.72 632.12 373.00 634.00
C 371.87 635.80 374.84 635.74 375.00 636.00 Z"/>
</g>
<g fill="None" fill-opacity="0.0" stroke="#353535" stroke-opacity="1.00" stroke-width="0.3"><path d="
M 375.00 636.00 
C 383.05 642.32 381.36 653.79 383.00 663.00
C 389.64 661.49 393.15 655.39 398.92 651.92 C 404.70 648.46 410.47 644.65 407.00 638.00
C 401.87 641.03 398.78 627.84 395.00 624.00
C 388.39 625.20 381.86 636.49 375.00 636.00 Z"/>
</g>
<g fill="None" fill-opacity="0.0" stroke="#393939" stroke-opacity="1.00" stroke-width="0.3"><path d="
M 415.00 640.00 
L 415.00 629.00
C 412.25 624.37 407.54 623.03 402.00 624.00
C 406.90 628.79 408.63 638.20 415.00 640.00 Z"/>
</g>
<g fill="None" fill-opacity="0.0" stroke="#4F4F4F" stroke-opacity="1.00" stroke-width="0.3"><path d="
M 345.00 636.00 
C 345.92 632.21 341.96 629.96 339.00 629.00
C 337.00 632.42 333.05 634.54 331.00 638.00
C 335.56 637.50 341.30 630.72 345.00 636.00 Z"/>
</g>
<g fill="None" fill-opacity="0.0" stroke="#333333" stroke-opacity="1.00" stroke-width="0.3"><path d="
M 153.00 637.00 
C 145.90 627.33 139.39 647.72 132.00 651.00
C 135.42 652.70 137.88 655.72 141.00 658.00
C 141.23 651.20 149.49 649.59 155.00 650.00
C 153.38 644.09 151.62 638.96 145.00 640.00
C 146.03 636.15 151.26 639.52 153.00 637.00 Z"/>
</g>
<g fill="None" fill-opacity="0.0" stroke="#4E4E4E" stroke-opacity="1.00" stroke-width="0.3"><path d="
M 306.00 635.00 
C 298.53 636.21 309.64 641.57 306.00 635.00 Z"/>
</g>
<g fill="None" fill-opacity="0.0" stroke="#535353" stroke-opacity="1.00" stroke-width="0.3"><path d="
M 322.00 646.00 
C 339.43 648.83 360.70 654.37 374.00 639.00
C 369.62 635.78 360.10 636.63 355.00 636.00 C 349.90 635.37 342.57 639.84 338.22 641.22 C 333.87 642.60 324.34 642.68 322.00 646.00 Z"/>
</g>
<g fill="None" fill-opacity="0.0" stroke="#2B2B2B" stroke-opacity="1.00" stroke-width="0.3"><path d="
M 322.00 646.00 
C 321.44 651.13 337.05 644.59 338.00 652.00
C 332.33 649.64 325.84 650.61 320.00 649.00
C 320.00 656.33 320.00 663.67 320.00 671.00
L 380.00 671.00
C 377.60 661.99 382.66 645.38 374.00 639.00
C 360.70 654.37 339.43 648.83 322.00 646.00 Z"/>
</g>
<g fill="None" fill-opacity="0.0" stroke="#545454" stroke-opacity="1.00" stroke-width="0.3"><path d="
M 19.00 657.00 
C 27.60 658.20 37.54 654.13 46.07 654.07 C 54.61 654.02 64.81 646.40 73.00 649.00
C 66.51 645.78 56.42 640.20 50.00 644.00
C 47.21 635.92 34.74 644.56 28.02 646.02 C 21.31 647.49 9.03 649.05 7.00 656.00
C 11.14 656.29 14.92 656.43 19.00 657.00 Z"/>
</g>
<g fill="None" fill-opacity="0.0" stroke="#343434" stroke-opacity="1.00" stroke-width="0.3"><path d="
M 244.00 671.00 
L 257.00 671.00
C 258.07 655.95 274.38 664.02 284.00 664.00
C 289.74 651.76 261.73 651.22 275.00 658.00
C 269.19 661.42 266.49 648.99 260.08 646.92 C 253.66 644.86 245.89 635.76 241.33 645.33 C 236.77 654.90 244.59 662.27 244.00 671.00 Z"/>
</g>
<g fill="None" fill-opacity="0.0" stroke="#515151" stroke-opacity="1.00" stroke-width="0.3"><path d="
M 297.00 648.00 
C 296.52 648.98 295.77 649.78 296.00 651.00
C 301.43 644.64 310.37 643.57 318.00 646.00
C 318.57 645.06 319.15 644.18 319.00 643.00
C 313.17 638.27 300.93 643.21 297.00 648.00 Z"/>
</g>
<g fill="None" fill-opacity="0.0" stroke="#3E3E3E" stroke-opacity="1.00" stroke-width="0.3"><path d="
M 415.00 650.00 
L 415.00 642.00
C 410.25 642.24 409.85 649.69 415.00 650.00 Z"/>
</g>
<g fill="None" fill-opacity="0.0" stroke="#323232" stroke-opacity="1.00" stroke-width="0.3"><path d="
M 297.00 648.00 
C 291.82 653.10 286.31 667.96 298.00 669.00
C 302.27 660.24 310.21 660.37 317.00 666.00
C 315.94 662.06 318.42 655.70 317.00 652.00 C 315.59 648.30 321.08 644.69 319.00 643.00
C 319.15 644.18 318.57 645.06 318.00 646.00
C 310.37 643.57 301.43 644.64 296.00 651.00
C 295.77 649.78 296.52 648.98 297.00 648.00 Z"/>
</g>
<g fill="None" fill-opacity="0.0" stroke="#545454" stroke-opacity="1.00" stroke-width="0.3"><path d="
M 137.00 661.00 
C 130.71 648.43 116.93 645.25 105.00 651.00
C 107.22 656.84 112.35 659.66 117.75 662.24 C 123.16 664.83 130.15 659.40 137.00 661.00 Z"/>
</g>
<g fill="None" fill-opacity="0.0" stroke="#2A2A2A" stroke-opacity="1.00" stroke-width="0.3"><path d="
M 19.00 657.00 
C 23.62 658.77 26.14 666.67 27.00 671.00
L 76.00 671.00
C 74.86 663.78 78.77 654.28 73.00 649.00
C 64.81 646.40 54.61 654.02 46.07 654.07 C 37.54 654.13 27.60 658.20 19.00 657.00 Z"/>
</g>
<g fill="None" fill-opacity="0.0" stroke="#4E4E4E" stroke-opacity="1.00" stroke-width="0.3"><path d="
M 0.00 654.00 
C 2.23 654.08 6.11 654.52 5.00 651.00
C 3.33 651.00 1.67 651.00 0.00 651.00
L 0.00 654.00 Z"/>
</g>
<g fill="None" fill-opacity="0.0" stroke="#545454" stroke-opacity="1.00" stroke-width="0.3"><path d="
M 102.00 652.00 
C 97.59 653.60 90.19 653.25 89.00 659.00
C 96.02 665.64 108.12 673.90 115.00 663.00
C 109.47 658.62 101.66 662.75 96.00 661.00
C 98.71 657.59 104.05 659.50 108.00 659.00
C 106.65 656.27 103.42 654.76 102.00 652.00 Z"/>
</g>
<g fill="None" fill-opacity="0.0" stroke="#353535" stroke-opacity="1.00" stroke-width="0.3"><path d="
M 149.00 653.00 
C 162.83 653.00 177.99 652.17 191.00 654.00
C 176.64 656.94 159.70 653.08 145.00 656.00
C 144.47 654.72 145.97 654.14 146.00 653.00
C 140.89 654.35 145.68 667.39 144.00 671.00
L 147.00 671.00
C 154.30 660.37 162.19 670.35 173.00 669.00 C 183.81 667.65 196.98 670.01 208.00 669.00
C 213.38 656.89 202.12 645.63 192.00 655.00
C 188.47 649.29 177.80 652.58 171.00 652.00 C 164.20 651.42 155.15 651.65 149.00 653.00 Z"/>
</g>
<g fill="None" fill-opacity="0.0" stroke="#515151" stroke-opacity="1.00" stroke-width="0.3"><path d="
M 149.00 653.00 
C 148.13 653.00 146.84 652.78 146.00 653.00
C 145.97 654.14 144.47 654.72 145.00 656.00
C 159.70 653.08 176.64 656.94 191.00 654.00
C 177.99 652.17 162.83 653.00 149.00 653.00 Z"/>
</g>
<g fill="None" fill-opacity="0.0" stroke="#373737" stroke-opacity="1.00" stroke-width="0.3"><path d="
M 218.00 671.00 
L 241.00 671.00
C 241.18 667.45 240.28 664.15 239.00 661.00
C 230.12 665.05 227.51 655.23 221.02 653.02 C 214.54 650.82 208.56 664.02 211.00 669.00
C 213.49 668.88 216.53 668.84 218.00 671.00 Z"/>
</g>
<g fill="None" fill-opacity="0.0" stroke="#414141" stroke-opacity="1.00" stroke-width="0.3"><path d="
M 260.00 671.00 
L 294.00 671.00
C 288.89 667.85 281.13 666.59 275.01 665.99 C 268.89 665.39 259.08 660.49 260.00 671.00 Z"/>
</g>
<g fill="None" fill-opacity="0.0" stroke="#4C4C4C" stroke-opacity="1.00" stroke-width="0.3"><path d="
M 301.00 671.00 
L 315.00 671.00
C 312.14 663.49 304.04 662.72 301.00 671.00 Z"/>
</g>
<g fill="None" fill-opacity="0.0" stroke="#4F4F4F" stroke-opacity="1.00" stroke-width="0.3"><path d="
M 153.00 671.00 
L 160.00 671.00
C 158.94 667.36 154.09 667.27 153.00 671.00 Z"/>
</g>
<g fill="None" fill-opacity="0.0" stroke="#4B4B4B" stroke-opacity="1.00" stroke-width="0.3"><path d="
M 410.00 671.00 
L 415.00 671.00
L 415.00 670.00
C 413.44 670.34 410.83 669.25 410.00 671.00 Z"/>
</g>
<g fill="#545454" fill-opacity="1.00" stroke="None"><path d="
M 0.00 547.00 
C 10.22 542.63 17.11 527.47 16.00 515.00
C 23.71 515.72 30.00 510.98 36.00 507.00
C 32.88 513.40 25.14 513.53 20.25 519.25 C 15.36 524.97 16.95 531.54 12.75 537.75 C 8.55 543.96 15.41 553.51 18.00 559.00
C 13.39 553.98 9.12 543.40 0.00 550.00
L 0.00 585.00
C 8.68 583.90 17.41 586.88 25.67 583.67 C 33.93 580.46 27.59 569.71 25.00 565.00
C 31.91 569.02 41.55 569.06 49.00 566.00
C 50.00 566.04 51.00 565.97 52.00 566.00
C 50.11 568.62 47.65 571.24 45.00 573.00
C 46.44 575.02 46.96 575.15 46.00 579.00
C 41.36 576.43 43.46 583.25 43.00 586.00
C 58.18 582.95 68.37 593.71 64.00 609.00
C 64.85 611.09 70.31 613.88 72.67 613.33 C 75.04 612.78 80.87 617.26 80.00 617.00
C 97.12 617.00 91.77 625.96 94.93 639.07 C 98.09 652.19 110.07 645.08 118.03 644.03 C 125.98 642.97 142.04 649.07 142.00 634.00
C 145.60 632.28 151.08 630.12 150.00 625.00
C 150.71 620.79 149.56 619.08 147.00 616.00
C 151.91 620.11 157.64 617.02 162.00 614.00
C 162.60 613.69 163.47 613.35 164.00 613.00
C 172.46 607.35 177.49 601.51 187.23 597.23 C 196.97 592.95 202.25 587.62 212.70 582.70 C 223.14 577.78 237.87 582.62 251.00 581.00 C 264.13 579.38 263.99 565.35 264.00 554.00
C 264.00 553.50 264.00 553.00 264.00 553.00
C 254.33 546.24 246.12 539.54 240.00 529.00
C 243.79 531.04 246.20 537.33 251.00 535.00
C 249.50 540.25 254.94 542.97 259.00 544.00
C 255.78 534.18 260.38 546.03 265.70 548.30 C 271.01 550.58 280.21 546.60 286.02 545.02 C 291.84 543.45 299.74 539.97 306.00 539.00
C 311.00 536.58 320.94 532.07 318.00 525.00
C 322.07 525.73 325.44 524.18 329.00 523.00
C 339.20 518.34 350.51 514.50 362.00 513.00
C 370.98 511.83 379.97 511.01 387.00 505.00
C 381.44 509.96 382.21 520.11 390.08 522.92 C 397.95 525.73 407.06 522.27 415.00 525.00
L 415.00 357.00
C 410.90 355.65 410.97 349.32 415.00 348.00
L 415.00 0.00
L 0.00 0.00
L 0.00 547.00 Z"/>
</g>
<g fill="#262626" fill-opacity="1.00" stroke="None"><path d="
M 415.00 357.00 
L 415.00 348.00
C 410.97 349.32 410.90 355.65 415.00 357.00 Z"/>
</g>
<g fill="#171717" fill-opacity="1.00" stroke="None"><path d="
M 383.00 467.00 
C 377.84 464.83 373.72 473.89 378.77 476.21 C 383.82 478.54 387.73 468.99 383.00 467.00 Z"/>
</g>
<g fill="#4E4E4E" fill-opacity="1.00" stroke="None"><path d="
M 379.00 474.00 
C 387.27 472.64 377.71 465.05 379.00 474.00 Z"/>
</g>
<g fill="#131313" fill-opacity="1.00" stroke="None"><path d="
M 362.00 513.00 
C 373.62 513.34 382.22 520.50 384.99 533.01 C 387.76 545.52 385.72 558.63 381.68 571.68 C 377.63 584.73 363.29 581.49 353.00 585.00
C 355.94 585.13 358.70 588.90 362.00 589.00
C 360.87 582.84 374.97 584.67 372.00 591.00
C 383.92 585.56 400.08 589.13 415.00 588.00
L 415.00 586.00
C 407.06 586.96 400.03 584.73 392.00 586.00 C 383.97 587.27 377.34 583.98 384.00 576.00
C 387.36 575.84 388.27 581.12 392.00 580.00
C 384.09 574.68 384.61 566.41 388.00 559.00
C 392.91 552.71 407.98 559.55 415.00 557.00
L 415.00 555.00
C 407.90 553.40 400.51 557.48 393.78 554.22 C 387.04 550.96 388.82 544.48 388.00 537.00 C 387.18 529.52 393.58 527.47 400.00 527.00 C 406.42 526.53 410.17 530.37 415.00 529.00
L 415.00 525.00
C 407.06 522.27 397.95 525.73 390.08 522.92 C 382.21 520.11 381.44 509.96 387.00 505.00
C 379.97 511.01 370.98 511.83 362.00 513.00 Z"/>
</g>
<g fill="#2D2D2D" fill-opacity="1.00" stroke="None"><path d="
M 0.00 547.00 
L 0.00 550.00
C 9.12 543.40 13.39 553.98 18.00 559.00
C 15.41 553.51 8.55 543.96 12.75 537.75 C 16.95 531.54 15.36 524.97 20.25 519.25 C 25.14 513.53 32.88 513.40 36.00 507.00
C 30.00 510.98 23.71 515.72 16.00 515.00
C 17.11 527.47 10.22 542.63 0.00 547.00 Z"/>
</g>
<g fill="#494949" fill-opacity="1.00" stroke="None"><path d="
M 329.00 523.00 
C 329.23 522.74 323.73 528.55 321.08 532.08 C 318.44 535.62 315.10 542.57 314.00 547.00
C 312.10 554.68 314.06 563.36 312.00 571.00
C 309.46 569.34 313.17 562.81 308.00 564.00
C 310.01 556.64 303.45 550.64 303.00 545.00
C 294.55 542.65 287.29 547.02 278.98 548.98 C 270.66 550.93 266.22 558.70 267.00 567.00 C 267.78 575.30 255.11 580.55 262.00 589.00
C 254.10 579.40 234.78 582.58 223.00 583.00 C 211.22 583.42 202.48 593.26 191.92 596.92 C 181.36 600.58 172.92 608.57 164.00 615.00
C 159.74 618.64 150.31 627.12 154.93 633.07 C 159.54 639.03 162.39 644.26 168.75 648.25 C 175.11 652.24 188.21 650.35 196.00 650.00 C 203.79 649.65 210.69 653.65 217.75 650.75 C 224.80 647.85 229.63 661.34 238.00 658.00
C 234.27 644.96 247.39 637.63 253.30 629.30 C 259.22 620.98 281.70 625.85 277.00 608.00
C 292.61 614.83 304.87 596.57 320.00 595.00
C 314.82 598.94 304.86 600.90 306.00 610.00
C 301.14 605.11 303.56 604.38 295.25 608.25 C 286.95 612.13 276.58 614.87 272.25 624.25 C 267.91 633.62 270.04 631.64 269.00 641.00
C 267.34 636.66 267.84 630.90 267.00 626.00
C 259.95 626.07 252.51 629.88 253.00 638.00
C 257.84 638.80 257.43 637.79 256.00 643.00
C 265.45 647.68 269.94 652.24 281.07 651.07 C 292.20 649.91 296.38 644.99 300.93 634.93 C 305.47 624.86 315.61 647.59 324.00 642.00
C 327.97 634.70 336.85 623.17 345.25 628.75 C 353.64 634.34 372.09 638.51 372.00 625.00 C 371.91 611.49 363.24 606.24 363.00 593.00
C 358.80 590.51 355.68 584.27 349.00 587.00
C 349.84 585.90 351.46 584.96 353.00 585.00
C 363.29 581.49 377.63 584.73 381.68 571.68 C 385.72 558.63 387.76 545.52 384.99 533.01 C 382.22 520.50 373.62 513.34 362.00 513.00
C 350.51 514.50 339.20 518.34 329.00 523.00 Z"/>
</g>
<g fill="#444444" fill-opacity="1.00" stroke="None"><path d="
M 382.00 518.00 
C 383.33 513.36 379.93 512.16 376.00 513.00
C 377.38 514.98 379.36 517.84 382.00 518.00 Z"/>
</g>
<g fill="#464646" fill-opacity="1.00" stroke="None"><path d="
M 389.00 527.00 
C 388.85 524.37 385.89 522.71 384.00 522.00
C 384.98 524.06 386.20 527.11 389.00 527.00 Z"/>
</g>
<g fill="#1D1D1D" fill-opacity="1.00" stroke="None"><path d="
M 306.00 539.00 
C 303.59 540.17 301.07 541.89 298.00 542.00
C 302.96 544.12 311.03 545.62 311.00 553.00
C 313.09 551.80 310.76 547.56 314.00 547.00
C 315.10 542.57 318.44 535.62 321.08 532.08 C 323.73 528.55 329.23 522.74 329.00 523.00
C 325.44 524.18 322.07 525.73 318.00 525.00
C 320.94 532.07 311.00 536.58 306.00 539.00 Z"/>
</g>
<g fill="#3C3C3C" fill-opacity="1.00" stroke="None"><path d="
M 415.00 555.00 
L 415.00 529.00
C 410.17 530.37 406.42 526.53 400.00 527.00 C 393.58 527.47 387.18 529.52 388.00 537.00 C 388.82 544.48 387.04 550.96 393.78 554.22 C 400.51 557.48 407.90 553.40 415.00 555.00 Z"/>
</g>
<g fill="#363636" fill-opacity="1.00" stroke="None"><path d="
M 264.00 553.00 
C 263.04 551.03 260.85 549.97 260.00 548.00
C 264.56 547.08 267.41 551.92 272.00 551.00
C 270.37 553.76 267.00 555.51 267.00 559.00
C 265.35 557.99 266.07 554.80 264.00 554.00
C 263.99 565.35 264.13 579.38 251.00 581.00 C 237.87 582.62 223.14 577.78 212.70 582.70 C 202.25 587.62 196.97 592.95 187.23 597.23 C 177.49 601.51 172.46 607.35 164.00 613.00
C 164.07 612.83 164.54 614.21 164.00 615.00
C 172.92 608.57 181.36 600.58 191.92 596.92 C 202.48 593.26 211.22 583.42 223.00 583.00 C 234.78 582.58 254.10 579.40 262.00 589.00
C 255.11 580.55 267.78 575.30 267.00 567.00 C 266.22 558.70 270.66 550.93 278.98 548.98 C 287.29 547.02 294.55 542.65 303.00 545.00
C 303.45 550.64 310.01 556.64 308.00 564.00
C 313.17 562.81 309.46 569.34 312.00 571.00
C 314.06 563.36 312.10 554.68 314.00 547.00
C 310.76 547.56 313.09 551.80 311.00 553.00
C 311.03 545.62 302.96 544.12 298.00 542.00
C 301.07 541.89 303.59 540.17 306.00 539.00
C 299.74 539.97 291.84 543.45 286.02 545.02 C 280.21 546.60 271.01 550.58 265.70 548.30 C 260.38 546.03 255.78 534.18 259.00 544.00
C 254.94 542.97 249.50 540.25 251.00 535.00
C 246.20 537.33 243.79 531.04 240.00 529.00
C 246.12 539.54 254.33 546.24 264.00 553.00 Z"/>
</g>
<g fill="#171717" fill-opacity="1.00" stroke="None"><path d="
M 264.00 553.00 
C 264.00 553.00 264.00 553.50 264.00 554.00
C 266.07 554.80 265.35 557.99 267.00 559.00
C 267.00 555.51 270.37 553.76 272.00 551.00
C 267.41 551.92 264.56 547.08 260.00 548.00
C 260.85 549.97 263.04 551.03 264.00 553.00 Z"/>
</g>
<g fill="#545454" fill-opacity="1.00" stroke="None"><path d="
M 388.00 559.00 
C 387.44 559.94 395.38 558.82 399.00 559.00 C 402.62 559.18 410.95 558.87 415.00 559.00
L 415.00 557.00
C 407.98 559.55 392.91 552.71 388.00 559.00 Z"/>
</g>
<g fill="#383838" fill-opacity="1.00" stroke="None"><path d="
M 415.00 586.00 
L 415.00 559.00
C 410.95 558.87 402.62 559.18 399.00 559.00 C 395.38 558.82 387.44 559.94 388.00 559.00
C 384.61 566.41 384.09 574.68 392.00 580.00
C 388.27 581.12 387.36 575.84 384.00 576.00
C 377.34 583.98 383.97 587.27 392.00 586.00 C 400.03 584.73 407.06 586.96 415.00 586.00 Z"/>
</g>
<g fill="#3B3B3B" fill-opacity="1.00" stroke="None"><path d="
M 0.00 585.00 
L 0.00 588.00
C 10.66 586.90 23.33 590.95 32.00 584.00
C 30.81 580.15 30.92 575.95 30.00 572.00
C 36.80 575.15 44.65 571.11 49.00 566.00
C 41.55 569.06 31.91 569.02 25.00 565.00
C 27.59 569.71 33.93 580.46 25.67 583.67 C 17.41 586.88 8.68 583.90 0.00 585.00 Z"/>
</g>
<g fill="#131313" fill-opacity="1.00" stroke="None"><path d="
M 0.00 588.00 
L 0.00 590.00
C 9.16 592.98 3.38 605.67 5.00 613.00
C 3.06 612.38 1.87 614.20 0.00 614.00
L 0.00 619.00
C 10.14 622.04 34.17 611.27 32.00 628.00
C 27.32 628.54 27.20 622.17 23.00 622.00
C 26.50 623.42 27.44 631.59 33.00 630.00
C 36.97 648.35 12.49 646.71 0.00 647.00
L 0.00 651.00
C 1.67 651.00 3.33 651.00 5.00 651.00
C 6.11 654.52 2.23 654.08 0.00 654.00
L 0.00 671.00
L 27.00 671.00
C 26.14 666.67 23.62 658.77 19.00 657.00
C 14.92 656.43 11.14 656.29 7.00 656.00
C 9.03 649.05 21.31 647.49 28.02 646.02 C 34.74 644.56 47.21 635.92 50.00 644.00
C 56.42 640.20 66.51 645.78 73.00 649.00
C 78.77 654.28 74.86 663.78 76.00 671.00
L 144.00 671.00
C 145.68 667.39 140.89 654.35 146.00 653.00
C 146.84 652.78 148.13 653.00 149.00 653.00
C 155.15 651.65 164.20 651.42 171.00 652.00 C 177.80 652.58 188.47 649.29 192.00 655.00
C 202.12 645.63 213.38 656.89 208.00 669.00
C 196.98 670.01 183.81 667.65 173.00 669.00 C 162.19 670.35 154.30 660.37 147.00 671.00
L 153.00 671.00
C 154.09 667.27 158.94 667.36 160.00 671.00
L 218.00 671.00
C 216.53 668.84 213.49 668.88 211.00 669.00
C 208.56 664.02 214.54 650.82 221.02 653.02 C 227.51 655.23 230.12 665.05 239.00 661.00
C 240.28 664.15 241.18 667.45 241.00 671.00
L 244.00 671.00
C 244.59 662.27 236.77 654.90 241.33 645.33 C 245.89 635.76 253.66 644.86 260.08 646.92 C 266.49 648.99 269.19 661.42 275.00 658.00
C 261.73 651.22 289.74 651.76 284.00 664.00
C 274.38 664.02 258.07 655.95 257.00 671.00
L 260.00 671.00
C 259.08 660.49 268.89 665.39 275.01 665.99 C 281.13 666.59 288.89 667.85 294.00 671.00
L 301.00 671.00
C 304.04 662.72 312.14 663.49 315.00 671.00
L 320.00 671.00
C 320.00 663.67 320.00 656.33 320.00 649.00
C 325.84 650.61 332.33 649.64 338.00 652.00
C 337.05 644.59 321.44 651.13 322.00 646.00
C 324.34 642.68 333.87 642.60 338.22 641.22 C 342.57 639.84 349.90 635.37 355.00 636.00 C 360.10 636.63 369.62 635.78 374.00 639.00
C 382.66 645.38 377.60 661.99 380.00 671.00
L 410.00 671.00
C 410.83 669.25 413.44 670.34 415.00 670.00
L 415.00 650.00
C 409.85 649.69 410.25 642.24 415.00 642.00
L 415.00 640.00
C 408.63 638.20 406.90 628.79 402.00 624.00
C 407.54 623.03 412.25 624.37 415.00 629.00
L 415.00 618.00
C 407.75 623.22 400.67 619.05 393.78 618.78 C 386.88 618.52 382.69 628.49 376.00 629.00
C 378.02 625.03 376.29 625.32 374.00 628.00
C 374.68 621.70 374.20 613.55 369.75 609.25 C 365.30 604.95 361.99 596.73 369.00 595.00
C 366.96 594.81 364.21 591.85 363.00 593.00
C 363.24 606.24 371.91 611.49 372.00 625.00 C 372.09 638.51 353.64 634.34 345.25 628.75 C 336.85 623.17 327.97 634.70 324.00 642.00
C 315.61 647.59 305.47 624.86 300.93 634.93 C 296.38 644.99 292.20 649.91 281.07 651.07 C 269.94 652.24 265.45 647.68 256.00 643.00
C 257.43 637.79 257.84 638.80 253.00 638.00
C 252.51 629.88 259.95 626.07 267.00 626.00
C 267.84 630.90 267.34 636.66 269.00 641.00
C 270.04 631.64 267.91 633.62 272.25 624.25 C 276.58 614.87 286.95 612.13 295.25 608.25 C 303.56 604.38 301.14 605.11 306.00 610.00
C 304.86 600.90 314.82 598.94 320.00 595.00
C 304.87 596.57 292.61 614.83 277.00 608.00
C 281.70 625.85 259.22 620.98 253.30 629.30 C 247.39 637.63 234.27 644.96 238.00 658.00
C 229.63 661.34 224.80 647.85 217.75 650.75 C 210.69 653.65 203.79 649.65 196.00 650.00 C 188.21 650.35 175.11 652.24 168.75 648.25 C 162.39 644.26 159.54 639.03 154.93 633.07 C 150.31 627.12 159.74 618.64 164.00 615.00
C 164.54 614.21 164.07 612.83 164.00 613.00
C 163.47 613.35 162.60 613.69 162.00 614.00
C 159.20 616.60 156.62 620.22 152.00 619.00
C 152.17 621.14 151.89 623.84 150.00 625.00
C 151.08 630.12 145.60 632.28 142.00 634.00
C 142.04 649.07 125.98 642.97 118.03 644.03 C 110.07 645.08 98.09 652.19 94.93 639.07 C 91.77 625.96 97.12 617.00 80.00 617.00
C 71.28 617.00 64.89 619.12 64.00 609.00
C 68.37 593.71 58.18 582.95 43.00 586.00
C 43.46 583.25 41.36 576.43 46.00 579.00
C 46.96 575.15 46.44 575.02 45.00 573.00
C 47.65 571.24 50.11 568.62 52.00 566.00
C 51.00 565.97 50.00 566.04 49.00 566.00
C 44.65 571.11 36.80 575.15 30.00 572.00
C 30.92 575.95 30.81 580.15 32.00 584.00
C 23.33 590.95 10.66 586.90 0.00 588.00 Z"/>
</g>
<g fill="#111111" fill-opacity="1.00" stroke="None"><path d="
M 126.00 576.00 
C 135.74 577.32 126.00 567.10 126.00 576.00 Z"/>
</g>
<g fill="#383838" fill-opacity="1.00" stroke="None"><path d="
M 363.00 593.00 
C 364.21 591.85 366.96 594.81 369.00 595.00
C 361.99 596.73 365.30 604.95 369.75 609.25 C 374.20 613.55 374.68 621.70 374.00 628.00
C 376.29 625.32 378.02 625.03 376.00 629.00
C 382.69 628.49 386.88 618.52 393.78 618.78 C 400.67 619.05 407.75 623.22 415.00 618.00
L 415.00 591.00
C 404.50 590.34 392.67 592.33 383.00 590.00
C 393.17 587.71 404.42 589.64 415.00 589.00
L 415.00 588.00
C 400.08 589.13 383.92 585.56 372.00 591.00
C 374.97 584.67 360.87 582.84 362.00 589.00
C 358.70 588.90 355.94 585.13 353.00 585.00
C 351.46 584.96 349.84 585.90 349.00 587.00
C 355.68 584.27 358.80 590.51 363.00 593.00 Z"/>
</g>
<g fill="#383838" fill-opacity="1.00" stroke="None"><path d="
M 61.00 613.00 
C 56.08 606.80 64.05 587.69 48.00 591.00
C 50.10 588.92 54.15 590.50 57.00 590.00
C 53.13 587.94 46.27 588.91 42.00 590.00 C 37.73 591.09 30.11 587.37 29.00 593.00
C 21.61 592.35 13.34 588.41 7.00 594.00
C 8.89 601.13 7.92 610.08 8.00 617.00
C 16.12 616.49 30.50 617.68 38.00 617.00 C 45.50 616.32 59.12 619.53 61.00 613.00 Z"/>
</g>
<g fill="#545454" fill-opacity="1.00" stroke="None"><path d="
M 415.00 591.00 
L 415.00 589.00
C 404.42 589.64 393.17 587.71 383.00 590.00
C 392.67 592.33 404.50 590.34 415.00 591.00 Z"/>
</g>
<g fill="#383838" fill-opacity="1.00" stroke="None"><path d="
M 0.00 614.00 
C 1.87 614.20 3.06 612.38 5.00 613.00
C 3.38 605.67 9.16 592.98 0.00 590.00
L 0.00 614.00 Z"/>
</g>
<g fill="#515151" fill-opacity="1.00" stroke="None"><path d="
M 61.00 613.00 
C 62.58 607.53 62.75 592.69 57.00 590.00
C 54.15 590.50 50.10 588.92 48.00 591.00
C 64.05 587.69 56.08 606.80 61.00 613.00 Z"/>
</g>
<g fill="#383838" fill-opacity="1.00" stroke="None"><path d="
M 80.00 617.00 
C 80.87 617.26 75.04 612.78 72.67 613.33 C 70.31 613.88 64.85 611.09 64.00 609.00
C 64.89 619.12 71.28 617.00 80.00 617.00 Z"/>
</g>
<g fill="#313131" fill-opacity="1.00" stroke="None"><path d="
M 150.00 625.00 
C 151.89 623.84 152.17 621.14 152.00 619.00
C 156.62 620.22 159.20 616.60 162.00 614.00
C 157.64 617.02 151.91 620.11 147.00 616.00
C 149.56 619.08 150.71 620.79 150.00 625.00 Z"/>
</g>
<g fill="#4D4D4D" fill-opacity="1.00" stroke="None"><path d="
M 0.00 622.00 
C 7.32 623.36 15.79 620.19 23.00 622.00
C 27.20 622.17 27.32 628.54 32.00 628.00
C 34.17 611.27 10.14 622.04 0.00 619.00
L 0.00 622.00 Z"/>
</g>
<g fill="#4F4F4F" fill-opacity="1.00" stroke="None"><path d="
M 36.00 622.00 
C 35.42 622.93 34.86 623.82 35.00 625.00
C 43.00 620.72 53.67 621.68 63.00 622.00 C 72.33 622.32 83.79 619.38 91.00 626.00
C 89.92 616.30 71.94 620.02 64.67 619.33 C 57.40 618.64 39.91 615.74 36.00 622.00 Z"/>
</g>
<g fill="#131313" fill-opacity="1.00" stroke="None"><path d="
M 219.00 619.00 
C 212.76 615.96 204.34 625.33 210.33 629.67 C 216.32 634.00 225.48 622.16 219.00 619.00 Z"/>
</g>
<g fill="#444444" fill-opacity="1.00" stroke="None"><path d="
M 211.00 626.00 
C 225.14 628.18 213.04 614.17 211.00 626.00 Z"/>
</g>
<g fill="#353535" fill-opacity="1.00" stroke="None"><path d="
M 0.00 647.00 
C 12.49 646.71 36.97 648.35 33.00 630.00
C 27.44 631.59 26.50 623.42 23.00 622.00
C 15.79 620.19 7.32 623.36 0.00 622.00
L 0.00 647.00 Z"/>
</g>
<g fill="#353535" fill-opacity="1.00" stroke="None"><path d="
M 91.00 626.00 
C 83.79 619.38 72.33 622.32 63.00 622.00 C 53.67 621.68 43.00 620.72 35.00 625.00
C 34.86 623.82 35.42 622.93 36.00 622.00
C 32.63 626.01 36.34 634.15 35.00 640.00
C 43.49 637.12 50.28 636.37 58.93 640.07 C 67.57 643.78 71.69 645.37 82.00 646.00 C 92.30 646.62 91.95 634.52 91.00 626.00 Z"/>
</g>
<g fill="#505050" fill-opacity="1.00" stroke="None"><path d="
M 375.00 636.00 
C 381.86 636.49 388.39 625.20 395.00 624.00
C 398.78 627.84 401.87 641.03 407.00 638.00
C 403.57 633.27 400.07 620.21 392.08 622.08 C 384.08 623.94 380.72 632.12 373.00 634.00
C 371.87 635.80 374.84 635.74 375.00 636.00 Z"/>
</g>
<g fill="#353535" fill-opacity="1.00" stroke="None"><path d="
M 375.00 636.00 
C 383.05 642.32 381.36 653.79 383.00 663.00
C 389.64 661.49 393.15 655.39 398.92 651.92 C 404.70 648.46 410.47 644.65 407.00 638.00
C 401.87 641.03 398.78 627.84 395.00 624.00
C 388.39 625.20 381.86 636.49 375.00 636.00 Z"/>
</g>
<g fill="#393939" fill-opacity="1.00" stroke="None"><path d="
M 415.00 640.00 
L 415.00 629.00
C 412.25 624.37 407.54 623.03 402.00 624.00
C 406.90 628.79 408.63 638.20 415.00 640.00 Z"/>
</g>
<g fill="#4F4F4F" fill-opacity="1.00" stroke="None"><path d="
M 345.00 636.00 
C 345.92 632.21 341.96 629.96 339.00 629.00
C 337.00 632.42 333.05 634.54 331.00 638.00
C 335.56 637.50 341.30 630.72 345.00 636.00 Z"/>
</g>
<g fill="#333333" fill-opacity="1.00" stroke="None"><path d="
M 153.00 637.00 
C 145.90 627.33 139.39 647.72 132.00 651.00
C 135.42 652.70 137.88 655.72 141.00 658.00
C 141.23 651.20 149.49 649.59 155.00 650.00
C 153.38 644.09 151.62 638.96 145.00 640.00
C 146.03 636.15 151.26 639.52 153.00 637.00 Z"/>
</g>
<g fill="#4E4E4E" fill-opacity="1.00" stroke="None"><path d="
M 306.00 635.00 
C 298.53 636.21 309.64 641.57 306.00 635.00 Z"/>
</g>
<g fill="#535353" fill-opacity="1.00" stroke="None"><path d="
M 322.00 646.00 
C 339.43 648.83 360.70 654.37 374.00 639.00
C 369.62 635.78 360.10 636.63 355.00 636.00 C 349.90 635.37 342.57 639.84 338.22 641.22 C 333.87 642.60 324.34 642.68 322.00 646.00 Z"/>
</g>
<g fill="#2B2B2B" fill-opacity="1.00" stroke="None"><path d="
M 322.00 646.00 
C 321.44 651.13 337.05 644.59 338.00 652.00
C 332.33 649.64 325.84 650.61 320.00 649.00
C 320.00 656.33 320.00 663.67 320.00 671.00
L 380.00 671.00
C 377.60 661.99 382.66 645.38 374.00 639.00
C 360.70 654.37 339.43 648.83 322.00 646.00 Z"/>
</g>
<g fill="#545454" fill-opacity="1.00" stroke="None"><path d="
M 19.00 657.00 
C 27.60 658.20 37.54 654.13 46.07 654.07 C 54.61 654.02 64.81 646.40 73.00 649.00
C 66.51 645.78 56.42 640.20 50.00 644.00
C 47.21 635.92 34.74 644.56 28.02 646.02 C 21.31 647.49 9.03 649.05 7.00 656.00
C 11.14 656.29 14.92 656.43 19.00 657.00 Z"/>
</g>
<g fill="#343434" fill-opacity="1.00" stroke="None"><path d="
M 244.00 671.00 
L 257.00 671.00
C 258.07 655.95 274.38 664.02 284.00 664.00
C 289.74 651.76 261.73 651.22 275.00 658.00
C 269.19 661.42 266.49 648.99 260.08 646.92 C 253.66 644.86 245.89 635.76 241.33 645.33 C 236.77 654.90 244.59 662.27 244.00 671.00 Z"/>
</g>
<g fill="#515151" fill-opacity="1.00" stroke="None"><path d="
M 297.00 648.00 
C 296.52 648.98 295.77 649.78 296.00 651.00
C 301.43 644.64 310.37 643.57 318.00 646.00
C 318.57 645.06 319.15 644.18 319.00 643.00
C 313.17 638.27 300.93 643.21 297.00 648.00 Z"/>
</g>
<g fill="#3E3E3E" fill-opacity="1.00" stroke="None"><path d="
M 415.00 650.00 
L 415.00 642.00
C 410.25 642.24 409.85 649.69 415.00 650.00 Z"/>
</g>
<g fill="#323232" fill-opacity="1.00" stroke="None"><path d="
M 297.00 648.00 
C 291.82 653.10 286.31 667.96 298.00 669.00
C 302.27 660.24 310.21 660.37 317.00 666.00
C 315.94 662.06 318.42 655.70 317.00 652.00 C 315.59 648.30 321.08 644.69 319.00 643.00
C 319.15 644.18 318.57 645.06 318.00 646.00
C 310.37 643.57 301.43 644.64 296.00 651.00
C 295.77 649.78 296.52 648.98 297.00 648.00 Z"/>
</g>
<g fill="#545454" fill-opacity="1.00" stroke="None"><path d="
M 137.00 661.00 
C 130.71 648.43 116.93 645.25 105.00 651.00
C 107.22 656.84 112.35 659.66 117.75 662.24 C 123.16 664.83 130.15 659.40 137.00 661.00 Z"/>
</g>
<g fill="#2A2A2A" fill-opacity="1.00" stroke="None"><path d="
M 19.00 657.00 
C 23.62 658.77 26.14 666.67 27.00 671.00
L 76.00 671.00
C 74.86 663.78 78.77 654.28 73.00 649.00
C 64.81 646.40 54.61 654.02 46.07 654.07 C 37.54 654.13 27.60 658.20 19.00 657.00 Z"/>
</g>
<g fill="#4E4E4E" fill-opacity="1.00" stroke="None"><path d="
M 0.00 654.00 
C 2.23 654.08 6.11 654.52 5.00 651.00
C 3.33 651.00 1.67 651.00 0.00 651.00
L 0.00 654.00 Z"/>
</g>
<g fill="#545454" fill-opacity="1.00" stroke="None"><path d="
M 102.00 652.00 
C 97.59 653.60 90.19 653.25 89.00 659.00
C 96.02 665.64 108.12 673.90 115.00 663.00
C 109.47 658.62 101.66 662.75 96.00 661.00
C 98.71 657.59 104.05 659.50 108.00 659.00
C 106.65 656.27 103.42 654.76 102.00 652.00 Z"/>
</g>
<g fill="#353535" fill-opacity="1.00" stroke="None"><path d="
M 149.00 653.00 
C 162.83 653.00 177.99 652.17 191.00 654.00
C 176.64 656.94 159.70 653.08 145.00 656.00
C 144.47 654.72 145.97 654.14 146.00 653.00
C 140.89 654.35 145.68 667.39 144.00 671.00
L 147.00 671.00
C 154.30 660.37 162.19 670.35 173.00 669.00 C 183.81 667.65 196.98 670.01 208.00 669.00
C 213.38 656.89 202.12 645.63 192.00 655.00
C 188.47 649.29 177.80 652.58 171.00 652.00 C 164.20 651.42 155.15 651.65 149.00 653.00 Z"/>
</g>
<g fill="#515151" fill-opacity="1.00" stroke="None"><path d="
M 149.00 653.00 
C 148.13 653.00 146.84 652.78 146.00 653.00
C 145.97 654.14 144.47 654.72 145.00 656.00
C 159.70 653.08 176.64 656.94 191.00 654.00
C 177.99 652.17 162.83 653.00 149.00 653.00 Z"/>
</g>
<g fill="#373737" fill-opacity="1.00" stroke="None"><path d="
M 218.00 671.00 
L 241.00 671.00
C 241.18 667.45 240.28 664.15 239.00 661.00
C 230.12 665.05 227.51 655.23 221.02 653.02 C 214.54 650.82 208.56 664.02 211.00 669.00
C 213.49 668.88 216.53 668.84 218.00 671.00 Z"/>
</g>
<g fill="#414141" fill-opacity="1.00" stroke="None"><path d="
M 260.00 671.00 
L 294.00 671.00
C 288.89 667.85 281.13 666.59 275.01 665.99 C 268.89 665.39 259.08 660.49 260.00 671.00 Z"/>
</g>
<g fill="#4C4C4C" fill-opacity="1.00" stroke="None"><path d="
M 301.00 671.00 
L 315.00 671.00
C 312.14 663.49 304.04 662.72 301.00 671.00 Z"/>
</g>
<g fill="#4F4F4F" fill-opacity="1.00" stroke="None"><path d="
M 153.00 671.00 
L 160.00 671.00
C 158.94 667.36 154.09 667.27 153.00 671.00 Z"/>
</g>
<g fill="#4B4B4B" fill-opacity="1.00" stroke="None"><path d="
M 410.00 671.00 
L 415.00 671.00
L 415.00 670.00
C 413.44 670.34 410.83 669.25 410.00 671.00 Z"/>
</g>
</svg>