<svg width="26" height="26" viewBox="0 0 26 26" fill="none" xmlns="http://www.w3.org/2000/svg">
<g clip-path="url(#clip0_1318_12174)">
<path d="M21.0173 16.2497C20.8731 16.5764 20.8301 16.9389 20.8938 17.2903C20.9575 17.6417 21.1251 17.966 21.3748 18.2213L21.4398 18.2863C21.6413 18.4876 21.8011 18.7265 21.9101 18.9896C22.0192 19.2526 22.0753 19.5345 22.0753 19.8193C22.0753 20.104 22.0192 20.3859 21.9101 20.649C21.8011 20.912 21.6413 21.1509 21.4398 21.3522C21.2386 21.5536 20.9996 21.7134 20.7366 21.8225C20.4736 21.9315 20.1916 21.9876 19.9069 21.9876C19.6222 21.9876 19.3402 21.9315 19.0772 21.8225C18.8142 21.7134 18.5752 21.5536 18.374 21.3522L18.309 21.2872C18.0537 21.0374 17.7294 20.8699 17.378 20.8062C17.0265 20.7424 16.6641 20.7855 16.3373 20.9297C16.0169 21.067 15.7436 21.295 15.5512 21.5857C15.3587 21.8763 15.2554 22.2169 15.254 22.5655V22.7497C15.254 23.3243 15.0257 23.8754 14.6194 24.2817C14.2131 24.6881 13.662 24.9163 13.0873 24.9163C12.5127 24.9163 11.9616 24.6881 11.5553 24.2817C11.1489 23.8754 10.9207 23.3243 10.9207 22.7497V22.6522C10.9123 22.2936 10.7962 21.9458 10.5875 21.6541C10.3789 21.3624 10.0873 21.1401 9.75065 21.0163C9.4239 20.8721 9.06144 20.8291 8.71001 20.8928C8.35859 20.9566 8.0343 21.1241 7.77898 21.3738L7.71398 21.4388C7.51276 21.6403 7.2738 21.8001 7.01077 21.9091C6.74774 22.0182 6.4658 22.0743 6.18107 22.0743C5.89633 22.0743 5.61439 22.0182 5.35136 21.9091C5.08833 21.8001 4.84938 21.6403 4.64815 21.4388C4.4467 21.2376 4.28689 20.9987 4.17786 20.7356C4.06882 20.4726 4.0127 20.1907 4.0127 19.9059C4.0127 19.6212 4.06882 19.3393 4.17786 19.0762C4.28689 18.8132 4.4467 18.5742 4.64815 18.373L4.71315 18.308C4.9629 18.0527 5.13044 17.7284 5.19416 17.377C5.25788 17.0256 5.21486 16.6631 5.07065 16.3363C4.93332 16.0159 4.7053 15.7427 4.41466 15.5502C4.12401 15.3577 3.78342 15.2544 3.43482 15.253H3.25065C2.67602 15.253 2.12492 15.0247 1.71859 14.6184C1.31226 14.2121 1.08398 13.661 1.08398 13.0863C1.08398 12.5117 1.31226 11.9606 1.71859 11.5543C2.12492 11.1479 2.67602 10.9197 3.25065 10.9197H3.34815C3.70673 10.9113 4.05449 10.7952 4.34623 10.5866C4.63796 10.3779 4.86018 10.0863 4.98398 9.74967C5.12819 9.42292 5.17121 9.06047 5.10749 8.70904C5.04377 8.35761 4.87623 8.03333 4.62648 7.77801L4.56148 7.71301C4.36004 7.51178 4.20022 7.27282 4.09119 7.0098C3.98215 6.74677 3.92603 6.46482 3.92603 6.18009C3.92603 5.89536 3.98215 5.61342 4.09119 5.35039C4.20022 5.08736 4.36004 4.8484 4.56148 4.64717C4.76271 4.44573 5.00167 4.28591 5.2647 4.17688C5.52773 4.06784 5.80967 4.01172 6.0944 4.01172C6.37913 4.01172 6.66108 4.06784 6.92411 4.17688C7.18713 4.28591 7.42609 4.44573 7.62732 4.64717L7.69232 4.71217C7.94764 4.96192 8.27192 5.12946 8.62335 5.19318C8.97477 5.2569 9.33723 5.21388 9.66398 5.06967H9.75065C10.0711 4.93235 10.3443 4.70433 10.5368 4.41368C10.7293 4.12303 10.8326 3.78244 10.834 3.43384V3.24967C10.834 2.67504 11.0623 2.12394 11.4686 1.71761C11.8749 1.31128 12.426 1.08301 13.0007 1.08301C13.5753 1.08301 14.1264 1.31128 14.5327 1.71761C14.939 2.12394 15.1673 2.67504 15.1673 3.24967V3.34717C15.1687 3.69578 15.272 4.03636 15.4645 4.32701C15.657 4.61766 15.9302 4.84568 16.2507 4.98301C16.5774 5.12722 16.9399 5.17023 17.2913 5.10651C17.6427 5.04279 17.967 4.87526 18.2223 4.62551L18.2873 4.56051C18.4885 4.35906 18.7275 4.19925 18.9905 4.09021C19.2536 3.98118 19.5355 3.92505 19.8202 3.92505C20.105 3.92505 20.3869 3.98118 20.6499 4.09021C20.913 4.19925 21.1519 4.35906 21.3532 4.56051C21.5546 4.76173 21.7144 5.00069 21.8234 5.26372C21.9325 5.52675 21.9886 5.80869 21.9886 6.09342C21.9886 6.37816 21.9325 6.6601 21.8234 6.92313C21.7144 7.18616 21.5546 7.42512 21.3532 7.62634L21.2882 7.69134C21.0384 7.94666 20.8709 8.27094 20.8071 8.62237C20.7434 8.9738 20.7864 9.33626 20.9307 9.66301V9.74967C21.068 10.0701 21.296 10.3434 21.5866 10.5358C21.8773 10.7283 22.2179 10.8316 22.5665 10.833H22.7507C23.3253 10.833 23.8764 11.0613 24.2827 11.4676C24.689 11.8739 24.9173 12.425 24.9173 12.9997C24.9173 13.5743 24.689 14.1254 24.2827 14.5317C23.8764 14.9381 23.3253 15.1663 22.7507 15.1663H22.6532C22.3045 15.1677 21.964 15.271 21.6733 15.4635C21.3827 15.656 21.1546 15.9293 21.0173 16.2497V16.2497Z" stroke="black" stroke-width="1.93" stroke-linecap="round" stroke-linejoin="round"/>
<path d="M13 16.25C14.7949 16.25 16.25 14.7949 16.25 13C16.25 11.2051 14.7949 9.75 13 9.75C11.2051 9.75 9.75 11.2051 9.75 13C9.75 14.7949 11.2051 16.25 13 16.25Z" fill="white" stroke="black" stroke-width="1.93" stroke-linecap="round" stroke-linejoin="round"/>
</g>
<defs>
<clipPath id="clip0_1318_12174">
<rect width="26" height="26" fill="white"/>
</clipPath>
</defs>
</svg>
