<svg width="40" height="40" viewBox="0 0 40 40" fill="none" xmlns="http://www.w3.org/2000/svg">
<g clip-path="url(#clip0_1205_11691)">
<path d="M20 25C22.7614 25 25 22.7614 25 20C25 17.2386 22.7614 15 20 15C17.2386 15 15 17.2386 15 20C15 22.7614 17.2386 25 20 25Z" stroke="black" stroke-width="3.33333" stroke-linecap="round" stroke-linejoin="round"/>
<path d="M32.3332 24.9998C32.1113 25.5025 32.0451 26.0602 32.1432 26.6008C32.2412 27.1415 32.4989 27.6404 32.8832 28.0332L32.9832 28.1332C33.2931 28.4427 33.539 28.8104 33.7067 29.215C33.8745 29.6197 33.9608 30.0535 33.9608 30.4915C33.9608 30.9296 33.8745 31.3633 33.7067 31.768C33.539 32.1726 33.2931 32.5403 32.9832 32.8498C32.6736 33.1598 32.306 33.4056 31.9013 33.5734C31.4966 33.7411 31.0629 33.8275 30.6248 33.8275C30.1868 33.8275 29.753 33.7411 29.3484 33.5734C28.9437 33.4056 28.5761 33.1598 28.2665 32.8498L28.1665 32.7498C27.7737 32.3656 27.2748 32.1079 26.7342 32.0098C26.1935 31.9118 25.6359 31.978 25.1332 32.1998C24.6402 32.4111 24.2198 32.7619 23.9237 33.2091C23.6276 33.6562 23.4686 34.1802 23.4665 34.7165V34.9998C23.4665 35.8839 23.1153 36.7317 22.4902 37.3569C21.8651 37.982 21.0172 38.3332 20.1332 38.3332C19.2491 38.3332 18.4013 37.982 17.7761 37.3569C17.151 36.7317 16.7998 35.8839 16.7998 34.9998V34.8498C16.7869 34.2982 16.6084 33.7632 16.2874 33.3143C15.9663 32.8655 15.5177 32.5236 14.9998 32.3332C14.4971 32.1113 13.9395 32.0451 13.3989 32.1432C12.8582 32.2412 12.3593 32.4989 11.9665 32.8832L11.8665 32.9832C11.5569 33.2931 11.1893 33.539 10.7846 33.7067C10.38 33.8745 9.94622 33.9608 9.50817 33.9608C9.07012 33.9608 8.63636 33.8745 8.2317 33.7067C7.82704 33.539 7.45941 33.2931 7.14984 32.9832C6.83992 32.6736 6.59405 32.306 6.4263 31.9013C6.25856 31.4966 6.17222 31.0629 6.17222 30.6248C6.17222 30.1868 6.25856 29.753 6.4263 29.3484C6.59405 28.9437 6.83992 28.5761 7.14984 28.2665L7.24984 28.1665C7.63407 27.7737 7.89181 27.2748 7.98984 26.7342C8.08788 26.1935 8.0217 25.6359 7.79984 25.1332C7.58857 24.6402 7.23776 24.2198 6.79061 23.9237C6.34346 23.6276 5.81948 23.4686 5.28317 23.4665H4.99984C4.11578 23.4665 3.26794 23.1153 2.64281 22.4902C2.01769 21.8651 1.6665 21.0172 1.6665 20.1332C1.6665 19.2491 2.01769 18.4013 2.64281 17.7761C3.26794 17.151 4.11578 16.7998 4.99984 16.7998H5.14984C5.70149 16.7869 6.23651 16.6084 6.68534 16.2874C7.13416 15.9663 7.47603 15.5177 7.6665 14.9998C7.88836 14.4971 7.95454 13.9395 7.85651 13.3989C7.75848 12.8582 7.50073 12.3593 7.1165 11.9665L7.0165 11.8665C6.70658 11.5569 6.46072 11.1893 6.29297 10.7846C6.12522 10.38 6.03888 9.94622 6.03888 9.50817C6.03888 9.07012 6.12522 8.63636 6.29297 8.2317C6.46072 7.82704 6.70658 7.45941 7.0165 7.14984C7.32608 6.83992 7.69371 6.59405 8.09837 6.4263C8.50303 6.25856 8.93679 6.17222 9.37484 6.17222C9.81289 6.17222 10.2466 6.25856 10.6513 6.4263C11.056 6.59405 11.4236 6.83992 11.7332 7.14984L11.8332 7.24984C12.226 7.63407 12.7249 7.89181 13.2655 7.98984C13.8062 8.08788 14.3638 8.0217 14.8665 7.79984H14.9998C15.4928 7.58857 15.9132 7.23776 16.2093 6.79061C16.5055 6.34346 16.6644 5.81948 16.6665 5.28317V4.99984C16.6665 4.11578 17.0177 3.26794 17.6428 2.64281C18.2679 2.01769 19.1158 1.6665 19.9998 1.6665C20.8839 1.6665 21.7317 2.01769 22.3569 2.64281C22.982 3.26794 23.3332 4.11578 23.3332 4.99984V5.14984C23.3353 5.68615 23.4942 6.21013 23.7904 6.65728C24.0865 7.10443 24.5069 7.45523 24.9998 7.6665C25.5025 7.88836 26.0602 7.95454 26.6008 7.85651C27.1415 7.75848 27.6404 7.50073 28.0332 7.1165L28.1332 7.0165C28.4427 6.70658 28.8104 6.46072 29.215 6.29297C29.6197 6.12522 30.0535 6.03888 30.4915 6.03888C30.9296 6.03888 31.3633 6.12522 31.768 6.29297C32.1726 6.46072 32.5403 6.70658 32.8498 7.0165C33.1598 7.32608 33.4056 7.69371 33.5734 8.09837C33.7411 8.50303 33.8275 8.93679 33.8275 9.37484C33.8275 9.81289 33.7411 10.2466 33.5734 10.6513C33.4056 11.056 33.1598 11.4236 32.8498 11.7332L32.7498 11.8332C32.3656 12.226 32.1079 12.7249 32.0098 13.2655C31.9118 13.8062 31.978 14.3638 32.1998 14.8665V14.9998C32.4111 15.4928 32.7619 15.9132 33.2091 16.2093C33.6562 16.5055 34.1802 16.6644 34.7165 16.6665H34.9998C35.8839 16.6665 36.7317 17.0177 37.3569 17.6428C37.982 18.2679 38.3332 19.1158 38.3332 19.9998C38.3332 20.8839 37.982 21.7317 37.3569 22.3569C36.7317 22.982 35.8839 23.3332 34.9998 23.3332H34.8498C34.3135 23.3353 33.7895 23.4942 33.3424 23.7904C32.8952 24.0865 32.5444 24.5069 32.3332 24.9998V24.9998Z" stroke="black" stroke-width="3.33333" stroke-linecap="round" stroke-linejoin="round"/>
</g>
<defs>
<clipPath id="clip0_1205_11691">
<rect width="40" height="40" fill="white"/>
</clipPath>
</defs>
</svg>
