<svg width="26" height="26" viewBox="0 0 26 26" fill="none" xmlns="http://www.w3.org/2000/svg">
<g clip-path="url(#clip0_1330_11762)">
<path d="M13.0904 25.88C12.2504 25.88 11.4704 25.55 10.8704 24.96C10.2804 24.37 9.95035 23.58 9.95035 22.75C9.95035 22.51 9.89035 22.35 9.80035 22.22C9.70035 22.08 9.57035 21.98 9.42035 21.93C9.21035 21.84 9.05035 21.82 8.88035 21.85C8.72035 21.88 8.57035 21.96 8.45035 22.07C8.10035 22.42 7.76035 22.65 7.38035 22.81C6.62035 23.13 5.74035 23.13 4.98035 22.81C4.60035 22.65 4.26035 22.42 3.96035 22.13C3.66035 21.84 3.44035 21.5 3.28035 21.12C3.12035 20.74 3.04035 20.33 3.04035 19.92C3.04035 19.51 3.12035 19.1 3.28035 18.72C3.44035 18.34 3.67035 18 3.96035 17.7C4.13035 17.52 4.21035 17.38 4.24035 17.21C4.27035 17.05 4.24035 16.88 4.18035 16.73C4.11035 16.57 4.01035 16.45 3.87035 16.36C3.74035 16.27 3.58035 16.23 3.42035 16.22H3.24035C2.40035 16.22 1.62035 15.89 1.03035 15.3C0.440352 14.71 0.110352 13.92 0.110352 13.09C0.110352 12.26 0.440352 11.47 1.03035 10.88C1.62035 10.29 2.41035 9.96004 3.24035 9.96004C3.48035 9.96004 3.64035 9.90004 3.77035 9.81004C3.91035 9.71004 4.01035 9.58004 4.06035 9.43004C4.15035 9.22004 4.17035 9.06004 4.14035 8.89004C4.11035 8.73004 4.03035 8.58004 3.92035 8.46004C3.57035 8.11004 3.34035 7.77004 3.18035 7.39004C3.02035 7.01004 2.94035 6.61004 2.94035 6.19004C2.94035 5.77004 3.02035 5.37004 3.18035 4.99004C3.34035 4.61004 3.57035 4.27004 3.86035 3.98004C4.15035 3.69004 4.49035 3.46004 4.88035 3.30004C5.65035 2.98004 6.51035 2.98004 7.28035 3.30004C7.66035 3.46004 8.01035 3.69004 8.30035 3.98004C8.48035 4.15004 8.62035 4.23004 8.79035 4.26004C8.95035 4.29004 9.12035 4.26004 9.27035 4.20004C9.34035 4.17004 9.41035 4.15004 9.48035 4.13004C9.58035 4.07004 9.66035 3.99004 9.72035 3.89004C9.81035 3.76004 9.86035 3.60004 9.86035 3.44004V3.26004C9.86035 2.42004 10.1904 1.64004 10.7804 1.05004C11.9604 -0.129961 14.0204 -0.129961 15.2104 1.05004C15.8004 1.64004 16.1304 2.43004 16.1304 3.26004C16.1304 3.51004 16.1804 3.67004 16.2704 3.81004C16.3604 3.94004 16.4804 4.05004 16.6304 4.11004C16.7904 4.18004 16.9604 4.20004 17.1204 4.17004C17.2804 4.14004 17.4304 4.06004 17.5504 3.95004C17.9004 3.60004 18.2404 3.37004 18.6204 3.21004C19.3804 2.89004 20.2604 2.89004 21.0204 3.21004C21.4004 3.37004 21.7404 3.60004 22.0404 3.89004C22.3404 4.18004 22.5604 4.53004 22.7204 4.91004C22.8804 5.29004 22.9604 5.69004 22.9604 6.11004C22.9604 6.53004 22.8804 6.93004 22.7204 7.31004C22.5604 7.69004 22.3304 8.03004 22.0404 8.33004C21.8704 8.51004 21.7904 8.65004 21.7604 8.82004C21.7304 8.98004 21.7604 9.15004 21.8204 9.30004C21.8504 9.37004 21.8704 9.44004 21.8904 9.51004C21.9504 9.61004 22.0304 9.69004 22.1304 9.75004C22.2604 9.84004 22.4204 9.89004 22.5804 9.89004H22.7604C23.6004 9.89004 24.3804 10.22 24.9704 10.81C25.5604 11.4 25.8904 12.19 25.8904 13.02C25.8904 13.85 25.5604 14.64 24.9704 15.24C24.3804 15.83 23.5904 16.16 22.7604 16.16C22.5104 16.16 22.3504 16.21 22.2104 16.3C22.0804 16.39 21.9704 16.51 21.9104 16.66C21.8404 16.82 21.8204 16.99 21.8504 17.15C21.8804 17.31 21.9604 17.46 22.0704 17.58C22.4204 17.93 22.6504 18.27 22.8104 18.65C22.9704 19.03 23.0504 19.44 23.0504 19.85C23.0504 20.26 22.9704 20.67 22.8104 21.05C22.6504 21.43 22.4204 21.78 22.1304 22.07C21.8404 22.36 21.4904 22.59 21.1104 22.75C20.3604 23.07 19.4704 23.07 18.7104 22.75C18.3304 22.59 17.9904 22.37 17.7004 22.07C17.5304 21.9 17.3804 21.82 17.2104 21.79C17.0504 21.76 16.8804 21.79 16.7304 21.85C16.5704 21.92 16.4504 22.02 16.3604 22.16C16.2704 22.3 16.2204 22.45 16.2204 22.61V22.79C16.2204 23.63 15.8904 24.41 15.3004 25C14.7104 25.59 13.9204 25.92 13.0904 25.92V25.88ZM9.03035 19.9C9.41035 19.9 9.79035 19.98 10.1404 20.14C10.6004 20.31 11.0504 20.65 11.3704 21.1C11.6904 21.55 11.8704 22.08 11.8804 22.64V22.76C11.8804 23.08 12.0004 23.38 12.2304 23.61C12.6804 24.07 13.4804 24.06 13.9304 23.61C14.1604 23.38 14.2804 23.08 14.2804 22.76V22.58C14.2804 22.04 14.4404 21.51 14.7404 21.07C15.0304 20.62 15.4504 20.27 15.9504 20.06C16.4504 19.84 17.0004 19.77 17.5504 19.87C18.0904 19.97 18.5904 20.22 18.9804 20.61L19.0504 20.68C19.1604 20.79 19.2904 20.88 19.4404 20.94C19.7304 21.06 20.0704 21.06 20.3604 20.94C20.5104 20.88 20.6404 20.79 20.7504 20.68C20.8604 20.57 20.9504 20.44 21.0104 20.29C21.0704 20.15 21.1004 19.99 21.1004 19.83C21.1004 19.67 21.0704 19.52 21.0104 19.37C20.9504 19.22 20.8604 19.09 20.7504 18.98L20.6804 18.91C20.2904 18.51 20.0404 18.02 19.9404 17.48C19.8404 16.94 19.9104 16.39 20.1304 15.88C20.3404 15.39 20.6904 14.97 21.1404 14.67C21.5904 14.37 22.1104 14.21 22.6504 14.21H22.7504C23.0704 14.21 23.3704 14.09 23.6004 13.86C23.8304 13.63 23.9504 13.33 23.9504 13.01C23.9504 12.69 23.8304 12.39 23.6004 12.16C23.3704 11.93 23.0704 11.81 22.7504 11.81H22.5704C22.0304 11.81 21.5004 11.65 21.0604 11.35C20.6104 11.05 20.2604 10.64 20.0504 10.14C20.0104 10.05 19.9904 9.97004 19.9804 9.87004C19.8204 9.42004 19.7804 8.93004 19.8604 8.46004C19.9604 7.91004 20.2204 7.42004 20.6004 7.03004C20.6004 7.03004 20.6704 6.96004 20.6804 6.96004C20.7904 6.85004 20.8804 6.72004 20.9404 6.57004C21.0004 6.42004 21.0304 6.27004 21.0304 6.11004C21.0304 5.95004 21.0004 5.80004 20.9404 5.65004C20.8804 5.50004 20.7904 5.37004 20.6804 5.26004C20.5704 5.15004 20.4404 5.06004 20.2904 5.00004C20.0004 4.88004 19.6604 4.88004 19.3704 5.00004C19.2204 5.06004 19.0904 5.15004 18.9804 5.26004L18.9104 5.33004C18.5104 5.72004 18.0204 5.97004 17.4804 6.07004C16.9404 6.17004 16.3804 6.10004 15.8804 5.88004C15.4004 5.67004 14.9804 5.32004 14.6804 4.87004C14.3804 4.42004 14.2204 3.90004 14.2204 3.36004V3.26004C14.2204 2.94004 14.1004 2.64004 13.8704 2.41004C13.4104 1.95004 12.6304 1.95004 12.1704 2.41004C11.9404 2.64004 11.8204 2.94004 11.8204 3.26004V3.44004C11.8204 3.98004 11.6604 4.50004 11.3604 4.95004C11.0604 5.40004 10.6404 5.75004 10.1504 5.96004C10.0604 6.00004 9.97035 6.02004 9.88035 6.03004C9.43035 6.19004 8.94035 6.23004 8.47035 6.14004C7.93035 6.04004 7.43035 5.79004 7.04035 5.40004C7.04035 5.40004 6.97035 5.33004 6.96035 5.32004C6.85035 5.21004 6.72035 5.12004 6.57035 5.06004C6.28035 4.94004 5.94035 4.94004 5.65035 5.06004C5.50035 5.12004 5.37035 5.21004 5.26035 5.32004C5.15035 5.43004 5.06035 5.56004 5.00035 5.71004C4.94035 5.86004 4.91035 6.01004 4.91035 6.17004C4.91035 6.33004 4.94035 6.48004 5.00035 6.63004C5.06035 6.78004 5.15035 6.91004 5.26035 7.02004L5.33035 7.09004C5.72035 7.49004 5.97035 7.98004 6.07035 8.53004C6.17035 9.07004 6.10035 9.63004 5.88035 10.13C5.71035 10.59 5.37035 11.04 4.92035 11.36C4.47035 11.68 3.94035 11.86 3.38035 11.87H3.26035C2.94035 11.87 2.64035 11.99 2.41035 12.22C2.19035 12.44 2.06035 12.75 2.06035 13.07C2.06035 13.39 2.18035 13.69 2.41035 13.92C2.64035 14.15 2.94035 14.27 3.26035 14.27H3.44035C3.98035 14.27 4.50035 14.43 4.95035 14.73C5.40035 15.03 5.75035 15.45 5.96035 15.94C6.18035 16.44 6.24035 16.99 6.15035 17.53C6.05035 18.07 5.79035 18.57 5.41035 18.96L5.34035 19.03C5.23035 19.14 5.14035 19.27 5.08035 19.42C5.02035 19.56 4.99035 19.72 4.99035 19.88C4.99035 20.04 5.02035 20.19 5.08035 20.34C5.14035 20.49 5.23035 20.62 5.34035 20.73C5.45035 20.84 5.58035 20.93 5.73035 20.99C6.02035 21.11 6.36035 21.11 6.65035 20.99C6.80035 20.93 6.93035 20.84 7.04035 20.73L7.11035 20.66C7.50035 20.27 8.00035 20.02 8.54035 19.92C8.70035 19.89 8.87035 19.88 9.03035 19.88V19.9Z" fill="black"/>
<path d="M13 17.21C10.68 17.21 8.79004 15.32 8.79004 13C8.79004 10.68 10.68 8.79004 13 8.79004C15.32 8.79004 17.21 10.68 17.21 13C17.21 15.32 15.32 17.21 13 17.21ZM13 10.71C11.74 10.71 10.71 11.74 10.71 13C10.71 14.26 11.74 15.29 13 15.29C14.26 15.29 15.29 14.26 15.29 13C15.29 11.74 14.26 10.71 13 10.71Z" fill="black"/>
</g>
<defs>
<clipPath id="clip0_1330_11762">
<rect width="26" height="26" fill="white"/>
</clipPath>
</defs>
</svg>
