<svg width="110" height="64" viewBox="0 0 110 64" fill="none" xmlns="http://www.w3.org/2000/svg">
<g clip-path="url(#clip0_87_3666)">
<path d="M34.8382 41.8929L23.5371 26.0974L34.1719 11.2835C34.7703 10.4517 34.8446 9.37124 34.3692 8.46928C33.8937 7.56413 32.9557 7.00319 31.9207 7.00319H26.6292C25.7106 7.00319 24.8567 7.45258 24.3425 8.20474L16.2628 20.0482V9.71545C16.2628 8.21749 15.0273 7 13.5071 7H8.7525C7.23555 7 6 8.21749 6 9.71545V43.4578C6 44.9558 7.23555 46.1733 8.75573 46.1733H13.5103C15.0305 46.1733 16.2661 44.9558 16.2661 43.4578V32.6215L25.0799 45.0163C25.5942 45.7398 26.4384 46.1733 27.3375 46.1733H32.5903C33.622 46.1733 34.56 45.6123 35.0355 44.7072C35.5109 43.802 35.4365 42.7248 34.8414 41.8929H34.8382Z" fill="#7B61FF"/>
<path d="M65.5426 47.9166H53.3876V20.5422C53.3876 19.0442 52.1521 17.8268 50.6319 17.8268H45.8773C44.3571 17.8268 43.1216 19.0442 43.1216 20.5422V54.2846C43.1216 55.7825 44.3571 57 45.8773 57H65.5426C67.0628 57 68.2984 55.7825 68.2984 54.2846V50.6353C68.2984 49.1373 67.0628 47.9198 65.5426 47.9198V47.9166Z" fill="#7B61FF"/>
<path d="M103.495 41.8929L92.1943 26.0974L102.826 11.2835C103.424 10.4517 103.499 9.37124 103.023 8.46928C102.548 7.56413 101.61 7.00319 100.575 7.00319H95.2832C94.3646 7.00319 93.5075 7.45258 92.9965 8.20474L84.9169 20.0482V9.71545C84.9169 8.21749 83.6813 7 82.1611 7H77.4065C75.8863 7 74.6508 8.21749 74.6508 9.71545V43.4578C74.6508 44.9558 75.8863 46.1733 77.4065 46.1733H82.1611C83.6813 46.1733 84.9169 44.9558 84.9169 43.4578V32.6215L93.7307 45.0163C94.245 45.7398 95.0891 46.1733 95.9883 46.1733H101.241C102.273 46.1733 103.211 45.6123 103.686 44.7072C104.162 43.8052 104.087 42.7248 103.492 41.8929H103.495Z" fill="#7B61FF"/>
</g>
<defs>
<clipPath id="clip0_87_3666">
<rect width="98" height="50" fill="white" transform="translate(6 7)"/>
</clipPath>
</defs>
</svg>
