<svg width="47" height="46" viewBox="0 0 47 46" fill="none" xmlns="http://www.w3.org/2000/svg">
<rect x="0.0273438" width="46" height="46" fill="#3562FF"/>
<g clip-path="url(#clip0_64_11754)">
<path d="M35.579 25.3929C35.579 32.3241 29.9603 37.9428 23.0292 37.9428C16.098 37.9428 10.4785 32.3241 10.4785 25.3929C10.4785 18.4618 19.4303 8.4502 23.0283 8.4502C26.2911 8.4502 35.5782 18.4618 35.5782 25.3929H35.579Z" fill="black" stroke="black" stroke-width="0.899512" stroke-miterlimit="10"/>
<path d="M20.1031 22.4954C20.4902 22.4954 20.8039 22.1816 20.8039 21.7946C20.8039 21.4075 20.4902 21.0938 20.1031 21.0938C19.7161 21.0938 19.4023 21.4075 19.4023 21.7946C19.4023 22.1816 19.7161 22.4954 20.1031 22.4954Z" fill="white"/>
<path d="M25.5621 22.4954C25.9492 22.4954 26.2629 22.1816 26.2629 21.7946C26.2629 21.4075 25.9492 21.0938 25.5621 21.0938C25.1751 21.0938 24.8613 21.4075 24.8613 21.7946C24.8613 22.1816 25.1751 22.4954 25.5621 22.4954Z" fill="white"/>
<path d="M29.5273 24C29.8035 24 30.0273 23.7761 30.0273 23.5C30.0273 23.2239 29.8035 23 29.5273 23C29.2512 23 29.0273 23.2239 29.0273 23.5C29.0273 23.7761 29.2512 24 29.5273 24Z" fill="white"/>
<path d="M19.7657 19.3552C19.2779 19.493 18.8205 19.7248 18.4228 20.0387C17.9296 20.4274 18.4777 21.2423 18.9745 20.8502C19.3118 20.5843 19.6681 20.4015 20.0823 20.285C20.6913 20.1132 20.3715 19.1846 19.7657 19.3552Z" fill="white"/>
<path d="M27.2869 20.1724C26.8333 19.8477 26.3448 19.624 25.8009 19.4991C25.1853 19.3576 25.0181 20.3247 25.6336 20.4662C26.0012 20.5504 26.3484 20.7031 26.6543 20.9225C26.87 21.0766 27.1649 21.0782 27.3457 20.8637C27.5065 20.6731 27.5038 20.3274 27.2869 20.1724Z" fill="white"/>
<g clip-path="url(#clip1_64_11754)">
<path d="M22.8624 23.0646C22.3947 23.1275 21.854 23.2847 21.501 23.6164C21.1479 23.9481 21.0435 24.5223 21.0282 24.9717C20.9907 26.185 22.1381 26.536 23.1566 26.531C24.1751 26.5259 25.2027 25.8076 25.0009 24.6745C24.8142 23.6154 23.8444 22.8738 22.7914 23.0179C22.4627 23.0625 22.2902 23.4795 22.3663 23.7666C22.4596 24.1186 22.7914 24.2363 23.115 24.1916C23.4386 24.147 23.9073 24.7151 23.8119 25.0154C23.6912 25.3998 23.0754 25.3248 22.7792 25.2893C22.6554 25.274 22.348 25.273 22.2628 25.1675C22.1837 25.0681 22.273 24.8145 22.2933 24.708C22.3663 24.3215 22.838 24.286 23.187 24.2393C23.5157 24.1947 23.6881 23.7777 23.6121 23.4906C23.5187 23.1366 23.187 23.0209 22.8624 23.0646Z" fill="white"/>
</g>
</g>
<defs>
<clipPath id="clip0_64_11754">
<rect width="26" height="30.3921" fill="white" transform="translate(10.0273 8)"/>
</clipPath>
<clipPath id="clip1_64_11754">
<rect width="4" height="3.53132" fill="white" transform="translate(21.0273 23)"/>
</clipPath>
</defs>
</svg>
