<svg width="26" height="26" viewBox="0 0 26 26" fill="none" xmlns="http://www.w3.org/2000/svg">
<g clip-path="url(#clip0_253_12365)">
<path d="M21.5456 14.3444C21.5456 19.0641 17.7196 22.8901 12.9999 22.8901C8.28011 22.8901 4.45358 19.064 4.45358 14.3444C4.45358 12.0472 5.97719 9.06588 7.95866 6.58192C8.933 5.36049 9.97778 4.3109 10.9224 3.57574C11.395 3.20797 11.8272 2.93086 12.2 2.7491C12.5835 2.56204 12.8472 2.504 12.9993 2.504C13.1068 2.504 13.3398 2.55303 13.7142 2.743C14.0729 2.92501 14.497 3.20322 14.9663 3.57271C15.9037 4.31083 16.9589 5.36375 17.9501 6.58705C18.9405 7.80946 19.8483 9.17907 20.5048 10.542C21.166 11.9143 21.5456 13.2245 21.5456 14.3444Z" stroke="#242424" stroke-width="1.73333" stroke-miterlimit="10"/>
<path d="M10.9255 13.1845C11.2158 13.1845 11.4511 12.9492 11.4511 12.6589C11.4511 12.3686 11.2158 12.1333 10.9255 12.1333C10.6352 12.1333 10.3999 12.3686 10.3999 12.6589C10.3999 12.9492 10.6352 13.1845 10.9255 13.1845Z" fill="#242424" stroke="#242424" stroke-width="0.866667"/>
<path d="M15.0202 13.1846C15.3105 13.1846 15.5458 12.9493 15.5458 12.659C15.5458 12.3687 15.3105 12.1334 15.0202 12.1334C14.7299 12.1334 14.4946 12.3687 14.4946 12.659C14.4946 12.9493 14.7299 13.1846 15.0202 13.1846Z" fill="#242424" stroke="#242424" stroke-width="0.866667"/>
<path d="M11.2734 15.4407C11.4206 16.1944 12.075 16.6235 12.9164 16.6439C13.358 16.655 13.789 16.6048 14.1239 16.3287C14.4587 16.0525 14.5874 15.6999 14.7133 15.3426C14.8658 14.9111 14.098 14.7266 13.9462 15.1563C13.8712 15.3683 13.8016 15.6018 13.6299 15.7723C13.4403 15.9608 13.1797 15.9497 12.9158 15.9433C12.4045 15.9311 12.1274 15.701 12.0399 15.2544C11.9523 14.8078 11.1872 14.9987 11.2734 15.4407Z" fill="#242424" stroke="#242424" stroke-width="0.866667"/>
</g>
<defs>
<clipPath id="clip0_253_12365">
<rect width="19.5" height="22.7941" fill="white" transform="translate(3.25 1.30005)"/>
</clipPath>
</defs>
</svg>
