<svg width="11" height="19" viewBox="0 0 11 19" fill="none" xmlns="http://www.w3.org/2000/svg">
<path d="M0 9.32422C0 9.59277 0.0966797 9.8291 0.300781 10.0332L8.81934 18.3584C9.00195 18.5518 9.23828 18.6484 9.51758 18.6484C10.0762 18.6484 10.5059 18.2295 10.5059 17.6709C10.5059 17.3916 10.3877 17.1553 10.2158 16.9727L2.39551 9.32422L10.2158 1.67578C10.3877 1.49316 10.5059 1.24609 10.5059 0.977539C10.5059 0.418945 10.0762 0 9.51758 0C9.23828 0 9.00195 0.0966797 8.81934 0.279297L0.300781 8.61523C0.0966797 8.80859 0 9.05566 0 9.32422Z" fill="#007AFF"/>
</svg>
