<svg width="47" height="46" viewBox="0 0 47 46" fill="none" xmlns="http://www.w3.org/2000/svg">
<rect x="0.0273438" width="46" height="46" fill="#57FF9A"/>
<g clip-path="url(#clip0_18_11725)">
<path d="M35.6044 25.3929C35.6044 32.3241 29.9857 37.9428 23.0546 37.9428C16.1234 37.9428 10.5039 32.3241 10.5039 25.3929C10.5039 18.4618 19.4557 8.4502 23.0537 8.4502C26.3165 8.4502 35.6036 18.4618 35.6036 25.3929H35.6044Z" fill="black" stroke="black" stroke-width="0.899512" stroke-miterlimit="10"/>
<path d="M22.8061 22.4432C23.4374 22.4432 23.4382 21.4619 22.8061 21.4619C22.174 21.4619 22.174 22.4432 22.8061 22.4432Z" fill="black"/>
<path d="M26.1269 21.1842C25.7859 21.396 25.4596 21.6315 25.1538 21.8924C24.8978 22.1107 24.4906 22.3994 24.4039 22.7453C24.2208 23.4706 25.5504 23.9155 26.0002 24.2115C26.5292 24.559 27.0215 23.7102 26.4957 23.3643C26.288 23.2277 26.0713 23.1116 25.853 22.993C25.691 22.9047 25.3983 22.7927 25.301 22.6283V23.1239C25.4179 22.9031 25.7139 22.6987 25.8996 22.5441C26.1277 22.3544 26.3706 22.1892 26.6225 22.0322C27.1581 21.6994 26.6658 20.8506 26.1269 21.185V21.1842Z" fill="white"/>
<path d="M19.4454 24.2108C19.7864 23.999 20.1126 23.7635 20.4185 23.5026C20.6744 23.2843 21.0817 22.9956 21.1683 22.6497C21.3515 21.9244 20.0219 21.4795 19.5721 21.1835C19.043 20.836 18.5508 21.6848 19.0766 22.0307C19.2843 22.1673 19.501 22.2834 19.7193 22.4019C19.8812 22.4903 20.174 22.6023 20.2713 22.7667V22.2711C20.1544 22.4919 19.8583 22.6963 19.6727 22.8509C19.4446 23.0406 19.2017 23.2058 18.9498 23.3628C18.4142 23.6956 18.9065 24.5444 19.4454 24.21V24.2108Z" fill="white"/>
<path d="M20.4935 25.2122C20.6751 26.2679 21.4822 26.8689 22.5199 26.8975C23.0645 26.9131 23.596 26.8427 24.009 26.4559C24.4219 26.0691 24.5806 25.5752 24.7359 25.0748C24.924 24.4705 23.9771 24.2121 23.7898 24.8139C23.6974 25.1108 23.6116 25.4379 23.3998 25.6766C23.1659 25.9408 22.8445 25.9252 22.5191 25.9162C21.8886 25.8991 21.5468 25.5769 21.4388 24.9513C21.3309 24.3257 20.3864 24.5931 20.4927 25.2122H20.4935Z" fill="white"/>
</g>
<defs>
<clipPath id="clip0_18_11725">
<rect width="26" height="30.3921" fill="white" transform="translate(10.0547 8)"/>
</clipPath>
</defs>
</svg>
