<svg width="76" height="89" viewBox="0 0 76 89" fill="none" xmlns="http://www.w3.org/2000/svg">
<g clip-path="url(#clip0_698_6534)">
<path d="M74.6871 50.8398C74.6871 71.1001 58.2632 87.524 38.0029 87.524C17.7426 87.524 1.31641 71.1001 1.31641 50.8398C1.31641 30.5795 27.4832 1.31494 38.0005 1.31494C47.5379 1.31494 74.6847 30.5795 74.6847 50.8398H74.6871Z" fill="black" stroke="white" stroke-width="2" stroke-miterlimit="10"/>
<path d="M29.5299 48.5155C30.6613 48.5155 31.5784 47.5983 31.5784 46.467C31.5784 45.3356 30.6613 44.4185 29.5299 44.4185C28.3986 44.4185 27.4814 45.3356 27.4814 46.467C27.4814 47.5983 28.3986 48.5155 29.5299 48.5155Z" fill="white"/>
<path d="M45.487 48.5155C46.6183 48.5155 47.5355 47.5983 47.5355 46.467C47.5355 45.3356 46.6183 44.4185 45.487 44.4185C44.3556 44.4185 43.4385 45.3356 43.4385 46.467C43.4385 47.5983 44.3556 48.5155 45.487 48.5155Z" fill="white"/>
<path d="M37.0905 48.662C37.3104 49.8093 37.5303 50.9591 37.7502 52.1064L38.0585 53.7127C38.1302 54.088 38.4792 54.9724 38.343 55.3357L39.0027 54.4776C39.335 54.4155 39.3469 54.3939 39.0314 54.4131C38.8043 54.4131 38.5748 54.4131 38.3478 54.4131C37.8912 54.4131 37.4371 54.4155 36.9805 54.4178C35.1352 54.425 35.1304 57.2934 36.9805 57.2862C38.7326 57.2814 41.5651 57.5994 41.2018 54.9748C40.8743 52.606 40.3078 50.2467 39.8561 47.8971C39.5095 46.0852 36.7439 46.8525 37.0905 48.6596V48.662Z" fill="white"/>
<path d="M28.2822 57.1388C28.6216 59.2973 29.6519 61.4247 31.2868 62.9019C33.1322 64.5703 35.3073 65.0054 37.7287 65.0699C40.1501 65.1344 42.55 64.9169 44.4957 63.2557C46.5251 61.5203 47.3999 58.8957 48.1624 56.4265C48.7098 54.6601 45.9418 53.9024 45.3969 55.664C44.8519 57.4257 44.2662 59.4742 42.8703 60.8582C41.4744 62.2422 39.598 62.2517 37.7287 62.2015C35.9599 62.1537 34.3727 61.941 33.0676 60.6383C31.9059 59.479 31.2988 57.9778 31.0478 56.3763C30.7634 54.5573 27.9978 55.3294 28.2822 57.1388Z" fill="white"/>
</g>
<defs>
<clipPath id="clip0_698_6534">
<rect width="76" height="88.8384" fill="white"/>
</clipPath>
</defs>
</svg>
