<svg width="169" height="24" viewBox="0 0 169 24" fill="none" xmlns="http://www.w3.org/2000/svg">
<circle cx="36" cy="12" r="12" fill="black"/>
<path d="M3.92469 16.1406C1.9032 16.1406 0.696172 14.459 0.696172 11.7754V11.7637C0.696172 9.08008 1.9032 7.4043 3.92469 7.4043C5.94031 7.4043 7.1532 9.08008 7.1532 11.7637V11.7754C7.1532 14.459 5.94031 16.1406 3.92469 16.1406ZM3.92469 15.0449C5.12586 15.0449 5.82898 13.8027 5.82898 11.7754V11.7637C5.82898 9.73633 5.12586 8.50586 3.92469 8.50586C2.71766 8.50586 2.02039 9.73633 2.02039 11.7637V11.7754C2.02039 13.8027 2.71766 15.0449 3.92469 15.0449ZM10.13 16V8.8457H10.1007L7.89172 10.3691V9.12695L10.1183 7.54492H11.4132V16H10.13Z" fill="black"/>
<line x1="58" y1="11.5" x2="82" y2="11.5" stroke="black"/>
<path d="M32.0282 16.1465C29.8837 16.1465 28.5829 14.4648 28.5829 11.7754V11.7637C28.5829 9.07422 29.8837 7.39844 32.0282 7.39844C34.1727 7.39844 35.4735 9.07422 35.4735 11.7637V11.7754C35.4735 14.4648 34.1727 16.1465 32.0282 16.1465ZM32.0282 14.7285C33.0829 14.7285 33.6864 13.6328 33.6864 11.7754V11.7637C33.6864 9.90625 33.0829 8.81641 32.0282 8.81641C30.9735 8.81641 30.37 9.90625 30.37 11.7637V11.7754C30.37 13.6328 30.9735 14.7285 32.0282 14.7285ZM36.2648 16V14.7871L39.253 11.9922C40.3429 10.9727 40.5714 10.5566 40.5714 9.9707V9.95898C40.5655 9.26758 40.0382 8.77539 39.2882 8.77539C38.421 8.77539 37.8351 9.34375 37.8116 10.1055L37.8058 10.1582H36.1652V10.1113C36.1652 8.51758 37.4894 7.39844 39.2765 7.39844C41.0636 7.39844 42.2941 8.41797 42.2941 9.85938V9.87109C42.2941 10.8965 41.8077 11.5645 40.3488 12.9062L38.5792 14.5234V14.5938H42.4113V16H36.2648Z" fill="white"/>
<path d="M99.9872 16.1406C97.9657 16.1406 96.7587 14.459 96.7587 11.7754V11.7637C96.7587 9.08008 97.9657 7.4043 99.9872 7.4043C102.003 7.4043 103.216 9.08008 103.216 11.7637V11.7754C103.216 14.459 102.003 16.1406 99.9872 16.1406ZM99.9872 15.0449C101.188 15.0449 101.891 13.8027 101.891 11.7754V11.7637C101.891 9.73633 101.188 8.50586 99.9872 8.50586C98.7802 8.50586 98.0829 9.73633 98.0829 11.7637V11.7754C98.0829 13.8027 98.7802 15.0449 99.9872 15.0449ZM107.101 16.1406C105.296 16.1406 104.118 15.1562 104.001 13.7793L103.995 13.7031H105.255L105.261 13.7676C105.343 14.5176 106.052 15.0449 107.101 15.0449C108.132 15.0449 108.829 14.4707 108.829 13.6504V13.6387C108.829 12.6836 108.138 12.1504 107.007 12.1504H105.982V11.1309H106.972C107.939 11.1309 108.595 10.5625 108.595 9.77734V9.76562C108.595 8.95117 108.044 8.47656 107.089 8.47656C106.151 8.47656 105.495 8.96875 105.413 9.75391L105.407 9.80664H104.177L104.183 9.74805C104.312 8.33594 105.437 7.4043 107.089 7.4043C108.771 7.4043 109.872 8.29492 109.872 9.5957V9.60742C109.872 10.6562 109.122 11.3594 108.091 11.5762V11.6055C109.333 11.7168 110.165 12.4668 110.165 13.6504V13.6621C110.165 15.1094 108.894 16.1406 107.101 16.1406Z" fill="black"/>
<path d="M128.899 16.1406C126.878 16.1406 125.671 14.459 125.671 11.7754V11.7637C125.671 9.08008 126.878 7.4043 128.899 7.4043C130.915 7.4043 132.128 9.08008 132.128 11.7637V11.7754C132.128 14.459 130.915 16.1406 128.899 16.1406ZM128.899 15.0449C130.1 15.0449 130.804 13.8027 130.804 11.7754V11.7637C130.804 9.73633 130.1 8.50586 128.899 8.50586C127.692 8.50586 126.995 9.73633 126.995 11.7637V11.7754C126.995 13.8027 127.692 15.0449 128.899 15.0449ZM137.079 16V14.3184H132.849V13.1758L136.441 7.54492H138.339V13.2168H139.505V14.3184H138.339V16H137.079ZM134.068 13.2344H137.091V8.58203H137.056L134.068 13.1992V13.2344Z" fill="black"/>
<path d="M158.034 16.1406C156.013 16.1406 154.806 14.459 154.806 11.7754V11.7637C154.806 9.08008 156.013 7.4043 158.034 7.4043C160.05 7.4043 161.263 9.08008 161.263 11.7637V11.7754C161.263 14.459 160.05 16.1406 158.034 16.1406ZM158.034 15.0449C159.235 15.0449 159.938 13.8027 159.938 11.7754V11.7637C159.938 9.73633 159.235 8.50586 158.034 8.50586C156.827 8.50586 156.13 9.73633 156.13 11.7637V11.7754C156.13 13.8027 156.827 15.0449 158.034 15.0449ZM165.194 16.1406C163.501 16.1406 162.323 15.1152 162.206 13.7207L162.2 13.6504H163.454L163.46 13.6973C163.571 14.459 164.263 15.0449 165.206 15.0449C166.273 15.0449 167.017 14.3066 167.017 13.2578V13.2461C167.011 12.209 166.267 11.4766 165.218 11.4766C164.696 11.4766 164.245 11.6289 163.905 11.9336C163.747 12.0684 163.612 12.2324 163.501 12.4199H162.353L162.769 7.54492H167.808V8.65234H163.829L163.571 11.3301H163.601C163.982 10.7617 164.685 10.4395 165.517 10.4395C167.134 10.4395 168.3 11.6055 168.3 13.2227V13.2344C168.3 14.9512 167.017 16.1406 165.194 16.1406Z" fill="black"/>
</svg>
