<svg width="179" height="24" viewBox="0 0 179 24" fill="none" xmlns="http://www.w3.org/2000/svg">
<line x1="63" y1="11.5" x2="87" y2="11.5" stroke="black"/>
<path d="M9.04023 16.1465C6.96602 16.1465 5.71797 14.4648 5.71797 11.7754V11.7637C5.71797 9.07422 6.96602 7.39844 9.04023 7.39844C11.1086 7.39844 12.3625 9.07422 12.3625 11.7637V11.7754C12.3625 14.4648 11.1086 16.1465 9.04023 16.1465ZM9.04023 14.9102C10.177 14.9102 10.8391 13.7266 10.8391 11.7754V11.7637C10.8391 9.8125 10.177 8.64062 9.04023 8.64062C7.89766 8.64062 7.24141 9.8125 7.24141 11.7637V11.7754C7.24141 13.7266 7.89766 14.9102 9.04023 14.9102ZM14.9441 16V8.98633H14.909L12.7234 10.4863V9.09766L14.9324 7.54492H16.4266V16H14.9441Z" fill="#242424"/>
<path d="M105.103 16.1465C103.029 16.1465 101.78 14.4648 101.78 11.7754V11.7637C101.78 9.07422 103.029 7.39844 105.103 7.39844C107.171 7.39844 108.425 9.07422 108.425 11.7637V11.7754C108.425 14.4648 107.171 16.1465 105.103 16.1465ZM105.103 14.9102C106.239 14.9102 106.902 13.7266 106.902 11.7754V11.7637C106.902 9.8125 106.239 8.64062 105.103 8.64062C103.96 8.64062 103.304 9.8125 103.304 11.7637V11.7754C103.304 13.7266 103.96 14.9102 105.103 14.9102ZM111.997 16.1465C110.139 16.1465 108.932 15.1504 108.815 13.7324L108.809 13.6621H110.257L110.263 13.7266C110.345 14.4121 111.001 14.9102 111.991 14.9102C112.97 14.9102 113.62 14.3711 113.62 13.6035V13.5918C113.62 12.7012 112.964 12.209 111.886 12.209H110.884V11.084H111.85C112.782 11.084 113.403 10.5566 113.403 9.81836V9.80664C113.403 9.04492 112.888 8.59961 111.979 8.59961C111.089 8.59961 110.479 9.0625 110.403 9.78906L110.397 9.84766H108.991L108.997 9.77734C109.12 8.34766 110.274 7.39844 111.979 7.39844C113.725 7.39844 114.856 8.29492 114.856 9.60742V9.61914C114.856 10.668 114.095 11.3652 113.081 11.5762V11.6055C114.329 11.7227 115.155 12.4609 115.155 13.6328V13.6445C115.155 15.1152 113.866 16.1465 111.997 16.1465Z" fill="#242424"/>
<path d="M134.009 16.1465C131.935 16.1465 130.687 14.4648 130.687 11.7754V11.7637C130.687 9.07422 131.935 7.39844 134.009 7.39844C136.077 7.39844 137.331 9.07422 137.331 11.7637V11.7754C137.331 14.4648 136.077 16.1465 134.009 16.1465ZM134.009 14.9102C135.146 14.9102 135.808 13.7266 135.808 11.7754V11.7637C135.808 9.8125 135.146 8.64062 134.009 8.64062C132.866 8.64062 132.21 9.8125 132.21 11.7637V11.7754C132.21 13.7266 132.866 14.9102 134.009 14.9102ZM141.888 16V14.377H137.669V13.0879L141.179 7.54492H143.329V13.1348H144.477V14.377H143.329V16H141.888ZM139.028 13.1699H141.911V8.6875H141.876L139.028 13.1289V13.1699Z" fill="#242424"/>
<path d="M163.155 16.1465C161.081 16.1465 159.833 14.4648 159.833 11.7754V11.7637C159.833 9.07422 161.081 7.39844 163.155 7.39844C165.224 7.39844 166.478 9.07422 166.478 11.7637V11.7754C166.478 14.4648 165.224 16.1465 163.155 16.1465ZM163.155 14.9102C164.292 14.9102 164.954 13.7266 164.954 11.7754V11.7637C164.954 9.8125 164.292 8.64062 163.155 8.64062C162.013 8.64062 161.357 9.8125 161.357 11.7637V11.7754C161.357 13.7266 162.013 14.9102 163.155 14.9102ZM170.096 16.1465C168.339 16.1465 167.143 15.0977 167.032 13.6973L167.026 13.6211H168.444L168.45 13.6621C168.573 14.3711 169.218 14.916 170.108 14.916C171.116 14.916 171.813 14.2246 171.813 13.2344V13.2227C171.813 12.2559 171.104 11.5645 170.114 11.5645C169.634 11.5645 169.218 11.7109 168.895 11.9805C168.737 12.1094 168.596 12.2734 168.497 12.4609H167.179L167.583 7.54492H172.774V8.78125H168.79L168.555 11.3301H168.585C168.954 10.7617 169.651 10.4277 170.501 10.4277C172.112 10.4277 173.272 11.5938 173.272 13.1992V13.2109C173.272 14.9512 171.966 16.1465 170.096 16.1465Z" fill="#242424"/>
<path fill-rule="evenodd" clip-rule="evenodd" d="M41 24C47.6274 24 53 18.6274 53 12C53 5.37258 47.6274 0 41 0C34.3726 0 29 5.37258 29 12C29 18.6274 34.3726 24 41 24ZM33.9797 11.7754C33.9797 14.4648 35.2277 16.1465 37.302 16.1465C39.3703 16.1465 40.6242 14.4648 40.6242 11.7754V11.7637C40.6242 9.07422 39.3703 7.39844 37.302 7.39844C35.2277 7.39844 33.9797 9.07422 33.9797 11.7637V11.7754ZM39.1008 11.7754C39.1008 13.7266 38.4387 14.9102 37.302 14.9102C36.1594 14.9102 35.5031 13.7266 35.5031 11.7754V11.7637C35.5031 9.8125 36.1594 8.64062 37.302 8.64062C38.4387 8.64062 39.1008 9.8125 39.1008 11.7637V11.7754ZM41.073 14.9688V16H47.0145V14.7637H43.0711V14.6992L44.9344 12.9297C46.4227 11.5 46.8855 10.8262 46.8855 9.83008V9.81836C46.8855 8.42383 45.702 7.39844 44.0086 7.39844C42.2918 7.39844 40.991 8.50586 40.991 10.0527V10.0938H42.409V10.0527C42.4266 9.23828 43.0828 8.61133 44.0203 8.61133C44.8348 8.61133 45.4031 9.15039 45.409 9.90625V9.91797C45.409 10.5449 45.1688 10.9727 44.0613 12.0566L41.073 14.9688Z" fill="black"/>
</svg>
