<svg width="47" height="46" viewBox="0 0 47 46" fill="none" xmlns="http://www.w3.org/2000/svg">
<rect x="0.0273438" width="46" height="46" fill="#FFD9D9"/>
<g clip-path="url(#clip0_18_11592)">
<path d="M35.577 25.5619C35.577 32.493 29.9584 38.1117 23.0272 38.1117C16.0961 38.1117 10.4766 32.493 10.4766 25.5619C10.4766 18.6307 19.4283 8.61914 23.0264 8.61914C26.2892 8.61914 35.5762 18.6307 35.5762 25.5619H35.577Z" fill="black" stroke="black" stroke-width="0.899512" stroke-miterlimit="10"/>
<path d="M18.3844 22.6643C18.7714 22.6643 19.0852 22.3505 19.0852 21.9635C19.0852 21.5765 18.7714 21.2627 18.3844 21.2627C17.9974 21.2627 17.6836 21.5765 17.6836 21.9635C17.6836 22.3505 17.9974 22.6643 18.3844 22.6643Z" fill="white"/>
<path d="M23.8434 22.6643C24.2304 22.6643 24.5442 22.3505 24.5442 21.9635C24.5442 21.5765 24.2304 21.2627 23.8434 21.2627C23.4563 21.2627 23.1426 21.5765 23.1426 21.9635C23.1426 22.3505 23.4563 22.6643 23.8434 22.6643Z" fill="white"/>
<path d="M20.8854 22.8663C20.5085 22.917 20.0726 23.0438 19.788 23.3112C19.5035 23.5786 19.4184 24.0422 19.407 24.4037C19.3767 25.3817 20.3016 25.6646 21.1226 25.6605C21.9436 25.6564 22.772 25.0775 22.6092 24.1641C22.458 23.3104 21.6762 22.7134 20.8266 22.8287C20.5616 22.8647 20.4226 23.2008 20.4839 23.4322C20.5592 23.7159 20.8266 23.8108 21.0874 23.7748C21.3483 23.7388 21.7261 24.1968 21.6492 24.4388C21.5519 24.7488 21.0555 24.6882 20.8168 24.6596C20.717 24.6474 20.4692 24.6465 20.4005 24.5615C20.3367 24.4814 20.4087 24.2769 20.4251 24.1911C20.4839 23.8795 20.8642 23.8509 21.1455 23.8133C21.4104 23.7773 21.5494 23.4412 21.4881 23.2098C21.4129 22.9252 21.1463 22.832 20.8846 22.8671L20.8854 22.8663Z" fill="white"/>
<path d="M25.616 20.0718C24.9864 19.0815 23.5521 19.0692 22.6844 19.7463C22.1873 20.1339 22.8856 20.8241 23.3787 20.4406C23.7401 20.1593 24.5104 20.1609 24.7689 20.5673C25.1066 21.0989 25.9562 20.6074 25.616 20.0718Z" fill="white"/>
<path d="M19.6544 19.8214C18.9462 18.9881 17.507 19.1549 16.7891 19.8941C16.3491 20.348 17.0426 21.0422 17.4833 20.5884C17.8513 20.209 18.5971 20.0871 18.961 20.5156C19.3707 20.9973 20.0616 20.3005 19.6552 19.8214H19.6544Z" fill="white"/>
</g>
<defs>
<clipPath id="clip0_18_11592">
<rect width="26" height="30.3921" fill="white" transform="translate(10.0273 8.16895)"/>
</clipPath>
</defs>
</svg>
