<svg width="97" height="73" viewBox="0 0 97 73" fill="none" xmlns="http://www.w3.org/2000/svg">
<path fill-rule="evenodd" clip-rule="evenodd" d="M11.3379 47.6104L19.67 60.6503C20.1711 61.4345 21.0375 61.9091 21.9682 61.9091H26.6045C27.5945 61.9091 28.5068 61.3726 28.988 60.5075C29.4692 59.6423 29.4438 58.5843 28.9216 57.7433L17.811 39.8477L27.2649 28.4703C27.9408 27.6569 28.0855 26.5261 27.6362 25.5687C27.187 24.6114 26.2248 24 25.1673 24H20.2064C19.3902 24 18.6169 24.3656 18.0988 24.9963L9.72 35.1979V26.7273C9.72 25.221 8.49896 24 6.99273 24H2.72727C1.22104 24 0 25.221 0 26.7273V59.1818C0 60.688 1.22104 61.9091 2.72727 61.9091H6.99273C8.49896 61.9091 9.72 60.688 9.72 59.1818V49.552L11.3379 47.6104ZM14.4573 39.6164L14.4573 39.6164L26.6045 59.1818L14.4573 39.6164ZM2.72727 26.7273H6.99273V42.8155L6.99272 26.7273H2.72727V26.7273Z" fill="white"/>
<path fill-rule="evenodd" clip-rule="evenodd" d="M78.3379 47.6104L86.67 60.6503C87.1711 61.4345 88.0375 61.9091 88.9682 61.9091H93.6045C94.5945 61.9091 95.5068 61.3726 95.988 60.5075C96.4692 59.6423 96.4438 58.5843 95.9216 57.7433L84.811 39.8477L94.2649 28.4703C94.9408 27.6569 95.0855 26.5261 94.6362 25.5687C94.187 24.6114 93.2248 24 92.1673 24H87.2064C86.3902 24 85.6169 24.3656 85.0988 24.9963L76.72 35.1979V26.7273C76.72 25.221 75.499 24 73.9927 24H69.7273C68.221 24 67 25.221 67 26.7273V59.1818C67 60.688 68.221 61.9091 69.7273 61.9091H73.9927C75.499 61.9091 76.72 60.688 76.72 59.1818V49.552L78.3379 47.6104ZM81.4573 39.6164L81.4573 39.6164L93.6045 59.1818L81.4573 39.6164ZM69.7273 26.7273H73.9927V42.8155L73.9927 26.7273H69.7273V26.7273Z" fill="white"/>
<path fill-rule="evenodd" clip-rule="evenodd" d="M38.7744 33.9695C37.3937 33.9695 36.2744 35.0888 36.2744 36.4695V69.7C36.2744 71.0807 37.3937 72.2 38.7744 72.2H58.855C60.2357 72.2 61.355 71.0807 61.355 69.7V65.3626C61.355 63.9819 60.2357 62.8626 58.855 62.8626H46.3232V36.4695C46.3232 35.0888 45.204 33.9695 43.8232 33.9695H38.7744Z" fill="white"/>
<circle cx="82" cy="11" r="3" fill="white"/>
<circle cx="49" cy="3" r="3" fill="white"/>
<circle cx="16" cy="11" r="3" fill="white"/>
</svg>
