<svg width="26" height="26" viewBox="0 0 26 26" fill="none" xmlns="http://www.w3.org/2000/svg">
<path d="M12.7221 6.49981C13.661 6.49981 14.5908 6.68475 15.4583 7.04407C16.3257 7.40339 17.1139 7.93005 17.7779 8.59399C18.4418 9.25793 18.9685 10.0461 19.3278 10.9136C19.6871 11.7811 19.8721 12.7109 19.8721 13.6498L12.7221 13.6498L12.7221 6.49981Z" fill="#DFE1E5" stroke="#DFE1E5" stroke-width="1.02143" stroke-linejoin="round"/>
<path d="M13.0004 1.95033C12.4876 1.95033 12.0718 2.36607 12.0718 2.87891C12.0718 3.39174 12.4876 3.80748 13.0004 3.80748V1.95033ZM22.2861 13.0932C22.2861 18.2216 18.1288 22.3789 13.0004 22.3789V24.236C19.1544 24.236 24.1433 19.2472 24.1433 13.0932H22.2861ZM13.0004 22.3789C7.87206 22.3789 3.7147 18.2216 3.7147 13.0932H1.85756C1.85756 19.2472 6.84639 24.236 13.0004 24.236V22.3789ZM13.0004 3.80748C18.1288 3.80748 22.2861 7.96483 22.2861 13.0932H24.1433C24.1433 6.93916 19.1544 1.95033 13.0004 1.95033V3.80748ZM3.7147 13.0932C3.7147 9.85244 5.37412 6.99882 7.89394 5.3363L6.87119 3.78615C3.85259 5.77775 1.85756 9.20227 1.85756 13.0932H3.7147Z" fill="#DFE1E5"/>
<path d="M7.40414 8.46767L8.01212 4.26317L3.80763 3.65519" stroke="#DFE1E5" stroke-width="1.85714" stroke-linecap="round" stroke-linejoin="round"/>
</svg>
