<svg width="390" height="844" viewBox="0 0 390 844" fill="none" xmlns="http://www.w3.org/2000/svg">
<g clip-path="url(#clip0_440_4480)">
<rect width="390" height="844" fill="white"/>
<g opacity="0.05">
<g clip-path="url(#clip1_440_4480)">
<path d="M257.022 761.635C287.121 845.595 243.459 938.055 159.499 968.154C75.5392 998.252 -16.9311 954.594 -47.0297 870.634C-77.1282 786.674 -12.1671 626.527 31.4175 610.903C70.9408 596.734 226.914 677.679 257.012 761.639L257.022 761.635Z" fill="white" stroke="black" stroke-width="11.5751" stroke-miterlimit="10"/>
<path d="M66.4486 819.089C71.137 817.408 73.5752 812.245 71.8945 807.556C70.2137 802.868 65.0505 800.43 60.3621 802.111C55.6737 803.791 53.2355 808.954 54.9163 813.643C56.597 818.331 61.7602 820.769 66.4486 819.089Z" fill="black"/>
<path d="M132.585 795.382C137.274 793.701 139.712 788.538 138.031 783.849C136.35 779.161 131.187 776.723 126.499 778.404C121.81 780.084 119.372 785.247 121.053 789.936C122.734 794.624 127.897 797.062 132.585 795.382Z" fill="black"/>
<path d="M97.9921 808.463C100.608 812.891 103.227 817.329 105.843 821.757L109.507 827.955C110.362 829.404 113.122 832.551 113.097 834.259L114.556 829.722C115.841 828.971 115.858 828.864 114.579 829.412C113.638 829.75 112.687 830.091 111.746 830.428C109.854 831.106 107.976 831.791 106.087 832.479C98.4509 835.25 102.692 847.144 110.349 844.366C117.602 841.743 129.813 838.852 124.408 828.516C119.532 819.186 113.679 810.251 108.317 801.185C104.189 794.191 93.8677 801.479 97.9886 808.453L97.9921 808.463Z" fill="black"/>
<path d="M74.0996 856.678C78.7127 865.119 86.1425 872.404 95.1124 876.097C105.238 880.27 114.899 878.841 125.029 875.511C135.159 872.182 144.781 867.715 150.376 857.94C156.208 847.734 155.934 835.558 155.426 824.193C155.07 816.059 142.474 817.031 142.833 825.141C143.191 833.251 143.808 842.61 140.079 850.419C136.35 858.229 128.588 861.056 120.768 863.625C113.366 866.054 106.473 867.531 99.1293 864.071C92.5929 860.993 87.8468 855.674 84.4275 849.41C80.5464 842.294 70.2327 849.602 74.0996 856.678Z" fill="black"/>
</g>
</g>
<g opacity="0.05">
<g clip-path="url(#clip2_440_4480)">
<path d="M432.482 530.453C401.366 614.04 308.381 656.576 224.794 625.459C141.206 594.342 98.6607 501.355 129.777 417.767C160.894 334.179 313.796 253.63 357.187 269.783C396.536 284.431 463.589 446.861 432.472 530.449L432.482 530.453Z" fill="black" stroke="black" stroke-width="11.5751" stroke-miterlimit="10"/>
<path d="M249.753 451.516C254.421 453.254 259.613 450.879 261.351 446.211C263.088 441.543 260.713 436.351 256.045 434.613C251.378 432.876 246.185 435.251 244.448 439.919C242.71 444.586 245.085 449.779 249.753 451.516Z" fill="white"/>
<path d="M315.591 476.025C320.258 477.763 325.451 475.387 327.188 470.72C328.926 466.052 326.551 460.86 321.883 459.122C317.216 457.385 312.023 459.76 310.285 464.427C308.548 469.095 310.923 474.288 315.591 476.025Z" fill="white"/>
<path d="M280.721 463.729C279.867 468.8 279.008 473.881 278.153 478.953L276.958 486.053C276.678 487.712 276.759 491.896 275.639 493.186L279.679 490.659C281.145 490.913 281.227 490.843 279.896 490.437C278.959 490.088 278.013 489.736 277.076 489.387C275.192 488.686 273.315 487.998 271.428 487.307C263.803 484.502 259.378 496.329 267.022 499.141C274.258 501.812 285.456 507.474 287.988 496.088C290.275 485.812 291.561 475.208 293.306 464.82C294.659 456.813 282.071 455.731 280.725 463.719L280.721 463.729Z" fill="white"/>
<path d="M231.38 485.185C229.465 494.611 230.448 504.97 234.925 513.576C239.976 523.293 248.282 528.429 258.173 532.414C268.063 536.399 278.299 539.188 288.878 535.322C299.915 531.279 307.556 521.795 314.494 512.779C319.465 506.332 309.209 498.954 304.255 505.385C299.301 511.816 293.739 519.368 285.854 522.934C277.969 526.5 270.213 523.658 262.578 520.58C255.354 517.666 249.132 514.351 245.749 506.972C242.736 500.405 242.537 493.279 243.961 486.286C245.581 478.345 232.986 477.282 231.38 485.185Z" fill="white"/>
</g>
</g>
</g>
<defs>
<clipPath id="clip0_440_4480">
<rect width="390" height="844" fill="white"/>
</clipPath>
<clipPath id="clip1_440_4480">
<rect width="334.574" height="391.092" fill="white" transform="translate(-128 661.905) rotate(-19.7221)"/>
</clipPath>
<clipPath id="clip2_440_4480">
<rect width="334.574" height="391.092" fill="white" transform="translate(202.442 206) rotate(20.4184)"/>
</clipPath>
</defs>
</svg>
