<svg width="390" height="844" viewBox="0 0 390 844" fill="none" xmlns="http://www.w3.org/2000/svg">
<g clip-path="url(#clip0_1303_11743)">
<rect width="390" height="844" fill="black"/>
<g opacity="0.08">
<path d="M442.693 535.296C420.549 613.883 338.891 659.639 260.303 637.495C181.715 615.351 135.951 533.691 158.095 455.103C180.239 376.515 313.723 291.6 354.519 303.095C391.514 313.519 464.828 456.705 442.684 535.293L442.693 535.296Z" fill="white"/>
<path d="M275.04 466.211C279.429 467.448 283.989 464.893 285.225 460.504C286.462 456.116 283.907 451.556 279.518 450.319C275.13 449.083 270.57 451.638 269.333 456.026C268.097 460.415 270.652 464.975 275.04 466.211Z" fill="black"/>
<path d="M336.939 483.652C341.327 484.888 345.887 482.333 347.124 477.945C348.36 473.556 345.805 468.996 341.417 467.76C337.028 466.523 332.468 469.078 331.232 473.467C329.995 477.855 332.55 482.415 336.939 483.652Z" fill="black"/>
<path d="M277.056 486.421C275.742 498.971 282.973 508.364 294.647 512.004C300.773 513.92 307.024 514.821 312.942 511.755C318.86 508.689 322.237 503.595 325.597 498.417C329.661 492.166 319.749 486.211 315.703 492.437C313.707 495.507 311.689 498.942 308.524 500.972C305.029 503.22 301.435 502.017 297.773 500.875C290.679 498.666 287.833 493.921 288.608 486.483C289.383 479.046 277.819 479.06 277.047 486.418L277.056 486.421Z" fill="black"/>
</g>
<g opacity="0.08">
<path d="M248.257 741.327C270.073 820.007 223.976 901.473 145.296 923.288C66.6163 945.103 -14.8586 899.009 -36.6739 820.329C-58.4892 741.65 11.6172 599.827 52.4609 588.502C89.4987 578.233 226.433 662.65 248.248 741.33L248.257 741.327Z" stroke="white" stroke-width="9.30132" stroke-miterlimit="10"/>
<path d="M69.0815 769.188C73.4751 767.97 76.0492 763.421 74.831 759.027C73.6129 754.633 69.0636 752.059 64.6701 753.278C60.2765 754.496 57.7024 759.045 58.9206 763.439C60.1388 767.832 64.688 770.406 69.0815 769.188Z" fill="white"/>
<path d="M131.05 752.006C135.444 750.788 138.018 746.238 136.8 741.845C135.582 737.451 131.032 734.877 126.639 736.095C122.245 737.313 119.671 741.863 120.889 746.256C122.108 750.65 126.657 753.224 131.05 752.006Z" fill="white"/>
<path d="M81.284 785.423C86.6675 796.836 97.7213 801.118 109.591 798.177C115.822 796.639 121.635 794.168 125.105 788.478C128.575 782.787 128.822 776.681 129.01 770.511C129.243 763.059 117.68 763.106 117.449 770.528C117.334 774.188 117.389 778.172 115.737 781.549C113.913 785.283 110.216 786.118 106.493 787.041C99.2822 788.83 94.388 786.248 91.1938 779.487C87.9995 772.725 78.1197 778.734 81.2748 785.426L81.284 785.423Z" fill="white"/>
</g>
</g>
<defs>
<clipPath id="clip0_1303_11743">
<rect width="390" height="844" fill="white"/>
</clipPath>
</defs>
</svg>
