<svg width="93" height="92" viewBox="0 0 93 92" fill="none" xmlns="http://www.w3.org/2000/svg">
<path d="M42.3 70.0236C42.3 81.5506 33.0551 90.8949 21.6507 90.8949C10.2463 90.8949 1 81.5506 1 70.0236C1 58.4965 15.7292 41.8464 21.6493 41.8464C27.0179 41.8464 42.2987 58.4965 42.2987 70.0236H42.3Z" fill="#ADAFB2" stroke="#ADAFB2" stroke-width="1.31408" stroke-miterlimit="10"/>
<path d="M22.033 65.2582C22.6698 65.2582 23.1861 64.7364 23.1861 64.0927C23.1861 63.4491 22.6698 62.9272 22.033 62.9272C21.3961 62.9272 20.8799 63.4491 20.8799 64.0927C20.8799 64.7364 21.3961 65.2582 22.033 65.2582Z" fill="white"/>
<path d="M29.9119 65.2582C30.5487 65.2582 31.065 64.7364 31.065 64.0927C31.065 63.4491 30.5487 62.9272 29.9119 62.9272C29.275 62.9272 28.7588 63.4491 28.7588 64.0927C28.7588 64.7364 29.275 65.2582 29.9119 65.2582Z" fill="white"/>
<path d="M22.8647 67.927C23.1634 69.6827 24.4914 70.6823 26.1988 70.7299C27.0949 70.7558 27.9695 70.6388 28.6489 69.9955C29.3284 69.3523 29.5895 68.5309 29.8451 67.6986C30.1546 66.6935 28.5965 66.2638 28.2884 67.2647C28.1363 67.7584 27.995 68.3024 27.6466 68.6995C27.2617 69.1388 26.733 69.1129 26.1975 69.098C25.1601 69.0694 24.5977 68.5336 24.4201 67.4932C24.2424 66.4528 22.6884 66.8975 22.8633 67.927H22.8647Z" fill="white"/>
<path d="M50.7 70.1285C50.7 81.6556 59.9449 90.9999 71.3493 90.9999C82.7537 90.9999 92 81.6556 92 70.1285C92 58.6015 77.2708 41.9514 71.3507 41.9514C65.9821 41.9514 50.7013 58.6015 50.7013 70.1285H50.7Z" fill="#DFE1E5" stroke="#DFE1E5" stroke-width="1.31408" stroke-miterlimit="10"/>
<path d="M70.967 65.3632C70.3302 65.3632 69.8139 64.8414 69.8139 64.1977C69.8139 63.554 70.3302 63.0322 70.967 63.0322C71.6039 63.0322 72.1201 63.554 72.1201 64.1977C72.1201 64.8414 71.6039 65.3632 70.967 65.3632Z" fill="#ADAFB2"/>
<path d="M63.0881 65.3632C62.4513 65.3632 61.935 64.8414 61.935 64.1977C61.935 63.554 62.4513 63.0322 63.0881 63.0322C63.725 63.0322 64.2412 63.554 64.2412 64.1977C64.2412 64.8414 63.725 65.3632 63.0881 65.3632Z" fill="#ADAFB2"/>
<path d="M70.1353 68.0323C69.8366 69.788 68.5086 70.7875 66.8012 70.8351C65.9051 70.861 65.0305 70.744 64.3511 70.1008C63.6716 69.4575 63.4105 68.6361 63.1549 67.8038C62.8454 66.7988 64.4035 66.369 64.7116 67.37C64.8637 67.8636 65.005 68.4076 65.3534 68.8047C65.7383 69.244 66.267 69.2181 66.8025 69.2032C67.8399 69.1746 68.4023 68.6388 68.5799 67.5984C68.7576 66.5581 70.3116 67.0028 70.1367 68.0323H70.1353Z" fill="#ADAFB2"/>
<path d="M12.9287 2C12.9287 0.895431 13.8241 0 14.9287 0H71.563C72.6676 0 73.563 0.895431 73.563 2V12.9827C73.563 14.0872 72.6676 14.9827 71.563 14.9827H12.9287V2Z" fill="#DFE1E5"/>
<path d="M12.9287 18.4786V13.4843L14.4197 11.4866H16.4077L22.3718 10.4878C22.8688 11.9861 23.0676 14.9826 19.8867 14.9826C16.7059 14.9826 13.9227 17.3132 12.9287 18.4786Z" fill="#DFE1E5"/>
<path d="M83.5029 20.978C83.5029 19.8735 82.6075 18.978 81.5029 18.978H48.7247C47.6202 18.978 46.7247 19.8735 46.7247 20.978V31.9607C46.7247 33.0653 47.6202 33.9607 48.7247 33.9607H83.5029V20.978Z" fill="#ADAFB2"/>
<path d="M83.5029 37.4566V32.4624L82.0119 30.4647H80.0239L74.0599 29.4658C73.5629 30.9641 73.3641 33.9606 76.5449 33.9606C79.7257 33.9606 82.5089 36.2913 83.5029 37.4566Z" fill="#ADAFB2"/>
</svg>
