<svg width="46" height="47" viewBox="0 0 46 47" fill="none" xmlns="http://www.w3.org/2000/svg">
<rect y="0.998047" width="46" height="46" fill="#B4DBFF"/>
<g clip-path="url(#clip0_18_11593)">
<path d="M35.577 26.3929C35.577 33.3241 29.9584 38.9428 23.0272 38.9428C16.0961 38.9428 10.4766 33.3241 10.4766 26.3929C10.4766 19.4618 19.4283 9.4502 23.0264 9.4502C26.2892 9.4502 35.5762 19.4618 35.5762 26.3929H35.577Z" fill="black" stroke="black" stroke-width="0.901269" stroke-miterlimit="10"/>
<path d="M20.1012 23.4963C20.4882 23.4963 20.802 23.1826 20.802 22.7955C20.802 22.4085 20.4882 22.0947 20.1012 22.0947C19.7142 22.0947 19.4004 22.4085 19.4004 22.7955C19.4004 23.1826 19.7142 23.4963 20.1012 23.4963Z" fill="white"/>
<path d="M25.5621 23.4963C25.9492 23.4963 26.2629 23.1826 26.2629 22.7955C26.2629 22.4085 25.9492 22.0947 25.5621 22.0947C25.1751 22.0947 24.8613 22.4085 24.8613 22.7955C24.8613 23.1826 25.1751 23.4963 25.5621 23.4963Z" fill="white"/>
<path d="M20.5457 20.0807C19.9929 20.1502 19.4794 20.3064 18.9944 20.5844C18.4465 20.8992 18.9405 21.7472 19.49 21.4316C19.8154 21.2451 20.172 21.1086 20.5457 21.0611C20.8082 21.0276 21.0363 20.8592 21.0363 20.5705C21.0363 20.3309 20.8106 20.0463 20.5457 20.0799V20.0807Z" fill="white"/>
<path d="M27.0696 20.9683C26.6321 20.6281 26.1602 20.3738 25.6222 20.229C25.0113 20.0647 24.7513 21.0116 25.3613 21.1752C25.726 21.2733 26.076 21.4287 26.3753 21.6617C26.5838 21.8245 26.8651 21.8653 27.0696 21.6617C27.2388 21.4924 27.2797 21.1318 27.0696 20.9675V20.9683Z" fill="white"/>
<path d="M20.7533 24.9192C20.9348 25.9749 21.7419 26.5759 22.7796 26.6045C23.3243 26.6201 23.8558 26.5498 24.2687 26.163C24.6817 25.7762 24.8403 25.2823 24.9957 24.7818C25.1838 24.1775 24.2369 23.9191 24.0496 24.521C23.9572 24.8178 23.8713 25.1449 23.6595 25.3837C23.4257 25.6478 23.1043 25.6323 22.7788 25.6233C22.1483 25.6061 21.8065 25.2839 21.6986 24.6583C21.5907 24.0328 20.6462 24.3002 20.7525 24.9192H20.7533Z" fill="white"/>
</g>
<defs>
<clipPath id="clip0_18_11593">
<rect width="26" height="30.3921" fill="white" transform="translate(10.0273 9)"/>
</clipPath>
</defs>
</svg>
