<svg width="18" height="18" viewBox="0 0 18 18" fill="none" xmlns="http://www.w3.org/2000/svg">
<path d="M15.3814 3.40306C15.0044 3.0259 14.5568 2.7267 14.0642 2.52257C13.5715 2.31844 13.0435 2.21338 12.5102 2.21338C11.9769 2.21338 11.4489 2.31844 10.9562 2.52257C10.4636 2.7267 10.016 3.0259 9.63901 3.40306L8.85663 4.18544L8.07425 3.40306C7.31276 2.64157 6.27996 2.21377 5.20305 2.21377C4.12615 2.21377 3.09335 2.64157 2.33186 3.40306C1.57038 4.16455 1.14258 5.19734 1.14258 6.27425C1.14258 7.35116 1.57038 8.38395 2.33186 9.14544L3.11424 9.92782L8.85663 15.6702L14.599 9.92782L15.3814 9.14544C15.7586 8.76845 16.0577 8.32085 16.2619 7.8282C16.466 7.33555 16.5711 6.80751 16.5711 6.27425C16.5711 5.74099 16.466 5.21295 16.2619 4.7203C16.0577 4.22765 15.7586 3.78005 15.3814 3.40306Z" fill="#E54545"/>
</svg>
