<svg width="140" height="24" viewBox="0 0 140 24" fill="none" xmlns="http://www.w3.org/2000/svg">
<path d="M3.92469 16.1406C1.9032 16.1406 0.696172 14.459 0.696172 11.7754V11.7637C0.696172 9.08008 1.9032 7.4043 3.92469 7.4043C5.94031 7.4043 7.1532 9.08008 7.1532 11.7637V11.7754C7.1532 14.459 5.94031 16.1406 3.92469 16.1406ZM3.92469 15.0449C5.12586 15.0449 5.82898 13.8027 5.82898 11.7754V11.7637C5.82898 9.73633 5.12586 8.50586 3.92469 8.50586C2.71766 8.50586 2.02039 9.73633 2.02039 11.7637V11.7754C2.02039 13.8027 2.71766 15.0449 3.92469 15.0449ZM10.13 16V8.8457H10.1007L7.89172 10.3691V9.12695L10.1183 7.54492H11.4132V16H10.13Z" fill="black"/>
<line x1="87" y1="11.5" x2="111" y2="11.5" stroke="black"/>
<path d="M31.1923 16.1406C29.1708 16.1406 27.9637 14.459 27.9637 11.7754V11.7637C27.9637 9.08008 29.1708 7.4043 31.1923 7.4043C33.2079 7.4043 34.4208 9.08008 34.4208 11.7637V11.7754C34.4208 14.459 33.2079 16.1406 31.1923 16.1406ZM31.1923 15.0449C32.3934 15.0449 33.0966 13.8027 33.0966 11.7754V11.7637C33.0966 9.73633 32.3934 8.50586 31.1923 8.50586C29.9852 8.50586 29.288 9.73633 29.288 11.7637V11.7754C29.288 13.8027 29.9852 15.0449 31.1923 15.0449ZM35.2589 16V15.0977L38.2355 12.1035C39.3605 10.9785 39.6124 10.5332 39.6124 9.87695V9.86523C39.6066 9.0625 38.9972 8.48828 38.1417 8.48828C37.1515 8.48828 36.4425 9.15625 36.4308 10.0117V10.0469H35.1886V10.0117C35.1886 8.5 36.4718 7.4043 38.1241 7.4043C39.7472 7.4043 40.9073 8.42383 40.9073 9.78906V9.80078C40.9073 10.7676 40.4562 11.4531 38.9386 12.9531L37.0167 14.8398V14.8926H41.0421V16H35.2589Z" fill="black"/>
<path d="M128.899 16.1406C126.878 16.1406 125.671 14.459 125.671 11.7754V11.7637C125.671 9.08008 126.878 7.4043 128.899 7.4043C130.915 7.4043 132.128 9.08008 132.128 11.7637V11.7754C132.128 14.459 130.915 16.1406 128.899 16.1406ZM128.899 15.0449C130.1 15.0449 130.804 13.8027 130.804 11.7754V11.7637C130.804 9.73633 130.1 8.50586 128.899 8.50586C127.692 8.50586 126.995 9.73633 126.995 11.7637V11.7754C126.995 13.8027 127.692 15.0449 128.899 15.0449ZM137.079 16V14.3184H132.849V13.1758L136.441 7.54492H138.339V13.2168H139.505V14.3184H138.339V16H137.079ZM134.068 13.2344H137.091V8.58203H137.056L134.068 13.1992V13.2344Z" fill="black"/>
<path fill-rule="evenodd" clip-rule="evenodd" d="M65 24C71.6274 24 77 18.6274 77 12C77 5.37256 71.6274 0 65 0C58.3726 0 53 5.37256 53 12C53 18.6274 58.3726 24 65 24ZM57.8955 11.7754C57.8955 14.4648 59.1963 16.1465 61.3408 16.1465C63.4854 16.1465 64.7861 14.4648 64.7861 11.7754V11.7637C64.7861 9.07422 63.4854 7.39844 61.3408 7.39844C59.1963 7.39844 57.8955 9.07422 57.8955 11.7637V11.7754ZM62.999 11.7754C62.999 13.6328 62.3955 14.7285 61.3408 14.7285C60.2861 14.7285 59.6826 13.6328 59.6826 11.7754V11.7637C59.6826 9.90625 60.2861 8.81641 61.3408 8.81641C62.3955 8.81641 62.999 9.90625 62.999 11.7637V11.7754ZM65.4953 13.6797C65.6125 15.1387 66.8664 16.1465 68.7825 16.1465C70.7571 16.1465 72.0696 15.127 72.0696 13.6152V13.6035C72.0696 12.4551 71.2493 11.7285 69.9953 11.6113V11.5762C70.9856 11.3711 71.759 10.6855 71.759 9.63086V9.61914C71.759 8.28906 70.5871 7.39844 68.7649 7.39844C66.9895 7.39844 65.8 8.35938 65.6828 9.82422L65.677 9.89453H67.3L67.3059 9.8418C67.3762 9.18555 67.9387 8.75781 68.7649 8.75781C69.5969 8.75781 70.0832 9.16797 70.0832 9.85352V9.86523C70.0832 10.5508 69.509 11.0195 68.6243 11.0195H67.6809V12.2793H68.6477C69.6672 12.2793 70.2707 12.7246 70.2707 13.5332V13.5449C70.2707 14.2363 69.6848 14.7227 68.7766 14.7227C67.8625 14.7227 67.2649 14.2715 67.1887 13.668L67.177 13.6035H65.4895L65.4953 13.6797Z" fill="black"/>
</svg>
