<svg width="32" height="32" viewBox="0 0 32 32" fill="none" xmlns="http://www.w3.org/2000/svg">
<path d="M19.5976 27V6C19.5976 5.44772 19.1499 5 18.5976 5H13.1931C12.6408 5 12.1931 5.44772 12.1931 6V27M19.5976 27L19.5956 14.2986C19.5955 13.7462 20.0433 13.2984 20.5956 13.2984H26C26.5523 13.2984 27 13.7461 27 14.2984V26C27 26.5523 26.5523 27 26 27H19.5976ZM19.5976 27H12.1931M12.1931 27V20.7377C12.1931 20.1854 11.7454 19.7377 11.1931 19.7377H6C5.44771 19.7377 5 20.1854 5 20.7377V26C5 26.5523 5.44772 27 6 27H12.1931Z" stroke="black" stroke-width="2.5" stroke-linecap="round" stroke-linejoin="round"/>
</svg>
