<svg width="25" height="26" viewBox="0 0 25 26" fill="none" xmlns="http://www.w3.org/2000/svg">
<path d="M16.0976 24V3C16.0976 2.44772 15.6499 2 15.0976 2H9.69312C9.14084 2 8.69312 2.44772 8.69312 3V24M16.0976 24L16.0956 11.2986C16.0955 10.7462 16.5433 10.2984 17.0956 10.2984H22.5C23.0523 10.2984 23.5 10.7461 23.5 11.2984V23C23.5 23.5523 23.0523 24 22.5 24H16.0976ZM16.0976 24H8.69312M8.69312 24V17.7377C8.69312 17.1854 8.2454 16.7377 7.69312 16.7377H2.5C1.94771 16.7377 1.5 17.1854 1.5 17.7377V23C1.5 23.5523 1.94772 24 2.5 24H8.69312Z" stroke="#4A4B4D" stroke-width="2.5" stroke-linecap="round" stroke-linejoin="round"/>
</svg>
