<svg width="169" height="24" viewBox="0 0 169 24" fill="none" xmlns="http://www.w3.org/2000/svg">
<path d="M3.92469 16.1406C1.9032 16.1406 0.696172 14.459 0.696172 11.7754V11.7637C0.696172 9.08008 1.9032 7.4043 3.92469 7.4043C5.94031 7.4043 7.1532 9.08008 7.1532 11.7637V11.7754C7.1532 14.459 5.94031 16.1406 3.92469 16.1406ZM3.92469 15.0449C5.12586 15.0449 5.82898 13.8027 5.82898 11.7754V11.7637C5.82898 9.73633 5.12586 8.50586 3.92469 8.50586C2.71766 8.50586 2.02039 9.73633 2.02039 11.7637V11.7754C2.02039 13.8027 2.71766 15.0449 3.92469 15.0449ZM10.13 16V8.8457H10.1007L7.89172 10.3691V9.12695L10.1183 7.54492H11.4132V16H10.13Z" fill="black"/>
<line x1="87" y1="11.5" x2="111" y2="11.5" stroke="black"/>
<path d="M31.1923 16.1406C29.1708 16.1406 27.9637 14.459 27.9637 11.7754V11.7637C27.9637 9.08008 29.1708 7.4043 31.1923 7.4043C33.2079 7.4043 34.4208 9.08008 34.4208 11.7637V11.7754C34.4208 14.459 33.2079 16.1406 31.1923 16.1406ZM31.1923 15.0449C32.3934 15.0449 33.0966 13.8027 33.0966 11.7754V11.7637C33.0966 9.73633 32.3934 8.50586 31.1923 8.50586C29.9852 8.50586 29.288 9.73633 29.288 11.7637V11.7754C29.288 13.8027 29.9852 15.0449 31.1923 15.0449ZM35.2589 16V15.0977L38.2355 12.1035C39.3605 10.9785 39.6124 10.5332 39.6124 9.87695V9.86523C39.6066 9.0625 38.9972 8.48828 38.1417 8.48828C37.1515 8.48828 36.4425 9.15625 36.4308 10.0117V10.0469H35.1886V10.0117C35.1886 8.5 36.4718 7.4043 38.1241 7.4043C39.7472 7.4043 40.9073 8.42383 40.9073 9.78906V9.80078C40.9073 10.7676 40.4562 11.4531 38.9386 12.9531L37.0167 14.8398V14.8926H41.0421V16H35.2589Z" fill="black"/>
<path d="M128.899 16.1406C126.878 16.1406 125.671 14.459 125.671 11.7754V11.7637C125.671 9.08008 126.878 7.4043 128.899 7.4043C130.915 7.4043 132.128 9.08008 132.128 11.7637V11.7754C132.128 14.459 130.915 16.1406 128.899 16.1406ZM128.899 15.0449C130.1 15.0449 130.804 13.8027 130.804 11.7754V11.7637C130.804 9.73633 130.1 8.50586 128.899 8.50586C127.692 8.50586 126.995 9.73633 126.995 11.7637V11.7754C126.995 13.8027 127.692 15.0449 128.899 15.0449ZM137.079 16V14.3184H132.849V13.1758L136.441 7.54492H138.339V13.2168H139.505V14.3184H138.339V16H137.079ZM134.068 13.2344H137.091V8.58203H137.056L134.068 13.1992V13.2344Z" fill="black"/>
<path d="M158.034 16.1406C156.013 16.1406 154.806 14.459 154.806 11.7754V11.7637C154.806 9.08008 156.013 7.4043 158.034 7.4043C160.05 7.4043 161.263 9.08008 161.263 11.7637V11.7754C161.263 14.459 160.05 16.1406 158.034 16.1406ZM158.034 15.0449C159.235 15.0449 159.938 13.8027 159.938 11.7754V11.7637C159.938 9.73633 159.235 8.50586 158.034 8.50586C156.827 8.50586 156.13 9.73633 156.13 11.7637V11.7754C156.13 13.8027 156.827 15.0449 158.034 15.0449ZM165.194 16.1406C163.501 16.1406 162.323 15.1152 162.206 13.7207L162.2 13.6504H163.454L163.46 13.6973C163.571 14.459 164.263 15.0449 165.206 15.0449C166.273 15.0449 167.017 14.3066 167.017 13.2578V13.2461C167.011 12.209 166.267 11.4766 165.218 11.4766C164.696 11.4766 164.245 11.6289 163.905 11.9336C163.747 12.0684 163.612 12.2324 163.501 12.4199H162.353L162.769 7.54492H167.808V8.65234H163.829L163.571 11.3301H163.601C163.982 10.7617 164.685 10.4395 165.517 10.4395C167.134 10.4395 168.3 11.6055 168.3 13.2227V13.2344C168.3 14.9512 167.017 16.1406 165.194 16.1406Z" fill="black"/>
<circle cx="65" cy="12" r="12" fill="black"/>
<path d="M61.3407 16.1465C59.1962 16.1465 57.8954 14.4648 57.8954 11.7754V11.7637C57.8954 9.07422 59.1962 7.39844 61.3407 7.39844C63.4852 7.39844 64.786 9.07422 64.786 11.7637V11.7754C64.786 14.4648 63.4852 16.1465 61.3407 16.1465ZM61.3407 14.7285C62.3954 14.7285 62.9989 13.6328 62.9989 11.7754V11.7637C62.9989 9.90625 62.3954 8.81641 61.3407 8.81641C60.286 8.81641 59.6825 9.90625 59.6825 11.7637V11.7754C59.6825 13.6328 60.286 14.7285 61.3407 14.7285ZM68.7823 16.1465C66.8663 16.1465 65.6124 15.1387 65.4952 13.6797L65.4894 13.6035H67.1769L67.1886 13.668C67.2648 14.2715 67.8624 14.7227 68.7765 14.7227C69.6847 14.7227 70.2706 14.2363 70.2706 13.5449V13.5332C70.2706 12.7246 69.6671 12.2793 68.6476 12.2793H67.6808V11.0195H68.6241C69.5089 11.0195 70.0831 10.5508 70.0831 9.86523V9.85352C70.0831 9.16797 69.5968 8.75781 68.7648 8.75781C67.9386 8.75781 67.3761 9.18555 67.3058 9.8418L67.2999 9.89453H65.6769L65.6827 9.82422C65.7999 8.35938 66.9894 7.39844 68.7648 7.39844C70.587 7.39844 71.7589 8.28906 71.7589 9.61914V9.63086C71.7589 10.6855 70.9855 11.3711 69.9952 11.5762V11.6113C71.2491 11.7285 72.0695 12.4551 72.0695 13.6035V13.6152C72.0695 15.127 70.757 16.1465 68.7823 16.1465Z" fill="white"/>
</svg>
