<svg width="20" height="20" viewBox="0 0 20 20" fill="none" xmlns="http://www.w3.org/2000/svg">
<rect x="3.33203" y="6.66663" width="10.8333" height="10.8333" rx="1.66667" stroke="#242424" stroke-width="1.66667" stroke-linejoin="round"/>
<rect x="3.33203" y="6.66663" width="10.8333" height="10.8333" rx="1.66667" stroke="black" stroke-opacity="0.2" stroke-width="1.66667" stroke-linejoin="round"/>
<rect x="3.33203" y="6.66663" width="10.8333" height="10.8333" rx="1.66667" stroke="black" stroke-opacity="0.2" stroke-width="1.66667" stroke-linejoin="round"/>
<rect x="3.33203" y="6.66663" width="10.8333" height="10.8333" rx="1.66667" stroke="black" stroke-opacity="0.2" stroke-width="1.66667" stroke-linejoin="round"/>
<path d="M6.66602 3.33325H15.8327C16.7532 3.33325 17.4993 4.07944 17.4993 4.99992V8.74992V11.4583V14.1666" stroke="#242424" stroke-width="1.66667" stroke-linecap="round" stroke-linejoin="round"/>
<path d="M6.66602 3.33325H15.8327C16.7532 3.33325 17.4993 4.07944 17.4993 4.99992V8.74992V11.4583V14.1666" stroke="black" stroke-opacity="0.2" stroke-width="1.66667" stroke-linecap="round" stroke-linejoin="round"/>
<path d="M6.66602 3.33325H15.8327C16.7532 3.33325 17.4993 4.07944 17.4993 4.99992V8.74992V11.4583V14.1666" stroke="black" stroke-opacity="0.2" stroke-width="1.66667" stroke-linecap="round" stroke-linejoin="round"/>
<path d="M6.66602 3.33325H15.8327C16.7532 3.33325 17.4993 4.07944 17.4993 4.99992V8.74992V11.4583V14.1666" stroke="black" stroke-opacity="0.2" stroke-width="1.66667" stroke-linecap="round" stroke-linejoin="round"/>
</svg>
