<svg width="40" height="40" viewBox="0 0 40 40" fill="none" xmlns="http://www.w3.org/2000/svg">
<path d="M31.6667 5H8.33333C6.49238 5 5 6.49238 5 8.33333V31.6667C5 33.5076 6.49238 35 8.33333 35H31.6667C33.5076 35 35 33.5076 35 31.6667V8.33333C35 6.49238 33.5076 5 31.6667 5Z" stroke="#ADAFB2" stroke-width="3.33333" stroke-linecap="round" stroke-linejoin="round"/>
<path d="M14.167 16.6666C15.5477 16.6666 16.667 15.5473 16.667 14.1666C16.667 12.7859 15.5477 11.6666 14.167 11.6666C12.7863 11.6666 11.667 12.7859 11.667 14.1666C11.667 15.5473 12.7863 16.6666 14.167 16.6666Z" stroke="#ADAFB2" stroke-width="3.33333" stroke-linecap="round" stroke-linejoin="round"/>
<path d="M34.9997 25L26.6663 16.6666L8.33301 35" stroke="#ADAFB2" stroke-width="3.33333" stroke-linecap="round" stroke-linejoin="round"/>
</svg>
