<svg width="174" height="24" viewBox="0 0 174 24" fill="none" xmlns="http://www.w3.org/2000/svg">
<circle cx="12" cy="12" r="12" fill="black"/>
<path d="M9.26648 16.1465C7.12195 16.1465 5.82117 14.4648 5.82117 11.7754V11.7637C5.82117 9.07422 7.12195 7.39844 9.26648 7.39844C11.411 7.39844 12.7118 9.07422 12.7118 11.7637V11.7754C12.7118 14.4648 11.411 16.1465 9.26648 16.1465ZM9.26648 14.7285C10.3212 14.7285 10.9247 13.6328 10.9247 11.7754V11.7637C10.9247 9.90625 10.3212 8.81641 9.26648 8.81641C8.2118 8.81641 7.60828 9.90625 7.60828 11.7637V11.7754C7.60828 13.6328 8.2118 14.7285 9.26648 14.7285ZM15.6183 16V9.16797H15.5831L13.4269 10.6328V9.0625L15.6124 7.54492H17.3702V16H15.6183Z" fill="white"/>
<line x1="34" y1="11.5" x2="58" y2="11.5" stroke="black"/>
<path d="M76.1923 16.1406C74.1708 16.1406 72.9637 14.459 72.9637 11.7754V11.7637C72.9637 9.08008 74.1708 7.4043 76.1923 7.4043C78.2079 7.4043 79.4208 9.08008 79.4208 11.7637V11.7754C79.4208 14.459 78.2079 16.1406 76.1923 16.1406ZM76.1923 15.0449C77.3934 15.0449 78.0966 13.8027 78.0966 11.7754V11.7637C78.0966 9.73633 77.3934 8.50586 76.1923 8.50586C74.9852 8.50586 74.288 9.73633 74.288 11.7637V11.7754C74.288 13.8027 74.9852 15.0449 76.1923 15.0449ZM80.2589 16V15.0977L83.2355 12.1035C84.3605 10.9785 84.6124 10.5332 84.6124 9.87695V9.86523C84.6066 9.0625 83.9972 8.48828 83.1417 8.48828C82.1515 8.48828 81.4425 9.15625 81.4308 10.0117V10.0469H80.1886V10.0117C80.1886 8.5 81.4718 7.4043 83.1241 7.4043C84.7472 7.4043 85.9073 8.42383 85.9073 9.78906V9.80078C85.9073 10.7676 85.4562 11.4531 83.9386 12.9531L82.0167 14.8398V14.8926H86.0421V16H80.2589Z" fill="black"/>
<path d="M104.987 16.1406C102.966 16.1406 101.759 14.459 101.759 11.7754V11.7637C101.759 9.08008 102.966 7.4043 104.987 7.4043C107.003 7.4043 108.216 9.08008 108.216 11.7637V11.7754C108.216 14.459 107.003 16.1406 104.987 16.1406ZM104.987 15.0449C106.188 15.0449 106.891 13.8027 106.891 11.7754V11.7637C106.891 9.73633 106.188 8.50586 104.987 8.50586C103.78 8.50586 103.083 9.73633 103.083 11.7637V11.7754C103.083 13.8027 103.78 15.0449 104.987 15.0449ZM112.101 16.1406C110.296 16.1406 109.118 15.1562 109.001 13.7793L108.995 13.7031H110.255L110.261 13.7676C110.343 14.5176 111.052 15.0449 112.101 15.0449C113.132 15.0449 113.829 14.4707 113.829 13.6504V13.6387C113.829 12.6836 113.138 12.1504 112.007 12.1504H110.982V11.1309H111.972C112.939 11.1309 113.595 10.5625 113.595 9.77734V9.76562C113.595 8.95117 113.044 8.47656 112.089 8.47656C111.151 8.47656 110.495 8.96875 110.413 9.75391L110.407 9.80664H109.177L109.183 9.74805C109.312 8.33594 110.437 7.4043 112.089 7.4043C113.771 7.4043 114.872 8.29492 114.872 9.5957V9.60742C114.872 10.6562 114.122 11.3594 113.091 11.5762V11.6055C114.333 11.7168 115.165 12.4668 115.165 13.6504V13.6621C115.165 15.1094 113.894 16.1406 112.101 16.1406Z" fill="black"/>
<path d="M133.899 16.1406C131.878 16.1406 130.671 14.459 130.671 11.7754V11.7637C130.671 9.08008 131.878 7.4043 133.899 7.4043C135.915 7.4043 137.128 9.08008 137.128 11.7637V11.7754C137.128 14.459 135.915 16.1406 133.899 16.1406ZM133.899 15.0449C135.1 15.0449 135.804 13.8027 135.804 11.7754V11.7637C135.804 9.73633 135.1 8.50586 133.899 8.50586C132.692 8.50586 131.995 9.73633 131.995 11.7637V11.7754C131.995 13.8027 132.692 15.0449 133.899 15.0449ZM142.079 16V14.3184H137.849V13.1758L141.441 7.54492H143.339V13.2168H144.505V14.3184H143.339V16H142.079ZM139.068 13.2344H142.091V8.58203H142.056L139.068 13.1992V13.2344Z" fill="black"/>
<path d="M163.034 16.1406C161.013 16.1406 159.806 14.459 159.806 11.7754V11.7637C159.806 9.08008 161.013 7.4043 163.034 7.4043C165.05 7.4043 166.263 9.08008 166.263 11.7637V11.7754C166.263 14.459 165.05 16.1406 163.034 16.1406ZM163.034 15.0449C164.235 15.0449 164.938 13.8027 164.938 11.7754V11.7637C164.938 9.73633 164.235 8.50586 163.034 8.50586C161.827 8.50586 161.13 9.73633 161.13 11.7637V11.7754C161.13 13.8027 161.827 15.0449 163.034 15.0449ZM170.194 16.1406C168.501 16.1406 167.323 15.1152 167.206 13.7207L167.2 13.6504H168.454L168.46 13.6973C168.571 14.459 169.263 15.0449 170.206 15.0449C171.273 15.0449 172.017 14.3066 172.017 13.2578V13.2461C172.011 12.209 171.267 11.4766 170.218 11.4766C169.696 11.4766 169.245 11.6289 168.905 11.9336C168.747 12.0684 168.612 12.2324 168.501 12.4199H167.353L167.769 7.54492H172.808V8.65234H168.829L168.571 11.3301H168.601C168.982 10.7617 169.685 10.4395 170.517 10.4395C172.134 10.4395 173.3 11.6055 173.3 13.2227V13.2344C173.3 14.9512 172.017 16.1406 170.194 16.1406Z" fill="black"/>
</svg>
