<svg width="140" height="24" viewBox="0 0 140 24" fill="none" xmlns="http://www.w3.org/2000/svg">
<path d="M3.92469 16.1406C1.9032 16.1406 0.696172 14.459 0.696172 11.7754V11.7637C0.696172 9.08008 1.9032 7.4043 3.92469 7.4043C5.94031 7.4043 7.1532 9.08008 7.1532 11.7637V11.7754C7.1532 14.459 5.94031 16.1406 3.92469 16.1406ZM3.92469 15.0449C5.12586 15.0449 5.82898 13.8027 5.82898 11.7754V11.7637C5.82898 9.73633 5.12586 8.50586 3.92469 8.50586C2.71766 8.50586 2.02039 9.73633 2.02039 11.7637V11.7754C2.02039 13.8027 2.71766 15.0449 3.92469 15.0449ZM10.13 16V8.8457H10.1007L7.89172 10.3691V9.12695L10.1183 7.54492H11.4132V16H10.13Z" fill="black"/>
<line x1="58" y1="11.5" x2="82" y2="11.5" stroke="black"/>
<path fill-rule="evenodd" clip-rule="evenodd" d="M36 24C42.6274 24 48 18.6274 48 12C48 5.37256 42.6274 0 36 0C29.3726 0 24 5.37256 24 12C24 18.6274 29.3726 24 36 24ZM28.583 11.7754C28.583 14.4648 29.8838 16.1465 32.0283 16.1465C34.1729 16.1465 35.4736 14.4648 35.4736 11.7754V11.7637C35.4736 9.07422 34.1729 7.39844 32.0283 7.39844C29.8838 7.39844 28.583 9.07422 28.583 11.7637V11.7754ZM33.6865 11.7754C33.6865 13.6328 33.083 14.7285 32.0283 14.7285C30.9736 14.7285 30.3701 13.6328 30.3701 11.7754V11.7637C30.3701 9.90625 30.9736 8.81641 32.0283 8.81641C33.083 8.81641 33.6865 9.90625 33.6865 11.7637V11.7754ZM36.2649 14.7871V16H42.4114V14.5938H38.5793V14.5234L40.3489 12.9062C41.8079 11.5645 42.2942 10.8965 42.2942 9.87109V9.85938C42.2942 8.41797 41.0637 7.39844 39.2766 7.39844C37.4895 7.39844 36.1653 8.51758 36.1653 10.1113V10.1582H37.8059L37.8118 10.1055C37.8352 9.34375 38.4211 8.77539 39.2883 8.77539C40.0383 8.77539 40.5657 9.26758 40.5715 9.95898V9.9707C40.5715 10.5566 40.343 10.9727 39.2532 11.9922L36.2649 14.7871Z" fill="black"/>
<path d="M99.9872 16.1406C97.9657 16.1406 96.7587 14.459 96.7587 11.7754V11.7637C96.7587 9.08008 97.9657 7.4043 99.9872 7.4043C102.003 7.4043 103.216 9.08008 103.216 11.7637V11.7754C103.216 14.459 102.003 16.1406 99.9872 16.1406ZM99.9872 15.0449C101.188 15.0449 101.891 13.8027 101.891 11.7754V11.7637C101.891 9.73633 101.188 8.50586 99.9872 8.50586C98.7802 8.50586 98.0829 9.73633 98.0829 11.7637V11.7754C98.0829 13.8027 98.7802 15.0449 99.9872 15.0449ZM107.101 16.1406C105.296 16.1406 104.118 15.1562 104.001 13.7793L103.995 13.7031H105.255L105.261 13.7676C105.343 14.5176 106.052 15.0449 107.101 15.0449C108.132 15.0449 108.829 14.4707 108.829 13.6504V13.6387C108.829 12.6836 108.138 12.1504 107.007 12.1504H105.982V11.1309H106.972C107.939 11.1309 108.595 10.5625 108.595 9.77734V9.76562C108.595 8.95117 108.044 8.47656 107.089 8.47656C106.151 8.47656 105.495 8.96875 105.413 9.75391L105.407 9.80664H104.177L104.183 9.74805C104.312 8.33594 105.437 7.4043 107.089 7.4043C108.771 7.4043 109.872 8.29492 109.872 9.5957V9.60742C109.872 10.6562 109.122 11.3594 108.091 11.5762V11.6055C109.333 11.7168 110.165 12.4668 110.165 13.6504V13.6621C110.165 15.1094 108.894 16.1406 107.101 16.1406Z" fill="black"/>
<path d="M128.899 16.1406C126.878 16.1406 125.671 14.459 125.671 11.7754V11.7637C125.671 9.08008 126.878 7.4043 128.899 7.4043C130.915 7.4043 132.128 9.08008 132.128 11.7637V11.7754C132.128 14.459 130.915 16.1406 128.899 16.1406ZM128.899 15.0449C130.1 15.0449 130.804 13.8027 130.804 11.7754V11.7637C130.804 9.73633 130.1 8.50586 128.899 8.50586C127.692 8.50586 126.995 9.73633 126.995 11.7637V11.7754C126.995 13.8027 127.692 15.0449 128.899 15.0449ZM137.079 16V14.3184H132.849V13.1758L136.441 7.54492H138.339V13.2168H139.505V14.3184H138.339V16H137.079ZM134.068 13.2344H137.091V8.58203H137.056L134.068 13.1992V13.2344Z" fill="black"/>
</svg>
