<svg width="40" height="40" viewBox="0 0 40 40" fill="none" xmlns="http://www.w3.org/2000/svg">
<path fill-rule="evenodd" clip-rule="evenodd" d="M9.15698 4.44434C7.90711 4.44434 6.70843 4.94084 5.82464 5.82464C4.94084 6.70843 4.44434 7.90711 4.44434 9.15698V35.8236C4.44434 36.3815 4.78039 36.8845 5.29581 37.098C5.81122 37.3115 6.40449 37.1934 6.79897 36.799L13.0616 30.5363H32.4903C33.7402 30.5363 34.9389 30.0398 35.8227 29.156C36.7064 28.2722 37.203 27.0735 37.203 25.8236V9.15698C37.203 7.90711 36.7064 6.70843 35.8227 5.82464C34.9389 4.94085 33.7402 4.44434 32.4903 4.44434H9.15698ZM17.9449 23.9444C18.6887 21.938 20.944 19.6827 22.9538 18.9355C23.189 18.849 23.189 18.5135 22.9538 18.427C20.9475 17.6833 18.6921 15.4279 17.9449 13.4181C17.8585 13.1829 17.5229 13.1829 17.4364 13.4181C16.6892 15.4244 14.4339 17.6798 12.4275 18.427C12.1923 18.5135 12.1923 18.849 12.4275 18.9355C14.4339 19.6792 16.6892 21.9346 17.4364 23.9444C17.5229 24.1796 17.8585 24.1796 17.9449 23.9444ZM29.2966 13.9874C28.1801 14.4025 26.9271 15.6554 26.5139 16.7701C26.4658 16.9008 26.2794 16.9008 26.2314 16.7701C25.8163 15.6535 24.5633 14.4005 23.4487 13.9874C23.318 13.9393 23.318 13.7529 23.4487 13.7049C24.5633 13.2898 25.8163 12.0368 26.2314 10.9221C26.2794 10.7915 26.4658 10.7915 26.5139 10.9221C26.929 12.0387 28.182 13.2917 29.2966 13.7049C29.4273 13.7529 29.4273 13.9393 29.2966 13.9874Z" fill="black"/>
</svg>
