<svg width="217" height="23" viewBox="0 0 217 23" fill="none" xmlns="http://www.w3.org/2000/svg">
<path d="M9.0791 22.3809C3.82031 22.3809 0.495117 20.0518 0.260742 16.0088L0.246094 15.7451H5.24121L5.27051 15.9062C5.53418 17.2686 7.11621 18.1621 9.18164 18.1621C11.3203 18.1621 12.6387 17.2539 12.6387 15.9355V15.9209C12.6387 14.7197 11.7012 14.1631 9.22559 13.6797L7.05762 13.2695C2.86816 12.4932 0.65625 10.4277 0.65625 7.19043V7.17578C0.65625 3.10352 4.18652 0.481445 9.03516 0.481445C14.3379 0.481445 17.3408 2.97168 17.5312 6.80957L17.5459 7.11719H12.5508L12.5361 6.95605C12.375 5.56445 11.0127 4.7002 9.0791 4.7002C7.10156 4.7002 5.98828 5.59375 5.98828 6.80957V6.82422C5.98828 7.9668 6.98438 8.56738 9.25488 8.99219L11.4229 9.40234C15.9053 10.2666 17.9854 12.083 17.9854 15.4668V15.4814C17.9854 19.7002 14.6748 22.3809 9.0791 22.3809ZM24.7969 22V5.18359H18.9668V0.862305H35.9883V5.18359H30.1582V22H24.7969ZM47.3555 22.3809C41.8477 22.3809 38.2588 19.2607 38.2588 14.5V0.862305H43.6348V13.9873C43.6348 16.4482 44.9531 17.9277 47.3701 17.9277C49.7725 17.9277 51.0908 16.4482 51.0908 13.9873V0.862305H56.4668V14.5C56.4668 19.2461 52.9072 22.3809 47.3555 22.3809ZM59.6748 22V0.862305H68.2588C74.6309 0.862305 78.3955 4.55371 78.3955 11.2773V11.3066C78.3955 18.0596 74.6309 22 68.2588 22H59.6748ZM65.0508 17.6641H67.5557C71.0566 17.6641 72.9316 15.54 72.9316 11.3213V11.292C72.9316 7.33691 70.9395 5.19824 67.5557 5.19824H65.0508V17.6641ZM85.7344 22V14.7344L78.4541 0.862305H84.167L88.3711 9.65137H88.4736L92.6777 0.862305H98.3906L91.1104 14.7344V22H85.7344ZM106.257 22V0.862305H111.633V10.1641H111.735L118.854 0.862305H124.611L117.375 10.208L125.036 22H118.723L113.449 13.665L111.633 16.0234V22H106.257ZM126.677 22V0.862305H141.164V5.18359H132.053V9.3584H140.622V13.4014H132.053V17.6787H141.164V22H126.677ZM144.196 22V0.862305H158.684V5.18359H149.572V9.3584H158.142V13.4014H149.572V17.6787H158.684V22H144.196ZM161.716 22V0.862305H170.725C175.441 0.862305 178.488 3.82129 178.488 8.34766V8.37695C178.488 12.9033 175.441 15.8037 170.725 15.8037H167.092V22H161.716ZM169.436 4.97852H167.092V11.7607H169.436C171.706 11.7607 173.054 10.5742 173.054 8.37695V8.34766C173.054 6.15039 171.706 4.97852 169.436 4.97852ZM180.876 22V0.862305H195.363V5.18359H186.252V9.3584H194.821V13.4014H186.252V17.6787H195.363V22H180.876ZM198.396 22V0.862305H207.551C212.663 0.862305 215.549 3.39648 215.549 7.87891V7.9082C215.549 10.6182 214.143 12.9619 211.945 13.9141L216.179 22H210.144L206.511 14.7197H203.771V22H198.396ZM203.771 10.8232H206.95C208.854 10.8232 210.07 9.68066 210.07 7.89355V7.86426C210.07 6.0918 208.811 4.91992 206.921 4.91992H203.771V10.8232Z" fill="white"/>
</svg>
